<mxfile host="app.diagrams.net" modified="2024-05-08T06:36:00.774Z" agent="Mozilla/5.0 (Windows NT 10.0; Win64; x64) AppleWebKit/537.36 (KHTML, like Gecko) Chrome/124.0.0.0 Safari/537.36" etag="psIyuGqD34KnlWFLb-Rm" version="24.3.0" type="github" pages="5">
  <diagram name="Arch" id="jzE36-Lyo3FbMxssoEzt">
    <mxGraphModel dx="4707" dy="1545" grid="1" gridSize="10" guides="1" tooltips="1" connect="0" arrows="1" fold="1" page="1" pageScale="1" pageWidth="827" pageHeight="1169" math="0" shadow="0">
      <root>
        <mxCell id="0" />
        <mxCell id="1" parent="0" />
        <mxCell id="yMf_5TeQI9ooikyt38Ds-1" value="" style="rounded=0;whiteSpace=wrap;html=1;" parent="1" vertex="1">
          <mxGeometry x="90" y="90" width="1780" height="1100" as="geometry" />
        </mxCell>
        <mxCell id="yMf_5TeQI9ooikyt38Ds-2" value="Floorplan:300.2mm&amp;gt;2" style="text;html=1;align=center;verticalAlign=middle;whiteSpace=wrap;rounded=0;fontSize=16;" parent="1" vertex="1">
          <mxGeometry x="390" y="10" width="190" height="40" as="geometry" />
        </mxCell>
        <mxCell id="yMf_5TeQI9ooikyt38Ds-3" value="DDR0&lt;div&gt;5.12&lt;/div&gt;" style="rounded=0;whiteSpace=wrap;html=1;" parent="1" vertex="1">
          <mxGeometry x="90" y="220" width="50" height="130" as="geometry" />
        </mxCell>
        <mxCell id="yMf_5TeQI9ooikyt38Ds-4" value="DDR0&lt;div&gt;5.12&lt;/div&gt;" style="rounded=0;whiteSpace=wrap;html=1;" parent="1" vertex="1">
          <mxGeometry x="90" y="350" width="50" height="130" as="geometry" />
        </mxCell>
        <mxCell id="yMf_5TeQI9ooikyt38Ds-5" value="DDR0&lt;div&gt;5.12&lt;/div&gt;" style="rounded=0;whiteSpace=wrap;html=1;" parent="1" vertex="1">
          <mxGeometry x="90" y="480" width="50" height="130" as="geometry" />
        </mxCell>
        <mxCell id="yMf_5TeQI9ooikyt38Ds-6" value="DDR0&lt;div&gt;5.12&lt;/div&gt;" style="rounded=0;whiteSpace=wrap;html=1;" parent="1" vertex="1">
          <mxGeometry x="90" y="610" width="50" height="130" as="geometry" />
        </mxCell>
        <mxCell id="yMf_5TeQI9ooikyt38Ds-7" value="Vol" style="whiteSpace=wrap;html=1;aspect=fixed;fillColor=#f5f5f5;fontColor=#333333;strokeColor=#666666;" parent="1" vertex="1">
          <mxGeometry x="180" y="390" width="50" height="50" as="geometry" />
        </mxCell>
        <mxCell id="yMf_5TeQI9ooikyt38Ds-8" value="Ten" style="whiteSpace=wrap;html=1;aspect=fixed;fillColor=#f5f5f5;fontColor=#333333;strokeColor=#666666;" parent="1" vertex="1">
          <mxGeometry x="180" y="450" width="50" height="50" as="geometry" />
        </mxCell>
        <mxCell id="yMf_5TeQI9ooikyt38Ds-9" value="Ten" style="whiteSpace=wrap;html=1;aspect=fixed;fillColor=#f5f5f5;fontColor=#333333;strokeColor=#666666;" parent="1" vertex="1">
          <mxGeometry x="180" y="510" width="50" height="50" as="geometry" />
        </mxCell>
        <mxCell id="yMf_5TeQI9ooikyt38Ds-10" value="Voltage * 1" style="text;html=1;align=center;verticalAlign=middle;whiteSpace=wrap;rounded=0;fontSize=16;" parent="1" vertex="1">
          <mxGeometry x="-10" y="340" width="90" height="30" as="geometry" />
        </mxCell>
        <mxCell id="yMf_5TeQI9ooikyt38Ds-11" value="Tensor CH * 2" style="text;html=1;align=center;verticalAlign=middle;whiteSpace=wrap;rounded=0;fontSize=16;" parent="1" vertex="1">
          <mxGeometry x="-50" y="400" width="130" height="30" as="geometry" />
        </mxCell>
        <mxCell id="yMf_5TeQI9ooikyt38Ds-12" value="DFT&lt;div&gt;FUSE&lt;/div&gt;" style="rounded=1;whiteSpace=wrap;html=1;fillColor=#ffe6cc;strokeColor=#d79b00;" parent="1" vertex="1">
          <mxGeometry x="180" y="580" width="50" height="70" as="geometry" />
        </mxCell>
        <mxCell id="yMf_5TeQI9ooikyt38Ds-13" value="" style="rounded=0;whiteSpace=wrap;html=1;" parent="1" vertex="1">
          <mxGeometry x="140" y="380" width="20" height="70" as="geometry" />
        </mxCell>
        <mxCell id="yMf_5TeQI9ooikyt38Ds-14" value="" style="rounded=0;whiteSpace=wrap;html=1;" parent="1" vertex="1">
          <mxGeometry x="140" y="270" width="20" height="70" as="geometry" />
        </mxCell>
        <mxCell id="yMf_5TeQI9ooikyt38Ds-15" value="" style="rounded=0;whiteSpace=wrap;html=1;" parent="1" vertex="1">
          <mxGeometry x="140" y="510" width="20" height="70" as="geometry" />
        </mxCell>
        <mxCell id="yMf_5TeQI9ooikyt38Ds-16" value="" style="rounded=0;whiteSpace=wrap;html=1;" parent="1" vertex="1">
          <mxGeometry x="140" y="640" width="20" height="70" as="geometry" />
        </mxCell>
        <mxCell id="yMf_5TeQI9ooikyt38Ds-17" value="PLL" style="whiteSpace=wrap;html=1;aspect=fixed;fillColor=#f8cecc;strokeColor=#b85450;" parent="1" vertex="1">
          <mxGeometry x="-50" y="220" width="40" height="40" as="geometry" />
        </mxCell>
        <mxCell id="yMf_5TeQI9ooikyt38Ds-19" value="DDR0&lt;div&gt;5.12&lt;/div&gt;" style="rounded=0;whiteSpace=wrap;html=1;fillColor=#dae8fc;strokeColor=#6c8ebf;" parent="1" vertex="1">
          <mxGeometry x="-65" width="50" height="130" as="geometry" />
        </mxCell>
        <mxCell id="yMf_5TeQI9ooikyt38Ds-20" value="" style="rounded=0;whiteSpace=wrap;html=1;fillColor=#d5e8d4;strokeColor=#82b366;" parent="1" vertex="1">
          <mxGeometry x="-15" y="30" width="20" height="70" as="geometry" />
        </mxCell>
        <mxCell id="yMf_5TeQI9ooikyt38Ds-35" value="GPU&lt;div&gt;22.6&lt;/div&gt;" style="rounded=0;whiteSpace=wrap;html=1;fillColor=#d5e8d4;strokeColor=#82b366;" parent="1" vertex="1">
          <mxGeometry x="200" y="110" width="510" height="265" as="geometry" />
        </mxCell>
        <mxCell id="yMf_5TeQI9ooikyt38Ds-18" value="" style="rounded=0;whiteSpace=wrap;html=1;" parent="1" vertex="1">
          <mxGeometry x="170" y="90" width="390" height="120" as="geometry" />
        </mxCell>
        <mxCell id="yMf_5TeQI9ooikyt38Ds-21" value="" style="rounded=0;whiteSpace=wrap;html=1;" parent="1" vertex="1">
          <mxGeometry x="180" y="90" width="30" height="60" as="geometry" />
        </mxCell>
        <mxCell id="yMf_5TeQI9ooikyt38Ds-22" value="" style="rounded=0;whiteSpace=wrap;html=1;" parent="1" vertex="1">
          <mxGeometry x="210" y="90" width="30" height="60" as="geometry" />
        </mxCell>
        <mxCell id="yMf_5TeQI9ooikyt38Ds-23" value="" style="rounded=0;whiteSpace=wrap;html=1;" parent="1" vertex="1">
          <mxGeometry x="240" y="90" width="30" height="60" as="geometry" />
        </mxCell>
        <mxCell id="yMf_5TeQI9ooikyt38Ds-24" value="" style="rounded=0;whiteSpace=wrap;html=1;" parent="1" vertex="1">
          <mxGeometry x="290" y="90" width="30" height="60" as="geometry" />
        </mxCell>
        <mxCell id="yMf_5TeQI9ooikyt38Ds-25" value="" style="rounded=0;whiteSpace=wrap;html=1;" parent="1" vertex="1">
          <mxGeometry x="320" y="90" width="30" height="60" as="geometry" />
        </mxCell>
        <mxCell id="yMf_5TeQI9ooikyt38Ds-26" value="" style="rounded=0;whiteSpace=wrap;html=1;" parent="1" vertex="1">
          <mxGeometry x="350" y="90" width="30" height="60" as="geometry" />
        </mxCell>
        <mxCell id="yMf_5TeQI9ooikyt38Ds-27" value="USB 2.0" style="text;html=1;align=center;verticalAlign=middle;whiteSpace=wrap;rounded=0;fontSize=16;" parent="1" vertex="1">
          <mxGeometry x="195" y="105" width="60" height="30" as="geometry" />
        </mxCell>
        <mxCell id="yMf_5TeQI9ooikyt38Ds-28" value="USB 3.0" style="text;html=1;align=center;verticalAlign=middle;whiteSpace=wrap;rounded=0;fontSize=16;" parent="1" vertex="1">
          <mxGeometry x="305" y="105" width="60" height="30" as="geometry" />
        </mxCell>
        <mxCell id="yMf_5TeQI9ooikyt38Ds-29" value="" style="rounded=0;whiteSpace=wrap;html=1;" parent="1" vertex="1">
          <mxGeometry x="419" y="90" width="30" height="60" as="geometry" />
        </mxCell>
        <mxCell id="yMf_5TeQI9ooikyt38Ds-30" value="" style="rounded=0;whiteSpace=wrap;html=1;" parent="1" vertex="1">
          <mxGeometry x="449" y="90" width="30" height="60" as="geometry" />
        </mxCell>
        <mxCell id="yMf_5TeQI9ooikyt38Ds-32" value="MPHY" style="text;html=1;align=center;verticalAlign=middle;whiteSpace=wrap;rounded=0;fontSize=16;" parent="1" vertex="1">
          <mxGeometry x="420" y="105" width="60" height="30" as="geometry" />
        </mxCell>
        <mxCell id="yMf_5TeQI9ooikyt38Ds-33" value="Ten" style="whiteSpace=wrap;html=1;aspect=fixed;fillColor=#f5f5f5;fontColor=#333333;strokeColor=#666666;" parent="1" vertex="1">
          <mxGeometry x="230" y="160" width="50" height="50" as="geometry" />
        </mxCell>
        <mxCell id="yMf_5TeQI9ooikyt38Ds-34" value="PERI 4.0" style="text;html=1;align=center;verticalAlign=middle;whiteSpace=wrap;rounded=0;fontSize=16;" parent="1" vertex="1">
          <mxGeometry x="320" y="160" width="115" height="30" as="geometry" />
        </mxCell>
        <mxCell id="yMf_5TeQI9ooikyt38Ds-36" value="BPU&lt;div&gt;18.4&lt;/div&gt;" style="rounded=0;whiteSpace=wrap;html=1;fillColor=#d5e8d4;strokeColor=#82b366;" parent="1" vertex="1">
          <mxGeometry x="710" y="110" width="280" height="260" as="geometry" />
        </mxCell>
        <mxCell id="yMf_5TeQI9ooikyt38Ds-37" value="PLL" style="whiteSpace=wrap;html=1;aspect=fixed;fillColor=#f8cecc;strokeColor=#b85450;" parent="1" vertex="1">
          <mxGeometry x="160" y="330" width="40" height="40" as="geometry" />
        </mxCell>
        <mxCell id="yMf_5TeQI9ooikyt38Ds-38" value="PLL" style="whiteSpace=wrap;html=1;aspect=fixed;fillColor=#f8cecc;strokeColor=#b85450;" parent="1" vertex="1">
          <mxGeometry x="510" y="330" width="40" height="40" as="geometry" />
        </mxCell>
        <mxCell id="yMf_5TeQI9ooikyt38Ds-39" value="PLL" style="whiteSpace=wrap;html=1;aspect=fixed;fillColor=#f8cecc;strokeColor=#b85450;" parent="1" vertex="1">
          <mxGeometry x="550" y="330" width="40" height="40" as="geometry" />
        </mxCell>
        <mxCell id="yMf_5TeQI9ooikyt38Ds-40" value="PLL" style="whiteSpace=wrap;html=1;aspect=fixed;fillColor=#f8cecc;strokeColor=#b85450;" parent="1" vertex="1">
          <mxGeometry x="710" y="335" width="40" height="40" as="geometry" />
        </mxCell>
        <mxCell id="yMf_5TeQI9ooikyt38Ds-41" value="PLL" style="whiteSpace=wrap;html=1;aspect=fixed;fillColor=#f8cecc;strokeColor=#b85450;" parent="1" vertex="1">
          <mxGeometry x="750" y="335" width="40" height="40" as="geometry" />
        </mxCell>
        <mxCell id="yMf_5TeQI9ooikyt38Ds-42" value="BPU&lt;div&gt;18.4&lt;/div&gt;" style="rounded=0;whiteSpace=wrap;html=1;fillColor=#d5e8d4;strokeColor=#82b366;" parent="1" vertex="1">
          <mxGeometry x="990" y="110" width="280" height="260" as="geometry" />
        </mxCell>
        <mxCell id="yMf_5TeQI9ooikyt38Ds-43" value="PLL" style="whiteSpace=wrap;html=1;aspect=fixed;fillColor=#f8cecc;strokeColor=#b85450;" parent="1" vertex="1">
          <mxGeometry x="990" y="335" width="40" height="40" as="geometry" />
        </mxCell>
        <mxCell id="yMf_5TeQI9ooikyt38Ds-44" value="PLL" style="whiteSpace=wrap;html=1;aspect=fixed;fillColor=#f8cecc;strokeColor=#b85450;" parent="1" vertex="1">
          <mxGeometry x="1030" y="335" width="40" height="40" as="geometry" />
        </mxCell>
        <mxCell id="yMf_5TeQI9ooikyt38Ds-45" value="MCU IO #180" style="rounded=0;whiteSpace=wrap;html=1;fillColor=#e1d5e7;strokeColor=#9673a6;" parent="1" vertex="1">
          <mxGeometry x="1270" y="90" width="390" height="220" as="geometry" />
        </mxCell>
        <mxCell id="yMf_5TeQI9ooikyt38Ds-46" value="VPU&lt;div&gt;7.5&lt;/div&gt;" style="rounded=0;whiteSpace=wrap;html=1;fillColor=#dae8fc;strokeColor=#6c8ebf;" parent="1" vertex="1">
          <mxGeometry x="1300" y="310" width="410" height="145" as="geometry" />
        </mxCell>
        <mxCell id="yMf_5TeQI9ooikyt38Ds-47" value="VDSP&lt;div&gt;3.2&lt;/div&gt;" style="rounded=0;whiteSpace=wrap;html=1;fillColor=#dae8fc;strokeColor=#6c8ebf;" parent="1" vertex="1">
          <mxGeometry x="1530" y="470" width="180" height="180" as="geometry" />
        </mxCell>
        <mxCell id="yMf_5TeQI9ooikyt38Ds-48" value="ADSP&lt;div&gt;4.4&lt;/div&gt;" style="rounded=0;whiteSpace=wrap;html=1;fillColor=#dae8fc;strokeColor=#6c8ebf;" parent="1" vertex="1">
          <mxGeometry x="1530" y="660" width="180" height="180" as="geometry" />
        </mxCell>
        <mxCell id="yMf_5TeQI9ooikyt38Ds-49" value="ISP&lt;div&gt;15.5&lt;/div&gt;" style="rounded=0;whiteSpace=wrap;html=1;fillColor=#dae8fc;strokeColor=#6c8ebf;" parent="1" vertex="1">
          <mxGeometry x="1300" y="870" width="410" height="250" as="geometry" />
        </mxCell>
        <mxCell id="yMf_5TeQI9ooikyt38Ds-50" value="BPU&lt;div&gt;18.4&lt;/div&gt;" style="rounded=0;whiteSpace=wrap;html=1;fillColor=#d5e8d4;strokeColor=#82b366;" parent="1" vertex="1">
          <mxGeometry x="1030" y="870" width="280" height="260" as="geometry" />
        </mxCell>
        <mxCell id="yMf_5TeQI9ooikyt38Ds-51" value="PLL" style="whiteSpace=wrap;html=1;aspect=fixed;fillColor=#f8cecc;strokeColor=#b85450;" parent="1" vertex="1">
          <mxGeometry x="1030" y="870" width="40" height="40" as="geometry" />
        </mxCell>
        <mxCell id="yMf_5TeQI9ooikyt38Ds-52" value="PLL" style="whiteSpace=wrap;html=1;aspect=fixed;fillColor=#f8cecc;strokeColor=#b85450;" parent="1" vertex="1">
          <mxGeometry x="1070" y="870" width="40" height="40" as="geometry" />
        </mxCell>
        <mxCell id="yMf_5TeQI9ooikyt38Ds-53" value="BPU&lt;div&gt;18.4&lt;/div&gt;" style="rounded=0;whiteSpace=wrap;html=1;fillColor=#d5e8d4;strokeColor=#82b366;" parent="1" vertex="1">
          <mxGeometry x="750" y="870" width="280" height="260" as="geometry" />
        </mxCell>
        <mxCell id="yMf_5TeQI9ooikyt38Ds-54" value="PLL" style="whiteSpace=wrap;html=1;aspect=fixed;fillColor=#f8cecc;strokeColor=#b85450;" parent="1" vertex="1">
          <mxGeometry x="750" y="870" width="40" height="40" as="geometry" />
        </mxCell>
        <mxCell id="yMf_5TeQI9ooikyt38Ds-55" value="PLL" style="whiteSpace=wrap;html=1;aspect=fixed;fillColor=#f8cecc;strokeColor=#b85450;" parent="1" vertex="1">
          <mxGeometry x="790" y="870" width="40" height="40" as="geometry" />
        </mxCell>
        <mxCell id="yMf_5TeQI9ooikyt38Ds-62" value="PLL" style="whiteSpace=wrap;html=1;aspect=fixed;fillColor=#f8cecc;strokeColor=#b85450;" parent="1" vertex="1">
          <mxGeometry x="740" y="1140" width="40" height="40" as="geometry" />
        </mxCell>
        <mxCell id="yMf_5TeQI9ooikyt38Ds-63" value="DPU&lt;div&gt;18.5&lt;/div&gt;" style="rounded=0;whiteSpace=wrap;html=1;" parent="1" vertex="1">
          <mxGeometry x="119" y="760" width="330" height="420" as="geometry" />
        </mxCell>
        <mxCell id="yMf_5TeQI9ooikyt38Ds-56" value="PCIE/ETH&lt;div&gt;5.35&lt;/div&gt;" style="rounded=0;whiteSpace=wrap;html=1;" parent="1" vertex="1">
          <mxGeometry x="330" y="1020" width="400" height="60" as="geometry" />
        </mxCell>
        <mxCell id="yMf_5TeQI9ooikyt38Ds-57" value="" style="rounded=0;whiteSpace=wrap;html=1;" parent="1" vertex="1">
          <mxGeometry x="330" y="1080" width="80" height="100" as="geometry" />
        </mxCell>
        <mxCell id="yMf_5TeQI9ooikyt38Ds-58" value="" style="rounded=0;whiteSpace=wrap;html=1;" parent="1" vertex="1">
          <mxGeometry x="410" y="1080" width="80" height="100" as="geometry" />
        </mxCell>
        <mxCell id="yMf_5TeQI9ooikyt38Ds-59" value="" style="rounded=0;whiteSpace=wrap;html=1;" parent="1" vertex="1">
          <mxGeometry x="490" y="1080" width="80" height="100" as="geometry" />
        </mxCell>
        <mxCell id="yMf_5TeQI9ooikyt38Ds-60" value="" style="rounded=0;whiteSpace=wrap;html=1;" parent="1" vertex="1">
          <mxGeometry x="570" y="1080" width="80" height="100" as="geometry" />
        </mxCell>
        <mxCell id="yMf_5TeQI9ooikyt38Ds-61" value="" style="rounded=0;whiteSpace=wrap;html=1;" parent="1" vertex="1">
          <mxGeometry x="650" y="1080" width="80" height="100" as="geometry" />
        </mxCell>
        <mxCell id="yMf_5TeQI9ooikyt38Ds-64" value="" style="rounded=0;whiteSpace=wrap;html=1;" parent="1" vertex="1">
          <mxGeometry x="119" y="1110" width="50" height="70" as="geometry" />
        </mxCell>
        <mxCell id="yMf_5TeQI9ooikyt38Ds-65" value="" style="rounded=0;whiteSpace=wrap;html=1;" parent="1" vertex="1">
          <mxGeometry x="169" y="1110" width="50" height="70" as="geometry" />
        </mxCell>
        <mxCell id="yMf_5TeQI9ooikyt38Ds-66" value="" style="rounded=0;whiteSpace=wrap;html=1;" parent="1" vertex="1">
          <mxGeometry x="219" y="1110" width="50" height="70" as="geometry" />
        </mxCell>
        <mxCell id="yMf_5TeQI9ooikyt38Ds-67" value="" style="rounded=0;whiteSpace=wrap;html=1;" parent="1" vertex="1">
          <mxGeometry x="269" y="1110" width="50" height="70" as="geometry" />
        </mxCell>
        <mxCell id="yMf_5TeQI9ooikyt38Ds-68" value="" style="rounded=0;whiteSpace=wrap;html=1;fillColor=#dae8fc;strokeColor=#6c8ebf;" parent="1" vertex="1">
          <mxGeometry x="-450" y="860" width="360" height="240" as="geometry" />
        </mxCell>
        <mxCell id="yMf_5TeQI9ooikyt38Ds-70" value="C0" style="whiteSpace=wrap;html=1;aspect=fixed;fillColor=#d5e8d4;strokeColor=#82b366;" parent="1" vertex="1">
          <mxGeometry x="-450" y="860" width="120" height="120" as="geometry" />
        </mxCell>
        <mxCell id="yMf_5TeQI9ooikyt38Ds-71" value="C1" style="whiteSpace=wrap;html=1;aspect=fixed;fillColor=#d5e8d4;strokeColor=#82b366;" parent="1" vertex="1">
          <mxGeometry x="-330" y="860" width="120" height="120" as="geometry" />
        </mxCell>
        <mxCell id="yMf_5TeQI9ooikyt38Ds-72" value="C2" style="whiteSpace=wrap;html=1;aspect=fixed;fillColor=#d5e8d4;strokeColor=#82b366;" parent="1" vertex="1">
          <mxGeometry x="-210" y="860" width="120" height="120" as="geometry" />
        </mxCell>
        <mxCell id="yMf_5TeQI9ooikyt38Ds-73" value="C3" style="whiteSpace=wrap;html=1;aspect=fixed;fillColor=#d5e8d4;strokeColor=#82b366;" parent="1" vertex="1">
          <mxGeometry x="-450" y="980" width="120" height="120" as="geometry" />
        </mxCell>
        <mxCell id="yMf_5TeQI9ooikyt38Ds-75" value="PLL" style="whiteSpace=wrap;html=1;aspect=fixed;fillColor=#f8cecc;strokeColor=#b85450;" parent="1" vertex="1">
          <mxGeometry x="-310" y="1060" width="40" height="40" as="geometry" />
        </mxCell>
        <mxCell id="yMf_5TeQI9ooikyt38Ds-76" value="PLL" style="whiteSpace=wrap;html=1;aspect=fixed;fillColor=#f8cecc;strokeColor=#b85450;" parent="1" vertex="1">
          <mxGeometry x="-270" y="1060" width="40" height="40" as="geometry" />
        </mxCell>
        <mxCell id="yMf_5TeQI9ooikyt38Ds-78" value="" style="rounded=0;whiteSpace=wrap;html=1;" parent="1" vertex="1">
          <mxGeometry x="-890" y="880" width="120" height="60" as="geometry" />
        </mxCell>
      </root>
    </mxGraphModel>
  </diagram>
  <diagram id="IiuqgRpjQ-v0hnydv36A" name="G78AEV05">
    <mxGraphModel dx="5711" dy="3641" grid="1" gridSize="10" guides="1" tooltips="1" connect="1" arrows="1" fold="1" page="1" pageScale="1" pageWidth="827" pageHeight="1169" math="0" shadow="0">
      <root>
        <mxCell id="0" />
        <mxCell id="1" parent="0" />
        <mxCell id="NdsZ__3MhjiEh3BWl1wC-163" value="" style="rounded=0;whiteSpace=wrap;html=1;fillColor=none;perimeterSpacing=18;strokeWidth=5;strokeColor=#66B2FF;dashed=1;" vertex="1" parent="1">
          <mxGeometry x="-20" y="-190" width="2750" height="2960" as="geometry" />
        </mxCell>
        <mxCell id="NdsZ__3MhjiEh3BWl1wC-162" value="" style="rounded=0;whiteSpace=wrap;html=1;fillColor=none;perimeterSpacing=18;strokeWidth=5;dashed=1;dashPattern=8 8;" vertex="1" parent="1">
          <mxGeometry x="-10" y="-180" width="2660" height="2660" as="geometry" />
        </mxCell>
        <mxCell id="NdsZ__3MhjiEh3BWl1wC-135" value="" style="rounded=0;whiteSpace=wrap;html=1;fillColor=none;strokeColor=#FF0000;strokeWidth=4;" vertex="1" parent="1">
          <mxGeometry x="10" y="-120" width="2620" height="2480" as="geometry" />
        </mxCell>
        <mxCell id="NdsZ__3MhjiEh3BWl1wC-155" value="" style="rounded=0;whiteSpace=wrap;html=1;fillColor=#fff2cc;strokeColor=#d6b656;" vertex="1" parent="1">
          <mxGeometry x="40" y="10" width="1770" height="1610" as="geometry" />
        </mxCell>
        <mxCell id="NdsZ__3MhjiEh3BWl1wC-74" value="" style="rounded=0;whiteSpace=wrap;html=1;fillColor=#ffe6cc;strokeColor=#d79b00;" vertex="1" parent="1">
          <mxGeometry x="50" y="30" width="1660" height="1280" as="geometry" />
        </mxCell>
        <mxCell id="NdsZ__3MhjiEh3BWl1wC-1" value="" style="rounded=0;whiteSpace=wrap;html=1;" vertex="1" parent="1">
          <mxGeometry x="140" y="70" width="420" height="960" as="geometry" />
        </mxCell>
        <mxCell id="NdsZ__3MhjiEh3BWl1wC-2" value="AXI-C" style="text;html=1;align=center;verticalAlign=middle;whiteSpace=wrap;rounded=0;" vertex="1" parent="1">
          <mxGeometry x="140" y="-80" width="60" height="30" as="geometry" />
        </mxCell>
        <mxCell id="NdsZ__3MhjiEh3BWl1wC-5" value="" style="shape=flexArrow;endArrow=classic;html=1;rounded=0;" edge="1" parent="1">
          <mxGeometry width="50" height="50" relative="1" as="geometry">
            <mxPoint x="249.5" y="70" as="sourcePoint" />
            <mxPoint x="250" y="-30" as="targetPoint" />
          </mxGeometry>
        </mxCell>
        <mxCell id="NdsZ__3MhjiEh3BWl1wC-6" value="Interrupts" style="text;html=1;align=center;verticalAlign=middle;whiteSpace=wrap;rounded=0;" vertex="1" parent="1">
          <mxGeometry x="220" y="-80" width="60" height="30" as="geometry" />
        </mxCell>
        <mxCell id="NdsZ__3MhjiEh3BWl1wC-7" value="Partition&amp;nbsp;&lt;span style=&quot;white-space: pre;&quot;&gt;&#x9;&lt;/span&gt;manager" style="text;html=1;align=center;verticalAlign=middle;whiteSpace=wrap;rounded=0;" vertex="1" parent="1">
          <mxGeometry x="430" y="70" width="120" height="30" as="geometry" />
        </mxCell>
        <mxCell id="NdsZ__3MhjiEh3BWl1wC-13" value="Capabilities" style="rounded=0;whiteSpace=wrap;html=1;" vertex="1" parent="1">
          <mxGeometry x="220" y="620" width="140" height="50" as="geometry" />
        </mxCell>
        <mxCell id="NdsZ__3MhjiEh3BWl1wC-14" value="Slice configuration" style="rounded=0;whiteSpace=wrap;html=1;" vertex="1" parent="1">
          <mxGeometry x="220" y="690" width="140" height="50" as="geometry" />
        </mxCell>
        <mxCell id="NdsZ__3MhjiEh3BWl1wC-15" value="Clock and reset" style="rounded=0;whiteSpace=wrap;html=1;" vertex="1" parent="1">
          <mxGeometry x="220" y="760" width="140" height="50" as="geometry" />
        </mxCell>
        <mxCell id="NdsZ__3MhjiEh3BWl1wC-16" value="BIST" style="rounded=0;whiteSpace=wrap;html=1;" vertex="1" parent="1">
          <mxGeometry x="220" y="840" width="140" height="50" as="geometry" />
        </mxCell>
        <mxCell id="NdsZ__3MhjiEh3BWl1wC-17" value="Stream indentifiers" style="rounded=0;whiteSpace=wrap;html=1;" vertex="1" parent="1">
          <mxGeometry x="220" y="920" width="140" height="50" as="geometry" />
        </mxCell>
        <mxCell id="NdsZ__3MhjiEh3BWl1wC-18" value="" style="rounded=0;whiteSpace=wrap;html=1;" vertex="1" parent="1">
          <mxGeometry x="200" y="410" width="160" height="170" as="geometry" />
        </mxCell>
        <mxCell id="NdsZ__3MhjiEh3BWl1wC-11" value="Partition 0-3 control&lt;div&gt;and configuration A&lt;/div&gt;" style="rounded=0;whiteSpace=wrap;html=1;" vertex="1" parent="1">
          <mxGeometry x="220" y="430" width="120" height="60" as="geometry" />
        </mxCell>
        <mxCell id="NdsZ__3MhjiEh3BWl1wC-12" value="Partition 0-3 control&lt;div&gt;and configuration B&lt;/div&gt;" style="rounded=0;whiteSpace=wrap;html=1;" vertex="1" parent="1">
          <mxGeometry x="220" y="510" width="120" height="60" as="geometry" />
        </mxCell>
        <mxCell id="NdsZ__3MhjiEh3BWl1wC-19" value="" style="rounded=0;whiteSpace=wrap;html=1;" vertex="1" parent="1">
          <mxGeometry x="170" y="100" width="180" height="290" as="geometry" />
        </mxCell>
        <mxCell id="NdsZ__3MhjiEh3BWl1wC-8" value="System and assignment C" style="rounded=0;whiteSpace=wrap;html=1;" vertex="1" parent="1">
          <mxGeometry x="200" y="140" width="120" height="60" as="geometry" />
        </mxCell>
        <mxCell id="NdsZ__3MhjiEh3BWl1wC-9" value="System and assignment A" style="rounded=0;whiteSpace=wrap;html=1;" vertex="1" parent="1">
          <mxGeometry x="200" y="230" width="120" height="60" as="geometry" />
        </mxCell>
        <mxCell id="NdsZ__3MhjiEh3BWl1wC-10" value="System and assignment B" style="rounded=0;whiteSpace=wrap;html=1;" vertex="1" parent="1">
          <mxGeometry x="200" y="320" width="120" height="60" as="geometry" />
        </mxCell>
        <mxCell id="NdsZ__3MhjiEh3BWl1wC-20" value="" style="rounded=0;whiteSpace=wrap;html=1;" vertex="1" parent="1">
          <mxGeometry x="630" y="140" width="980" height="480" as="geometry" />
        </mxCell>
        <mxCell id="NdsZ__3MhjiEh3BWl1wC-21" value="" style="rounded=0;whiteSpace=wrap;html=1;" vertex="1" parent="1">
          <mxGeometry x="630" y="740" width="1050" height="420" as="geometry" />
        </mxCell>
        <mxCell id="NdsZ__3MhjiEh3BWl1wC-22" value="" style="shape=trapezoid;perimeter=trapezoidPerimeter;whiteSpace=wrap;html=1;fixedSize=1;size=40;" vertex="1" parent="1">
          <mxGeometry x="750" y="170" width="320" height="50" as="geometry" />
        </mxCell>
        <mxCell id="NdsZ__3MhjiEh3BWl1wC-23" value="AXI Partition AW Slice map multiplex" style="rounded=0;whiteSpace=wrap;html=1;" vertex="1" parent="1">
          <mxGeometry x="680" y="520" width="920" height="60" as="geometry" />
        </mxCell>
        <mxCell id="NdsZ__3MhjiEh3BWl1wC-27" value="GPU Slice" style="rounded=0;whiteSpace=wrap;html=1;" vertex="1" parent="1">
          <mxGeometry x="680" y="790" width="120" height="330" as="geometry" />
        </mxCell>
        <mxCell id="NdsZ__3MhjiEh3BWl1wC-28" value="GPU Slice" style="rounded=0;whiteSpace=wrap;html=1;" vertex="1" parent="1">
          <mxGeometry x="810" y="790" width="120" height="330" as="geometry" />
        </mxCell>
        <mxCell id="NdsZ__3MhjiEh3BWl1wC-29" value="GPU Slice" style="rounded=0;whiteSpace=wrap;html=1;" vertex="1" parent="1">
          <mxGeometry x="930" y="790" width="120" height="330" as="geometry" />
        </mxCell>
        <mxCell id="NdsZ__3MhjiEh3BWl1wC-30" value="GPU Slice" style="rounded=0;whiteSpace=wrap;html=1;" vertex="1" parent="1">
          <mxGeometry x="1050" y="790" width="120" height="330" as="geometry" />
        </mxCell>
        <mxCell id="NdsZ__3MhjiEh3BWl1wC-31" value="GPU Slice" style="rounded=0;whiteSpace=wrap;html=1;" vertex="1" parent="1">
          <mxGeometry x="1170" y="790" width="120" height="330" as="geometry" />
        </mxCell>
        <mxCell id="NdsZ__3MhjiEh3BWl1wC-32" value="GPU Slice" style="rounded=0;whiteSpace=wrap;html=1;" vertex="1" parent="1">
          <mxGeometry x="1290" y="790" width="120" height="330" as="geometry" />
        </mxCell>
        <mxCell id="NdsZ__3MhjiEh3BWl1wC-33" value="GPU Slice" style="rounded=0;whiteSpace=wrap;html=1;" vertex="1" parent="1">
          <mxGeometry x="1410" y="790" width="120" height="330" as="geometry" />
        </mxCell>
        <mxCell id="NdsZ__3MhjiEh3BWl1wC-34" value="GPU Slice" style="rounded=0;whiteSpace=wrap;html=1;" vertex="1" parent="1">
          <mxGeometry x="1530" y="790" width="120" height="330" as="geometry" />
        </mxCell>
        <mxCell id="NdsZ__3MhjiEh3BWl1wC-36" value="" style="shape=flexArrow;endArrow=classic;startArrow=classic;html=1;rounded=0;fillColor=#e1d5e7;strokeColor=#9673a6;" edge="1" parent="1">
          <mxGeometry width="100" height="100" relative="1" as="geometry">
            <mxPoint x="200" y="170" as="sourcePoint" />
            <mxPoint x="160" y="-30" as="targetPoint" />
            <Array as="points">
              <mxPoint x="160" y="170" />
            </Array>
          </mxGeometry>
        </mxCell>
        <mxCell id="NdsZ__3MhjiEh3BWl1wC-4" value="Parity" style="rounded=0;whiteSpace=wrap;html=1;" vertex="1" parent="1">
          <mxGeometry x="140" y="30" width="60" height="40" as="geometry" />
        </mxCell>
        <mxCell id="NdsZ__3MhjiEh3BWl1wC-37" value="" style="shape=flexArrow;endArrow=classic;startArrow=classic;html=1;rounded=0;" edge="1" parent="1">
          <mxGeometry width="100" height="100" relative="1" as="geometry">
            <mxPoint x="909.5" y="170" as="sourcePoint" />
            <mxPoint x="910" y="-30" as="targetPoint" />
          </mxGeometry>
        </mxCell>
        <mxCell id="NdsZ__3MhjiEh3BWl1wC-38" value="" style="shape=flexArrow;endArrow=classic;startArrow=classic;html=1;rounded=0;" edge="1" parent="1">
          <mxGeometry width="100" height="100" relative="1" as="geometry">
            <mxPoint x="1339.5" y="170" as="sourcePoint" />
            <mxPoint x="1340" y="-50" as="targetPoint" />
          </mxGeometry>
        </mxCell>
        <mxCell id="NdsZ__3MhjiEh3BWl1wC-39" value="" style="shape=trapezoid;perimeter=trapezoidPerimeter;whiteSpace=wrap;html=1;fixedSize=1;size=40;" vertex="1" parent="1">
          <mxGeometry x="1170" y="170" width="320" height="50" as="geometry" />
        </mxCell>
        <mxCell id="NdsZ__3MhjiEh3BWl1wC-25" value="Parity" style="rounded=0;whiteSpace=wrap;html=1;" vertex="1" parent="1">
          <mxGeometry x="880" y="100" width="60" height="40" as="geometry" />
        </mxCell>
        <mxCell id="NdsZ__3MhjiEh3BWl1wC-26" value="Parity" style="rounded=0;whiteSpace=wrap;html=1;" vertex="1" parent="1">
          <mxGeometry x="1310" y="100" width="60" height="40" as="geometry" />
        </mxCell>
        <mxCell id="NdsZ__3MhjiEh3BWl1wC-40" value="AXI-A" style="text;html=1;align=center;verticalAlign=middle;whiteSpace=wrap;rounded=0;" vertex="1" parent="1">
          <mxGeometry x="880" y="-70" width="60" height="30" as="geometry" />
        </mxCell>
        <mxCell id="NdsZ__3MhjiEh3BWl1wC-41" value="AXI-B" style="text;html=1;align=center;verticalAlign=middle;whiteSpace=wrap;rounded=0;" vertex="1" parent="1">
          <mxGeometry x="1310" y="-90" width="60" height="30" as="geometry" />
        </mxCell>
        <mxCell id="NdsZ__3MhjiEh3BWl1wC-42" value="" style="shape=flexArrow;endArrow=classic;startArrow=classic;html=1;rounded=0;" edge="1" parent="1">
          <mxGeometry width="100" height="100" relative="1" as="geometry">
            <mxPoint x="1410" y="510" as="sourcePoint" />
            <mxPoint x="1410" y="220" as="targetPoint" />
          </mxGeometry>
        </mxCell>
        <mxCell id="NdsZ__3MhjiEh3BWl1wC-43" value="" style="shape=flexArrow;endArrow=classic;startArrow=classic;html=1;rounded=0;" edge="1" parent="1">
          <mxGeometry width="100" height="100" relative="1" as="geometry">
            <mxPoint x="1010" y="510" as="sourcePoint" />
            <mxPoint x="1010" y="220" as="targetPoint" />
          </mxGeometry>
        </mxCell>
        <mxCell id="NdsZ__3MhjiEh3BWl1wC-44" value="" style="shape=flexArrow;endArrow=classic;startArrow=classic;html=1;rounded=0;" edge="1" parent="1">
          <mxGeometry width="100" height="100" relative="1" as="geometry">
            <mxPoint x="320" y="260" as="sourcePoint" />
            <mxPoint x="790" y="210" as="targetPoint" />
            <Array as="points">
              <mxPoint x="790" y="260" />
            </Array>
          </mxGeometry>
        </mxCell>
        <mxCell id="NdsZ__3MhjiEh3BWl1wC-45" value="" style="shape=flexArrow;endArrow=classic;startArrow=classic;html=1;rounded=0;" edge="1" parent="1">
          <mxGeometry width="100" height="100" relative="1" as="geometry">
            <mxPoint x="320" y="350" as="sourcePoint" />
            <mxPoint x="1260" y="220" as="targetPoint" />
            <Array as="points">
              <mxPoint x="1260" y="350" />
            </Array>
          </mxGeometry>
        </mxCell>
        <mxCell id="NdsZ__3MhjiEh3BWl1wC-46" value="" style="shape=flexArrow;endArrow=classic;startArrow=classic;html=1;rounded=0;" edge="1" parent="1">
          <mxGeometry width="100" height="100" relative="1" as="geometry">
            <mxPoint x="748.1800000000001" y="770" as="sourcePoint" />
            <mxPoint x="748.1800000000001" y="590" as="targetPoint" />
          </mxGeometry>
        </mxCell>
        <mxCell id="NdsZ__3MhjiEh3BWl1wC-48" value="" style="shape=flexArrow;endArrow=classic;startArrow=classic;html=1;rounded=0;" edge="1" parent="1">
          <mxGeometry width="100" height="100" relative="1" as="geometry">
            <mxPoint x="869.47" y="770" as="sourcePoint" />
            <mxPoint x="869.47" y="590" as="targetPoint" />
          </mxGeometry>
        </mxCell>
        <mxCell id="NdsZ__3MhjiEh3BWl1wC-49" value="" style="shape=flexArrow;endArrow=classic;startArrow=classic;html=1;rounded=0;" edge="1" parent="1">
          <mxGeometry width="100" height="100" relative="1" as="geometry">
            <mxPoint x="989.47" y="770" as="sourcePoint" />
            <mxPoint x="989.47" y="590" as="targetPoint" />
          </mxGeometry>
        </mxCell>
        <mxCell id="NdsZ__3MhjiEh3BWl1wC-50" value="" style="shape=flexArrow;endArrow=classic;startArrow=classic;html=1;rounded=0;" edge="1" parent="1">
          <mxGeometry width="100" height="100" relative="1" as="geometry">
            <mxPoint x="1109.47" y="770" as="sourcePoint" />
            <mxPoint x="1109.47" y="590" as="targetPoint" />
          </mxGeometry>
        </mxCell>
        <mxCell id="NdsZ__3MhjiEh3BWl1wC-51" value="" style="shape=flexArrow;endArrow=classic;startArrow=classic;html=1;rounded=0;" edge="1" parent="1">
          <mxGeometry width="100" height="100" relative="1" as="geometry">
            <mxPoint x="1229.47" y="770" as="sourcePoint" />
            <mxPoint x="1229.47" y="590" as="targetPoint" />
          </mxGeometry>
        </mxCell>
        <mxCell id="NdsZ__3MhjiEh3BWl1wC-52" value="" style="shape=flexArrow;endArrow=classic;startArrow=classic;html=1;rounded=0;" edge="1" parent="1">
          <mxGeometry width="100" height="100" relative="1" as="geometry">
            <mxPoint x="1349.47" y="770" as="sourcePoint" />
            <mxPoint x="1349.47" y="590" as="targetPoint" />
          </mxGeometry>
        </mxCell>
        <mxCell id="NdsZ__3MhjiEh3BWl1wC-53" value="" style="shape=flexArrow;endArrow=classic;startArrow=classic;html=1;rounded=0;" edge="1" parent="1">
          <mxGeometry width="100" height="100" relative="1" as="geometry">
            <mxPoint x="1469.47" y="770" as="sourcePoint" />
            <mxPoint x="1469.47" y="590" as="targetPoint" />
          </mxGeometry>
        </mxCell>
        <mxCell id="NdsZ__3MhjiEh3BWl1wC-54" value="" style="shape=flexArrow;endArrow=classic;startArrow=classic;html=1;rounded=0;" edge="1" parent="1">
          <mxGeometry width="100" height="100" relative="1" as="geometry">
            <mxPoint x="1580" y="770" as="sourcePoint" />
            <mxPoint x="1580" y="590" as="targetPoint" />
          </mxGeometry>
        </mxCell>
        <mxCell id="NdsZ__3MhjiEh3BWl1wC-55" value="" style="shape=flexArrow;endArrow=classic;startArrow=classic;html=1;rounded=0;fillColor=#e1d5e7;strokeColor=#9673a6;" edge="1" parent="1">
          <mxGeometry width="100" height="100" relative="1" as="geometry">
            <mxPoint x="750.0000000000001" y="1300" as="sourcePoint" />
            <mxPoint x="750.0000000000001" y="1120" as="targetPoint" />
          </mxGeometry>
        </mxCell>
        <mxCell id="NdsZ__3MhjiEh3BWl1wC-56" value="Parity" style="rounded=0;whiteSpace=wrap;html=1;" vertex="1" parent="1">
          <mxGeometry x="720" y="1160" width="60" height="40" as="geometry" />
        </mxCell>
        <mxCell id="NdsZ__3MhjiEh3BWl1wC-57" value="" style="shape=flexArrow;endArrow=classic;startArrow=classic;html=1;rounded=0;fillColor=#e1d5e7;strokeColor=#9673a6;" edge="1" parent="1">
          <mxGeometry width="100" height="100" relative="1" as="geometry">
            <mxPoint x="870.0000000000001" y="1300" as="sourcePoint" />
            <mxPoint x="870.0000000000001" y="1120" as="targetPoint" />
          </mxGeometry>
        </mxCell>
        <mxCell id="NdsZ__3MhjiEh3BWl1wC-58" value="Parity" style="rounded=0;whiteSpace=wrap;html=1;" vertex="1" parent="1">
          <mxGeometry x="840" y="1160" width="60" height="40" as="geometry" />
        </mxCell>
        <mxCell id="NdsZ__3MhjiEh3BWl1wC-59" value="" style="shape=flexArrow;endArrow=classic;startArrow=classic;html=1;rounded=0;" edge="1" parent="1">
          <mxGeometry width="100" height="100" relative="1" as="geometry">
            <mxPoint x="990.0000000000001" y="1300" as="sourcePoint" />
            <mxPoint x="990.0000000000001" y="1120" as="targetPoint" />
          </mxGeometry>
        </mxCell>
        <mxCell id="NdsZ__3MhjiEh3BWl1wC-60" value="Parity" style="rounded=0;whiteSpace=wrap;html=1;" vertex="1" parent="1">
          <mxGeometry x="960" y="1160" width="60" height="40" as="geometry" />
        </mxCell>
        <mxCell id="NdsZ__3MhjiEh3BWl1wC-61" value="" style="shape=flexArrow;endArrow=classic;startArrow=classic;html=1;rounded=0;" edge="1" parent="1">
          <mxGeometry width="100" height="100" relative="1" as="geometry">
            <mxPoint x="1110" y="1300" as="sourcePoint" />
            <mxPoint x="1110" y="1120" as="targetPoint" />
          </mxGeometry>
        </mxCell>
        <mxCell id="NdsZ__3MhjiEh3BWl1wC-62" value="Parity" style="rounded=0;whiteSpace=wrap;html=1;" vertex="1" parent="1">
          <mxGeometry x="1080" y="1160" width="60" height="40" as="geometry" />
        </mxCell>
        <mxCell id="NdsZ__3MhjiEh3BWl1wC-63" value="" style="shape=flexArrow;endArrow=classic;startArrow=classic;html=1;rounded=0;" edge="1" parent="1">
          <mxGeometry width="100" height="100" relative="1" as="geometry">
            <mxPoint x="1230" y="1300" as="sourcePoint" />
            <mxPoint x="1230" y="1120" as="targetPoint" />
          </mxGeometry>
        </mxCell>
        <mxCell id="NdsZ__3MhjiEh3BWl1wC-64" value="Parity" style="rounded=0;whiteSpace=wrap;html=1;" vertex="1" parent="1">
          <mxGeometry x="1200" y="1160" width="60" height="40" as="geometry" />
        </mxCell>
        <mxCell id="NdsZ__3MhjiEh3BWl1wC-65" value="" style="shape=flexArrow;endArrow=classic;startArrow=classic;html=1;rounded=0;" edge="1" parent="1">
          <mxGeometry width="100" height="100" relative="1" as="geometry">
            <mxPoint x="1350" y="1300" as="sourcePoint" />
            <mxPoint x="1350" y="1120" as="targetPoint" />
          </mxGeometry>
        </mxCell>
        <mxCell id="NdsZ__3MhjiEh3BWl1wC-66" value="Parity" style="rounded=0;whiteSpace=wrap;html=1;" vertex="1" parent="1">
          <mxGeometry x="1320" y="1160" width="60" height="40" as="geometry" />
        </mxCell>
        <mxCell id="NdsZ__3MhjiEh3BWl1wC-67" value="" style="shape=flexArrow;endArrow=classic;startArrow=classic;html=1;rounded=0;" edge="1" parent="1">
          <mxGeometry width="100" height="100" relative="1" as="geometry">
            <mxPoint x="1470" y="1300" as="sourcePoint" />
            <mxPoint x="1470" y="1120" as="targetPoint" />
          </mxGeometry>
        </mxCell>
        <mxCell id="NdsZ__3MhjiEh3BWl1wC-68" value="Parity" style="rounded=0;whiteSpace=wrap;html=1;" vertex="1" parent="1">
          <mxGeometry x="1440" y="1160" width="60" height="40" as="geometry" />
        </mxCell>
        <mxCell id="NdsZ__3MhjiEh3BWl1wC-69" value="" style="shape=flexArrow;endArrow=classic;startArrow=classic;html=1;rounded=0;" edge="1" parent="1">
          <mxGeometry width="100" height="100" relative="1" as="geometry">
            <mxPoint x="1600" y="1300" as="sourcePoint" />
            <mxPoint x="1600" y="1120" as="targetPoint" />
          </mxGeometry>
        </mxCell>
        <mxCell id="NdsZ__3MhjiEh3BWl1wC-70" value="Parity" style="rounded=0;whiteSpace=wrap;html=1;" vertex="1" parent="1">
          <mxGeometry x="1570" y="1160" width="60" height="40" as="geometry" />
        </mxCell>
        <mxCell id="NdsZ__3MhjiEh3BWl1wC-71" value="ACE Lite BUS" style="text;html=1;align=center;verticalAlign=middle;whiteSpace=wrap;rounded=0;" vertex="1" parent="1">
          <mxGeometry x="1060" y="1320" width="190" height="30" as="geometry" />
        </mxCell>
        <mxCell id="NdsZ__3MhjiEh3BWl1wC-72" value="" style="rounded=0;whiteSpace=wrap;html=1;fillColor=none;strokeColor=#FF0000;dashed=1;" vertex="1" parent="1">
          <mxGeometry x="920" y="760" width="780" height="450" as="geometry" />
        </mxCell>
        <mxCell id="NdsZ__3MhjiEh3BWl1wC-73" value="红框内不配置" style="text;html=1;align=center;verticalAlign=middle;whiteSpace=wrap;rounded=0;" vertex="1" parent="1">
          <mxGeometry x="1710" y="780" width="60" height="30" as="geometry" />
        </mxCell>
        <mxCell id="NdsZ__3MhjiEh3BWl1wC-75" value="G78AE" style="text;html=1;align=center;verticalAlign=middle;whiteSpace=wrap;rounded=0;" vertex="1" parent="1">
          <mxGeometry x="60" y="35" width="60" height="30" as="geometry" />
        </mxCell>
        <mxCell id="NdsZ__3MhjiEh3BWl1wC-76" value="L2&amp;nbsp; &amp;nbsp;Cache&amp;nbsp;" style="rounded=0;whiteSpace=wrap;html=1;fillColor=#ffe6cc;strokeColor=#d79b00;" vertex="1" parent="1">
          <mxGeometry x="640" y="1350" width="1040" height="200" as="geometry" />
        </mxCell>
        <mxCell id="NdsZ__3MhjiEh3BWl1wC-78" value="" style="shape=flexArrow;endArrow=classic;startArrow=classic;html=1;rounded=0;" edge="1" parent="1">
          <mxGeometry width="100" height="100" relative="1" as="geometry">
            <mxPoint x="770" y="1740" as="sourcePoint" />
            <mxPoint x="770" y="1590" as="targetPoint" />
          </mxGeometry>
        </mxCell>
        <mxCell id="NdsZ__3MhjiEh3BWl1wC-79" value="AXI 256" style="text;html=1;align=center;verticalAlign=middle;whiteSpace=wrap;rounded=0;" vertex="1" parent="1">
          <mxGeometry x="775" y="1640" width="60" height="30" as="geometry" />
        </mxCell>
        <mxCell id="NdsZ__3MhjiEh3BWl1wC-80" value="" style="shape=flexArrow;endArrow=classic;startArrow=classic;html=1;rounded=0;" edge="1" parent="1">
          <mxGeometry width="100" height="100" relative="1" as="geometry">
            <mxPoint x="990" y="1740" as="sourcePoint" />
            <mxPoint x="990" y="1590" as="targetPoint" />
          </mxGeometry>
        </mxCell>
        <mxCell id="NdsZ__3MhjiEh3BWl1wC-81" value="AXI 256" style="text;html=1;align=center;verticalAlign=middle;whiteSpace=wrap;rounded=0;" vertex="1" parent="1">
          <mxGeometry x="1000" y="1640" width="60" height="30" as="geometry" />
        </mxCell>
        <mxCell id="NdsZ__3MhjiEh3BWl1wC-82" value="" style="shape=flexArrow;endArrow=classic;startArrow=classic;html=1;rounded=0;" edge="1" parent="1">
          <mxGeometry width="100" height="100" relative="1" as="geometry">
            <mxPoint x="1380" y="1740" as="sourcePoint" />
            <mxPoint x="1380" y="1590" as="targetPoint" />
          </mxGeometry>
        </mxCell>
        <mxCell id="NdsZ__3MhjiEh3BWl1wC-83" value="AXI 256" style="text;html=1;align=center;verticalAlign=middle;whiteSpace=wrap;rounded=0;" vertex="1" parent="1">
          <mxGeometry x="1400" y="1640" width="60" height="30" as="geometry" />
        </mxCell>
        <mxCell id="NdsZ__3MhjiEh3BWl1wC-84" value="" style="shape=flexArrow;endArrow=classic;startArrow=classic;html=1;rounded=0;" edge="1" parent="1">
          <mxGeometry width="100" height="100" relative="1" as="geometry">
            <mxPoint x="1570" y="1740" as="sourcePoint" />
            <mxPoint x="1570" y="1590" as="targetPoint" />
          </mxGeometry>
        </mxCell>
        <mxCell id="NdsZ__3MhjiEh3BWl1wC-85" value="AXI 256" style="text;html=1;align=center;verticalAlign=middle;whiteSpace=wrap;rounded=0;" vertex="1" parent="1">
          <mxGeometry x="1580" y="1640" width="60" height="30" as="geometry" />
        </mxCell>
        <mxCell id="NdsZ__3MhjiEh3BWl1wC-86" value="" style="rounded=0;whiteSpace=wrap;html=1;fillColor=#fff2cc;strokeColor=#d6b656;" vertex="1" parent="1">
          <mxGeometry x="650" y="1754" width="1020" height="296" as="geometry" />
        </mxCell>
        <mxCell id="NdsZ__3MhjiEh3BWl1wC-87" value="&lt;font style=&quot;font-size: 24px;&quot;&gt;SMMU&lt;/font&gt;" style="text;html=1;align=center;verticalAlign=middle;whiteSpace=wrap;rounded=0;" vertex="1" parent="1">
          <mxGeometry x="640" y="1754" width="140" height="60" as="geometry" />
        </mxCell>
        <mxCell id="NdsZ__3MhjiEh3BWl1wC-88" value="Switch&lt;div&gt;4*1&lt;/div&gt;" style="rounded=0;whiteSpace=wrap;html=1;" vertex="1" parent="1">
          <mxGeometry x="650" y="1930" width="120" height="120" as="geometry" />
        </mxCell>
        <mxCell id="NdsZ__3MhjiEh3BWl1wC-89" value="TBU 0" style="rounded=0;whiteSpace=wrap;html=1;" vertex="1" parent="1">
          <mxGeometry x="750" y="1814" width="190" height="106" as="geometry" />
        </mxCell>
        <mxCell id="NdsZ__3MhjiEh3BWl1wC-90" value="TBU 0" style="rounded=0;whiteSpace=wrap;html=1;" vertex="1" parent="1">
          <mxGeometry x="970" y="1814" width="190" height="106" as="geometry" />
        </mxCell>
        <mxCell id="NdsZ__3MhjiEh3BWl1wC-91" value="TBU 0" style="rounded=0;whiteSpace=wrap;html=1;" vertex="1" parent="1">
          <mxGeometry x="1235" y="1814" width="190" height="106" as="geometry" />
        </mxCell>
        <mxCell id="NdsZ__3MhjiEh3BWl1wC-92" value="TBU 0" style="rounded=0;whiteSpace=wrap;html=1;" vertex="1" parent="1">
          <mxGeometry x="1464" y="1814" width="190" height="106" as="geometry" />
        </mxCell>
        <mxCell id="NdsZ__3MhjiEh3BWl1wC-93" value="TCU0" style="rounded=0;whiteSpace=wrap;html=1;" vertex="1" parent="1">
          <mxGeometry x="1590" y="1960" width="80" height="90" as="geometry" />
        </mxCell>
        <mxCell id="NdsZ__3MhjiEh3BWl1wC-95" value="" style="shape=flexArrow;endArrow=classic;html=1;rounded=0;" edge="1" parent="1">
          <mxGeometry width="50" height="50" relative="1" as="geometry">
            <mxPoint x="804" y="1940" as="sourcePoint" />
            <mxPoint x="804" y="2300" as="targetPoint" />
          </mxGeometry>
        </mxCell>
        <mxCell id="NdsZ__3MhjiEh3BWl1wC-96" value="ACE Lite 256" style="text;html=1;align=center;verticalAlign=middle;whiteSpace=wrap;rounded=0;" vertex="1" parent="1">
          <mxGeometry x="730" y="2120" width="60" height="30" as="geometry" />
        </mxCell>
        <mxCell id="NdsZ__3MhjiEh3BWl1wC-97" value="" style="shape=flexArrow;endArrow=classic;html=1;rounded=0;" edge="1" parent="1">
          <mxGeometry width="50" height="50" relative="1" as="geometry">
            <mxPoint x="1058" y="1940" as="sourcePoint" />
            <mxPoint x="1058" y="2300" as="targetPoint" />
          </mxGeometry>
        </mxCell>
        <mxCell id="NdsZ__3MhjiEh3BWl1wC-98" value="ACE Lite 256" style="text;html=1;align=center;verticalAlign=middle;whiteSpace=wrap;rounded=0;" vertex="1" parent="1">
          <mxGeometry x="980" y="2120" width="60" height="30" as="geometry" />
        </mxCell>
        <mxCell id="NdsZ__3MhjiEh3BWl1wC-99" value="" style="shape=flexArrow;endArrow=classic;html=1;rounded=0;" edge="1" parent="1">
          <mxGeometry width="50" height="50" relative="1" as="geometry">
            <mxPoint x="1324" y="1930" as="sourcePoint" />
            <mxPoint x="1324" y="2290" as="targetPoint" />
          </mxGeometry>
        </mxCell>
        <mxCell id="NdsZ__3MhjiEh3BWl1wC-100" value="ACE Lite 256" style="text;html=1;align=center;verticalAlign=middle;whiteSpace=wrap;rounded=0;" vertex="1" parent="1">
          <mxGeometry x="1220" y="2120" width="60" height="30" as="geometry" />
        </mxCell>
        <mxCell id="NdsZ__3MhjiEh3BWl1wC-101" value="" style="shape=flexArrow;endArrow=classic;html=1;rounded=0;" edge="1" parent="1">
          <mxGeometry width="50" height="50" relative="1" as="geometry">
            <mxPoint x="1514" y="1930" as="sourcePoint" />
            <mxPoint x="1514" y="2290" as="targetPoint" />
          </mxGeometry>
        </mxCell>
        <mxCell id="NdsZ__3MhjiEh3BWl1wC-102" value="ACE Lite 256" style="text;html=1;align=center;verticalAlign=middle;whiteSpace=wrap;rounded=0;" vertex="1" parent="1">
          <mxGeometry x="1410" y="2120" width="60" height="30" as="geometry" />
        </mxCell>
        <mxCell id="NdsZ__3MhjiEh3BWl1wC-103" value="" style="shape=flexArrow;endArrow=classic;html=1;rounded=0;" edge="1" parent="1">
          <mxGeometry width="50" height="50" relative="1" as="geometry">
            <mxPoint x="1634" y="2050" as="sourcePoint" />
            <mxPoint x="1634" y="2290" as="targetPoint" />
          </mxGeometry>
        </mxCell>
        <mxCell id="NdsZ__3MhjiEh3BWl1wC-104" value="ACE Lite 256" style="text;html=1;align=center;verticalAlign=middle;whiteSpace=wrap;rounded=0;" vertex="1" parent="1">
          <mxGeometry x="1570" y="2120" width="60" height="30" as="geometry" />
        </mxCell>
        <mxCell id="NdsZ__3MhjiEh3BWl1wC-105" value="ADB400 DVM SLV" style="rounded=0;whiteSpace=wrap;html=1;fillColor=#fff2cc;strokeColor=#d6b656;" vertex="1" parent="1">
          <mxGeometry x="740" y="2300" width="120" height="60" as="geometry" />
        </mxCell>
        <mxCell id="NdsZ__3MhjiEh3BWl1wC-106" value="C0 ADB400 MST" style="rounded=0;whiteSpace=wrap;html=1;fillColor=#e1d5e7;strokeColor=#9673a6;" vertex="1" parent="1">
          <mxGeometry x="740" y="2360" width="120" height="60" as="geometry" />
        </mxCell>
        <mxCell id="NdsZ__3MhjiEh3BWl1wC-107" value="ADB400 DVM SLV" style="rounded=0;whiteSpace=wrap;html=1;fillColor=#fff2cc;strokeColor=#d6b656;" vertex="1" parent="1">
          <mxGeometry x="990" y="2300" width="120" height="60" as="geometry" />
        </mxCell>
        <mxCell id="NdsZ__3MhjiEh3BWl1wC-108" value="C1 ADB400 MST" style="rounded=0;whiteSpace=wrap;html=1;fillColor=#e1d5e7;strokeColor=#9673a6;" vertex="1" parent="1">
          <mxGeometry x="990" y="2360" width="120" height="60" as="geometry" />
        </mxCell>
        <mxCell id="NdsZ__3MhjiEh3BWl1wC-109" value="ADB400 DVM SLV" style="rounded=0;whiteSpace=wrap;html=1;fillColor=#fff2cc;strokeColor=#d6b656;" vertex="1" parent="1">
          <mxGeometry x="1270" y="2300" width="120" height="60" as="geometry" />
        </mxCell>
        <mxCell id="NdsZ__3MhjiEh3BWl1wC-110" value="SMMU ADB400 MST" style="rounded=0;whiteSpace=wrap;html=1;fillColor=#e1d5e7;strokeColor=#9673a6;" vertex="1" parent="1">
          <mxGeometry x="1270" y="2360" width="120" height="60" as="geometry" />
        </mxCell>
        <mxCell id="NdsZ__3MhjiEh3BWl1wC-111" value="ADB400 SLV" style="rounded=0;whiteSpace=wrap;html=1;" vertex="1" parent="1">
          <mxGeometry x="1450" y="2300" width="120" height="60" as="geometry" />
        </mxCell>
        <mxCell id="NdsZ__3MhjiEh3BWl1wC-112" value="ADB400 MST" style="rounded=0;whiteSpace=wrap;html=1;" vertex="1" parent="1">
          <mxGeometry x="1450" y="2360" width="120" height="60" as="geometry" />
        </mxCell>
        <mxCell id="NdsZ__3MhjiEh3BWl1wC-113" value="ADB400 SLV" style="rounded=0;whiteSpace=wrap;html=1;" vertex="1" parent="1">
          <mxGeometry x="1590" y="2300" width="120" height="60" as="geometry" />
        </mxCell>
        <mxCell id="NdsZ__3MhjiEh3BWl1wC-114" value="ADB400 DVM MST" style="rounded=0;whiteSpace=wrap;html=1;" vertex="1" parent="1">
          <mxGeometry x="1590" y="2360" width="120" height="60" as="geometry" />
        </mxCell>
        <mxCell id="NdsZ__3MhjiEh3BWl1wC-115" value="ADB400 DVM SLV" style="rounded=0;whiteSpace=wrap;html=1;fillColor=#d5e8d4;strokeColor=#82b366;" vertex="1" parent="1">
          <mxGeometry x="1800" y="2300" width="120" height="60" as="geometry" />
        </mxCell>
        <mxCell id="NdsZ__3MhjiEh3BWl1wC-116" value="Core sight ADB400 DVM MST" style="rounded=0;whiteSpace=wrap;html=1;fillColor=#e1d5e7;strokeColor=#9673a6;" vertex="1" parent="1">
          <mxGeometry x="1800" y="2360" width="120" height="60" as="geometry" />
        </mxCell>
        <mxCell id="NdsZ__3MhjiEh3BWl1wC-117" value="Data NOC" style="rounded=0;whiteSpace=wrap;html=1;fillColor=#d5e8d4;strokeColor=#82b366;" vertex="1" parent="1">
          <mxGeometry x="1800" y="2140" width="120" height="60" as="geometry" />
        </mxCell>
        <mxCell id="NdsZ__3MhjiEh3BWl1wC-118" value="" style="shape=flexArrow;endArrow=classic;html=1;rounded=0;" edge="1" parent="1">
          <mxGeometry width="50" height="50" relative="1" as="geometry">
            <mxPoint x="1859.52" y="2060" as="sourcePoint" />
            <mxPoint x="1859.52" y="2140" as="targetPoint" />
          </mxGeometry>
        </mxCell>
        <mxCell id="NdsZ__3MhjiEh3BWl1wC-119" value="AXI 64" style="text;html=1;align=center;verticalAlign=middle;whiteSpace=wrap;rounded=0;" vertex="1" parent="1">
          <mxGeometry x="1870" y="2070" width="60" height="30" as="geometry" />
        </mxCell>
        <mxCell id="NdsZ__3MhjiEh3BWl1wC-120" value="ACE Lite 256" style="text;html=1;align=center;verticalAlign=middle;whiteSpace=wrap;rounded=0;" vertex="1" parent="1">
          <mxGeometry x="1780" y="2230" width="60" height="30" as="geometry" />
        </mxCell>
        <mxCell id="NdsZ__3MhjiEh3BWl1wC-121" value="" style="shape=flexArrow;endArrow=classic;html=1;rounded=0;" edge="1" parent="1">
          <mxGeometry width="50" height="50" relative="1" as="geometry">
            <mxPoint x="1859.52" y="2205" as="sourcePoint" />
            <mxPoint x="1860" y="2285" as="targetPoint" />
          </mxGeometry>
        </mxCell>
        <mxCell id="NdsZ__3MhjiEh3BWl1wC-122" value="GPUB SS&lt;div&gt;CXT TOP&lt;/div&gt;" style="rounded=0;whiteSpace=wrap;html=1;fillColor=#d5e8d4;strokeColor=#82b366;" vertex="1" parent="1">
          <mxGeometry x="1800" y="1984" width="160" height="70" as="geometry" />
        </mxCell>
        <mxCell id="NdsZ__3MhjiEh3BWl1wC-123" value="" style="shape=flexArrow;endArrow=classic;html=1;rounded=0;" edge="1" parent="1">
          <mxGeometry width="50" height="50" relative="1" as="geometry">
            <mxPoint x="1820" y="1980" as="sourcePoint" />
            <mxPoint x="1690" y="1900" as="targetPoint" />
            <Array as="points">
              <mxPoint x="1820" y="1900" />
            </Array>
          </mxGeometry>
        </mxCell>
        <mxCell id="NdsZ__3MhjiEh3BWl1wC-124" value="AHB-Lite 32" style="text;html=1;align=center;verticalAlign=middle;whiteSpace=wrap;rounded=0;" vertex="1" parent="1">
          <mxGeometry x="1730" y="1920" width="60" height="30" as="geometry" />
        </mxCell>
        <mxCell id="NdsZ__3MhjiEh3BWl1wC-125" value="" style="shape=flexArrow;endArrow=classic;html=1;rounded=0;" edge="1" parent="1">
          <mxGeometry width="50" height="50" relative="1" as="geometry">
            <mxPoint x="1700" y="1860" as="sourcePoint" />
            <mxPoint x="1880" y="1980" as="targetPoint" />
            <Array as="points">
              <mxPoint x="1880" y="1860" />
            </Array>
          </mxGeometry>
        </mxCell>
        <mxCell id="NdsZ__3MhjiEh3BWl1wC-126" value="ATB 128" style="text;html=1;align=center;verticalAlign=middle;whiteSpace=wrap;rounded=0;" vertex="1" parent="1">
          <mxGeometry x="1720" y="1820" width="60" height="30" as="geometry" />
        </mxCell>
        <mxCell id="NdsZ__3MhjiEh3BWl1wC-127" value="" style="shape=flexArrow;endArrow=classic;html=1;rounded=0;" edge="1" parent="1">
          <mxGeometry width="50" height="50" relative="1" as="geometry">
            <mxPoint x="1920" y="1820" as="sourcePoint" />
            <mxPoint x="1920" y="1980" as="targetPoint" />
          </mxGeometry>
        </mxCell>
        <mxCell id="NdsZ__3MhjiEh3BWl1wC-128" value="Debug_APB Async" style="text;html=1;align=center;verticalAlign=middle;whiteSpace=wrap;rounded=0;" vertex="1" parent="1">
          <mxGeometry x="1890" y="1784" width="60" height="30" as="geometry" />
        </mxCell>
        <mxCell id="NdsZ__3MhjiEh3BWl1wC-129" value="RST_GEN" style="rounded=1;whiteSpace=wrap;html=1;" vertex="1" parent="1">
          <mxGeometry x="2280" y="1900" width="120" height="60" as="geometry" />
        </mxCell>
        <mxCell id="NdsZ__3MhjiEh3BWl1wC-130" value="axi_fw(6)" style="rounded=0;whiteSpace=wrap;html=1;" vertex="1" parent="1">
          <mxGeometry x="2230" y="2215" width="120" height="60" as="geometry" />
        </mxCell>
        <mxCell id="NdsZ__3MhjiEh3BWl1wC-131" value="Mem FW FUSA" style="rounded=0;whiteSpace=wrap;html=1;fillColor=#fff2cc;strokeColor=#d6b656;" vertex="1" parent="1">
          <mxGeometry x="390" y="2080" width="250" height="200" as="geometry" />
        </mxCell>
        <mxCell id="NdsZ__3MhjiEh3BWl1wC-132" value="sub_sys_Config Noc" style="rounded=0;whiteSpace=wrap;html=1;fillColor=#d5e8d4;strokeColor=#82b366;" vertex="1" parent="1">
          <mxGeometry x="2030" y="2100" width="270" height="100" as="geometry" />
        </mxCell>
        <mxCell id="NdsZ__3MhjiEh3BWl1wC-133" value="" style="whiteSpace=wrap;html=1;aspect=fixed;fillColor=#fff2cc;strokeColor=#d6b656;" vertex="1" parent="1">
          <mxGeometry x="2090" y="2100" width="40" height="40" as="geometry" />
        </mxCell>
        <mxCell id="NdsZ__3MhjiEh3BWl1wC-134" value="" style="whiteSpace=wrap;html=1;aspect=fixed;fillColor=#fff2cc;strokeColor=#d6b656;" vertex="1" parent="1">
          <mxGeometry x="2250" y="2160" width="40" height="40" as="geometry" />
        </mxCell>
        <mxCell id="NdsZ__3MhjiEh3BWl1wC-138" value="ADB400 AXI4 SLV" style="rounded=0;whiteSpace=wrap;html=1;fillColor=#dae8fc;strokeColor=#6c8ebf;" vertex="1" parent="1">
          <mxGeometry x="2100" y="2360" width="120" height="60" as="geometry" />
        </mxCell>
        <mxCell id="NdsZ__3MhjiEh3BWl1wC-139" value="ADB400 AXI4&amp;nbsp; MST" style="rounded=0;whiteSpace=wrap;html=1;fillColor=#d5e8d4;strokeColor=#82b366;" vertex="1" parent="1">
          <mxGeometry x="2100" y="2300" width="120" height="60" as="geometry" />
        </mxCell>
        <mxCell id="NdsZ__3MhjiEh3BWl1wC-140" value="" style="shape=flexArrow;endArrow=classic;html=1;rounded=0;" edge="1" parent="1">
          <mxGeometry width="50" height="50" relative="1" as="geometry">
            <mxPoint x="2159.29" y="2290" as="sourcePoint" />
            <mxPoint x="2159.29" y="2210" as="targetPoint" />
          </mxGeometry>
        </mxCell>
        <mxCell id="NdsZ__3MhjiEh3BWl1wC-141" value="AXI lite" style="text;html=1;align=center;verticalAlign=middle;whiteSpace=wrap;rounded=0;fillColor=#f8cecc;strokeColor=#b85450;" vertex="1" parent="1">
          <mxGeometry x="2170" y="2240" width="60" height="30" as="geometry" />
        </mxCell>
        <mxCell id="NdsZ__3MhjiEh3BWl1wC-143" value="APB4Decoder" style="rounded=0;whiteSpace=wrap;html=1;" vertex="1" parent="1">
          <mxGeometry x="2320" y="2090" width="120" height="60" as="geometry" />
        </mxCell>
        <mxCell id="NdsZ__3MhjiEh3BWl1wC-144" value="APB_FW(5)" style="rounded=0;whiteSpace=wrap;html=1;" vertex="1" parent="1">
          <mxGeometry x="2320" y="2030" width="120" height="60" as="geometry" />
        </mxCell>
        <mxCell id="NdsZ__3MhjiEh3BWl1wC-145" value="gpub_subsys_top" style="text;html=1;align=center;verticalAlign=middle;whiteSpace=wrap;rounded=0;" vertex="1" parent="1">
          <mxGeometry x="2480" y="2330" width="150" height="30" as="geometry" />
        </mxCell>
        <mxCell id="NdsZ__3MhjiEh3BWl1wC-146" value="gpub_subsys_top_wrap" style="text;html=1;align=center;verticalAlign=middle;whiteSpace=wrap;rounded=0;" vertex="1" parent="1">
          <mxGeometry x="2490" y="2420" width="150" height="30" as="geometry" />
        </mxCell>
        <mxCell id="NdsZ__3MhjiEh3BWl1wC-147" value="" style="rounded=0;whiteSpace=wrap;html=1;fillColor=#fff2cc;strokeColor=#d6b656;" vertex="1" parent="1">
          <mxGeometry x="2820" y="1800" width="120" height="60" as="geometry" />
        </mxCell>
        <mxCell id="NdsZ__3MhjiEh3BWl1wC-148" value="main clk: 1100MHZ" style="text;html=1;align=center;verticalAlign=middle;whiteSpace=wrap;rounded=0;" vertex="1" parent="1">
          <mxGeometry x="2820" y="1814" width="120" height="30" as="geometry" />
        </mxCell>
        <mxCell id="NdsZ__3MhjiEh3BWl1wC-149" value="" style="rounded=0;whiteSpace=wrap;html=1;fillColor=#d5e8d4;strokeColor=#82b366;" vertex="1" parent="1">
          <mxGeometry x="2820" y="1880" width="120" height="60" as="geometry" />
        </mxCell>
        <mxCell id="NdsZ__3MhjiEh3BWl1wC-150" value="main clk: 550MHZ" style="text;html=1;align=center;verticalAlign=middle;whiteSpace=wrap;rounded=0;" vertex="1" parent="1">
          <mxGeometry x="2820" y="1894" width="120" height="30" as="geometry" />
        </mxCell>
        <mxCell id="NdsZ__3MhjiEh3BWl1wC-151" value="" style="rounded=0;whiteSpace=wrap;html=1;fillColor=#e1d5e7;strokeColor=#9673a6;" vertex="1" parent="1">
          <mxGeometry x="2820" y="1960" width="120" height="60" as="geometry" />
        </mxCell>
        <mxCell id="NdsZ__3MhjiEh3BWl1wC-152" value="main clk: 1400MHZ" style="text;html=1;align=center;verticalAlign=middle;whiteSpace=wrap;rounded=0;" vertex="1" parent="1">
          <mxGeometry x="2820" y="1974" width="120" height="30" as="geometry" />
        </mxCell>
        <mxCell id="NdsZ__3MhjiEh3BWl1wC-153" value="" style="rounded=0;whiteSpace=wrap;html=1;fillColor=#dae8fc;strokeColor=#6c8ebf;" vertex="1" parent="1">
          <mxGeometry x="2820" y="2040" width="120" height="60" as="geometry" />
        </mxCell>
        <mxCell id="NdsZ__3MhjiEh3BWl1wC-154" value="main clk: 500MHZ" style="text;html=1;align=center;verticalAlign=middle;whiteSpace=wrap;rounded=0;" vertex="1" parent="1">
          <mxGeometry x="2820" y="2054" width="120" height="30" as="geometry" />
        </mxCell>
        <mxCell id="NdsZ__3MhjiEh3BWl1wC-156" value="GPU_pwr_Config Noc" style="rounded=0;whiteSpace=wrap;html=1;fillColor=#dae8fc;strokeColor=#6c8ebf;" vertex="1" parent="1">
          <mxGeometry x="2020" y="2520" width="270" height="100" as="geometry" />
        </mxCell>
        <mxCell id="NdsZ__3MhjiEh3BWl1wC-158" value="APB Decoder" style="rounded=0;whiteSpace=wrap;html=1;fillColor=#dae8fc;strokeColor=#6c8ebf;" vertex="1" parent="1">
          <mxGeometry x="2340" y="2540" width="120" height="60" as="geometry" />
        </mxCell>
        <mxCell id="NdsZ__3MhjiEh3BWl1wC-159" value="APB_FW_FUSA" style="rounded=0;whiteSpace=wrap;html=1;fillColor=#dae8fc;strokeColor=#6c8ebf;" vertex="1" parent="1">
          <mxGeometry x="2460" y="2540" width="120" height="60" as="geometry" />
        </mxCell>
        <mxCell id="NdsZ__3MhjiEh3BWl1wC-160" value="scan_tcu" style="rounded=0;whiteSpace=wrap;html=1;" vertex="1" parent="1">
          <mxGeometry x="1725" y="2520" width="120" height="60" as="geometry" />
        </mxCell>
        <mxCell id="NdsZ__3MhjiEh3BWl1wC-161" value="rst_gen" style="rounded=0;whiteSpace=wrap;html=1;" vertex="1" parent="1">
          <mxGeometry x="1865" y="2520" width="120" height="60" as="geometry" />
        </mxCell>
        <mxCell id="NdsZ__3MhjiEh3BWl1wC-164" value="gpub_subsys_top_pwr_wrap" style="text;html=1;align=center;verticalAlign=middle;whiteSpace=wrap;rounded=0;" vertex="1" parent="1">
          <mxGeometry x="2520" y="2730" width="200" height="30" as="geometry" />
        </mxCell>
        <mxCell id="Ffpic_zOEfyxwdiIMlfJ-1" value="CFG" style="rounded=0;whiteSpace=wrap;html=1;fillColor=#dae8fc;strokeColor=#6c8ebf;" vertex="1" parent="1">
          <mxGeometry x="2340" y="2630" width="290" height="70" as="geometry" />
        </mxCell>
        <mxCell id="Ffpic_zOEfyxwdiIMlfJ-2" value="security_ctrl" style="rounded=0;whiteSpace=wrap;html=1;" vertex="1" parent="1">
          <mxGeometry x="1865" y="2610" width="120" height="60" as="geometry" />
        </mxCell>
        <mxCell id="Ffpic_zOEfyxwdiIMlfJ-3" value="STCU_CPU_Wrap" style="rounded=0;whiteSpace=wrap;html=1;" vertex="1" parent="1">
          <mxGeometry x="1725" y="2610" width="120" height="60" as="geometry" />
        </mxCell>
        <mxCell id="Ffpic_zOEfyxwdiIMlfJ-4" value="PMU_Wrap" style="rounded=0;whiteSpace=wrap;html=1;" vertex="1" parent="1">
          <mxGeometry x="1560" y="2520" width="120" height="60" as="geometry" />
        </mxCell>
        <mxCell id="Ffpic_zOEfyxwdiIMlfJ-5" value="ISO_Ctrl" style="rounded=0;whiteSpace=wrap;html=1;" vertex="1" parent="1">
          <mxGeometry x="1600" y="2580" width="80" height="60" as="geometry" />
        </mxCell>
        <mxCell id="Ffpic_zOEfyxwdiIMlfJ-6" value="" style="rounded=0;whiteSpace=wrap;html=1;fillColor=none;strokeColor=#FF0000;" vertex="1" parent="1">
          <mxGeometry x="1440" y="2290" width="280" height="150" as="geometry" />
        </mxCell>
        <mxCell id="Ffpic_zOEfyxwdiIMlfJ-7" value="APB_Decoder_free" style="rounded=0;whiteSpace=wrap;html=1;" vertex="1" parent="1">
          <mxGeometry x="2080" y="2010" width="120" height="60" as="geometry" />
        </mxCell>
        <mxCell id="mp8mhxPI4MJ4zkCsr4U2-1" value="SMMU APB FW FUSA" style="rounded=0;whiteSpace=wrap;html=1;fillColor=#fff2cc;strokeColor=#d6b656;" vertex="1" parent="1">
          <mxGeometry x="390" y="1875" width="250" height="170" as="geometry" />
        </mxCell>
        <mxCell id="mp8mhxPI4MJ4zkCsr4U2-2" value="CMM TOP" style="rounded=0;whiteSpace=wrap;html=1;fillColor=#fff2cc;strokeColor=#d6b656;" vertex="1" parent="1">
          <mxGeometry x="100" y="1875" width="250" height="165" as="geometry" />
        </mxCell>
        <mxCell id="mp8mhxPI4MJ4zkCsr4U2-3" value="Int_router" style="rounded=0;whiteSpace=wrap;html=1;" vertex="1" parent="1">
          <mxGeometry x="2290" y="1609" width="120" height="60" as="geometry" />
        </mxCell>
        <mxCell id="mp8mhxPI4MJ4zkCsr4U2-4" value="L2 FCHM" style="rounded=0;whiteSpace=wrap;html=1;" vertex="1" parent="1">
          <mxGeometry x="2290" y="1694" width="120" height="60" as="geometry" />
        </mxCell>
        <mxCell id="mp8mhxPI4MJ4zkCsr4U2-5" value="REG&lt;span style=&quot;color: rgba(0, 0, 0, 0); font-family: monospace; font-size: 0px; text-align: start; text-wrap: nowrap;&quot;&gt;%3CmxGraphModel%3E%3Croot%3E%3CmxCell%20id%3D%220%22%2F%3E%3CmxCell%20id%3D%221%22%20parent%3D%220%22%2F%3E%3CmxCell%20id%3D%222%22%20value%3D%22RST_GEN%22%20style%3D%22rounded%3D1%3BwhiteSpace%3Dwrap%3Bhtml%3D1%3B%22%20vertex%3D%221%22%20parent%3D%221%22%3E%3CmxGeometry%20x%3D%222240%22%20y%3D%221650%22%20width%3D%22120%22%20height%3D%2260%22%20as%3D%22geometry%22%2F%3E%3C%2FmxCell%3E%3C%2Froot%3E%3C%2FmxGraphModel%3E&lt;/span&gt;" style="rounded=1;whiteSpace=wrap;html=1;" vertex="1" parent="1">
          <mxGeometry x="2280" y="1800" width="120" height="60" as="geometry" />
        </mxCell>
        <mxCell id="mp8mhxPI4MJ4zkCsr4U2-6" value="Scan TCU" style="rounded=1;whiteSpace=wrap;html=1;" vertex="1" parent="1">
          <mxGeometry x="2440" y="1800" width="120" height="60" as="geometry" />
        </mxCell>
        <mxCell id="mp8mhxPI4MJ4zkCsr4U2-7" value="CG top" style="rounded=1;whiteSpace=wrap;html=1;" vertex="1" parent="1">
          <mxGeometry x="2440" y="1905" width="120" height="60" as="geometry" />
        </mxCell>
        <mxCell id="mp8mhxPI4MJ4zkCsr4U2-8" value="sub sys check" style="rounded=0;whiteSpace=wrap;html=1;" vertex="1" parent="1">
          <mxGeometry x="1845" y="1540" width="120" height="60" as="geometry" />
        </mxCell>
        <mxCell id="mp8mhxPI4MJ4zkCsr4U2-9" value="sub sys sync" style="rounded=0;whiteSpace=wrap;html=1;" vertex="1" parent="1">
          <mxGeometry x="1985" y="1540" width="120" height="60" as="geometry" />
        </mxCell>
        <mxCell id="mp8mhxPI4MJ4zkCsr4U2-10" value="ACE M Port" style="rounded=0;whiteSpace=wrap;html=1;" vertex="1" parent="1">
          <mxGeometry x="780" y="1944" width="120" height="60" as="geometry" />
        </mxCell>
        <mxCell id="mp8mhxPI4MJ4zkCsr4U2-11" value="ACE M Port" style="rounded=0;whiteSpace=wrap;html=1;" vertex="1" parent="1">
          <mxGeometry x="990" y="1944" width="120" height="60" as="geometry" />
        </mxCell>
        <mxCell id="mp8mhxPI4MJ4zkCsr4U2-12" value="ACE M Port" style="rounded=0;whiteSpace=wrap;html=1;" vertex="1" parent="1">
          <mxGeometry x="1460" y="1944" width="120" height="60" as="geometry" />
        </mxCell>
        <mxCell id="mp8mhxPI4MJ4zkCsr4U2-13" value="ACE M Port" style="rounded=0;whiteSpace=wrap;html=1;" vertex="1" parent="1">
          <mxGeometry x="1280" y="1940" width="120" height="60" as="geometry" />
        </mxCell>
        <mxCell id="mp8mhxPI4MJ4zkCsr4U2-14" value="ACE S Port" style="rounded=0;whiteSpace=wrap;html=1;" vertex="1" parent="1">
          <mxGeometry x="1140" y="1884" width="120" height="60" as="geometry" />
        </mxCell>
        <mxCell id="mp8mhxPI4MJ4zkCsr4U2-15" value="ACE S Port" style="rounded=0;whiteSpace=wrap;html=1;" vertex="1" parent="1">
          <mxGeometry x="1460" y="1884" width="120" height="60" as="geometry" />
        </mxCell>
        <mxCell id="mp8mhxPI4MJ4zkCsr4U2-17" value="ACE S Port" style="rounded=0;whiteSpace=wrap;html=1;" vertex="1" parent="1">
          <mxGeometry x="1280" y="1884" width="120" height="60" as="geometry" />
        </mxCell>
        <mxCell id="mp8mhxPI4MJ4zkCsr4U2-18" value="ACE S Port" style="rounded=0;whiteSpace=wrap;html=1;" vertex="1" parent="1">
          <mxGeometry x="990" y="1884" width="120" height="60" as="geometry" />
        </mxCell>
        <mxCell id="mp8mhxPI4MJ4zkCsr4U2-19" value="ACE S Port" style="rounded=0;whiteSpace=wrap;html=1;" vertex="1" parent="1">
          <mxGeometry x="780" y="1884" width="120" height="60" as="geometry" />
        </mxCell>
        <mxCell id="mp8mhxPI4MJ4zkCsr4U2-20" value="G78AE MMU TOP" style="rounded=0;whiteSpace=wrap;html=1;" vertex="1" parent="1">
          <mxGeometry x="750" y="1770" width="910" height="60" as="geometry" />
        </mxCell>
        <mxCell id="mp8mhxPI4MJ4zkCsr4U2-24" value="ACE S Port" style="rounded=0;whiteSpace=wrap;html=1;" vertex="1" parent="1">
          <mxGeometry x="827" y="1660" width="120" height="60" as="geometry" />
        </mxCell>
        <mxCell id="mp8mhxPI4MJ4zkCsr4U2-25" value="ACE S Port" style="rounded=0;whiteSpace=wrap;html=1;" vertex="1" parent="1">
          <mxGeometry x="1050" y="1660" width="120" height="60" as="geometry" />
        </mxCell>
        <mxCell id="mp8mhxPI4MJ4zkCsr4U2-28" value="ACE M Port" style="rounded=0;whiteSpace=wrap;html=1;" vertex="1" parent="1">
          <mxGeometry x="30" y="-50" width="120" height="60" as="geometry" />
        </mxCell>
        <mxCell id="mp8mhxPI4MJ4zkCsr4U2-29" value="ACE M Port" style="rounded=0;whiteSpace=wrap;html=1;" vertex="1" parent="1">
          <mxGeometry x="950" y="-50" width="120" height="60" as="geometry" />
        </mxCell>
        <mxCell id="mp8mhxPI4MJ4zkCsr4U2-30" value="ACE M Port" style="rounded=0;whiteSpace=wrap;html=1;" vertex="1" parent="1">
          <mxGeometry x="1360" y="-50" width="120" height="60" as="geometry" />
        </mxCell>
        <mxCell id="mp8mhxPI4MJ4zkCsr4U2-32" value="" style="shape=flexArrow;endArrow=classic;html=1;rounded=0;" edge="1" parent="1">
          <mxGeometry width="50" height="50" relative="1" as="geometry">
            <mxPoint x="2460" y="2800" as="sourcePoint" />
            <mxPoint x="2460" y="2700" as="targetPoint" />
          </mxGeometry>
        </mxCell>
        <mxCell id="mp8mhxPI4MJ4zkCsr4U2-33" value="" style="rounded=0;whiteSpace=wrap;html=1;" vertex="1" parent="1">
          <mxGeometry x="3080" y="1390" width="420" height="370" as="geometry" />
        </mxCell>
        <mxCell id="mp8mhxPI4MJ4zkCsr4U2-35" value="sub_top Ctrl Unite" style="text;html=1;align=center;verticalAlign=middle;whiteSpace=wrap;rounded=0;" vertex="1" parent="1">
          <mxGeometry x="3080" y="1390" width="110" height="30" as="geometry" />
        </mxCell>
        <mxCell id="mp8mhxPI4MJ4zkCsr4U2-37" value="Config NOC master" style="rounded=1;whiteSpace=wrap;html=1;" vertex="1" parent="1">
          <mxGeometry x="3080" y="1305" width="380" height="60" as="geometry" />
        </mxCell>
        <mxCell id="mp8mhxPI4MJ4zkCsr4U2-38" value="APB Decoder" style="rounded=1;whiteSpace=wrap;html=1;" vertex="1" parent="1">
          <mxGeometry x="3210" y="1390" width="100" height="40" as="geometry" />
        </mxCell>
        <mxCell id="mp8mhxPI4MJ4zkCsr4U2-39" value="APB Firewall" style="rounded=1;whiteSpace=wrap;html=1;" vertex="1" parent="1">
          <mxGeometry x="3210" y="1430" width="100" height="40" as="geometry" />
        </mxCell>
        <mxCell id="mp8mhxPI4MJ4zkCsr4U2-40" value="" style="rounded=1;whiteSpace=wrap;html=1;" vertex="1" parent="1">
          <mxGeometry x="3090" y="1480" width="120" height="110" as="geometry" />
        </mxCell>
        <mxCell id="mp8mhxPI4MJ4zkCsr4U2-41" value="" style="rounded=1;whiteSpace=wrap;html=1;" vertex="1" parent="1">
          <mxGeometry x="3090" y="1610" width="120" height="110" as="geometry" />
        </mxCell>
        <mxCell id="mp8mhxPI4MJ4zkCsr4U2-42" value="CLK TOP" style="text;html=1;align=center;verticalAlign=middle;whiteSpace=wrap;rounded=0;" vertex="1" parent="1">
          <mxGeometry x="3120" y="1480" width="60" height="30" as="geometry" />
        </mxCell>
        <mxCell id="mp8mhxPI4MJ4zkCsr4U2-43" value="RST TOP" style="text;html=1;align=center;verticalAlign=middle;whiteSpace=wrap;rounded=0;" vertex="1" parent="1">
          <mxGeometry x="3120" y="1610" width="60" height="30" as="geometry" />
        </mxCell>
        <mxCell id="mp8mhxPI4MJ4zkCsr4U2-44" value="" style="rounded=1;whiteSpace=wrap;html=1;" vertex="1" parent="1">
          <mxGeometry x="3230" y="1480" width="110" height="200" as="geometry" />
        </mxCell>
        <mxCell id="mp8mhxPI4MJ4zkCsr4U2-45" value="PVT Wrap" style="text;html=1;align=center;verticalAlign=middle;whiteSpace=wrap;rounded=0;" vertex="1" parent="1">
          <mxGeometry x="3250" y="1490" width="60" height="30" as="geometry" />
        </mxCell>
        <mxCell id="mp8mhxPI4MJ4zkCsr4U2-46" value="PVT Ctrl" style="rounded=1;whiteSpace=wrap;html=1;" vertex="1" parent="1">
          <mxGeometry x="3242.5" y="1527.5" width="85" height="45" as="geometry" />
        </mxCell>
        <mxCell id="mp8mhxPI4MJ4zkCsr4U2-47" value="PVT Sensor" style="rounded=1;whiteSpace=wrap;html=1;" vertex="1" parent="1">
          <mxGeometry x="3242.5" y="1592.5" width="85" height="70" as="geometry" />
        </mxCell>
        <mxCell id="mp8mhxPI4MJ4zkCsr4U2-49" value="Sys_REG" style="rounded=1;whiteSpace=wrap;html=1;" vertex="1" parent="1">
          <mxGeometry x="3360" y="1480" width="120" height="60" as="geometry" />
        </mxCell>
        <mxCell id="mp8mhxPI4MJ4zkCsr4U2-50" value="Int_Router" style="rounded=1;whiteSpace=wrap;html=1;" vertex="1" parent="1">
          <mxGeometry x="3360" y="1550" width="120" height="60" as="geometry" />
        </mxCell>
        <mxCell id="mp8mhxPI4MJ4zkCsr4U2-51" value="FCHM" style="rounded=1;whiteSpace=wrap;html=1;" vertex="1" parent="1">
          <mxGeometry x="3360" y="1620" width="120" height="60" as="geometry" />
        </mxCell>
        <mxCell id="mp8mhxPI4MJ4zkCsr4U2-52" value="Scan TCU" style="rounded=1;whiteSpace=wrap;html=1;" vertex="1" parent="1">
          <mxGeometry x="3360" y="1693.5" width="120" height="60" as="geometry" />
        </mxCell>
        <mxCell id="mp8mhxPI4MJ4zkCsr4U2-53" value="CMM" style="rounded=1;whiteSpace=wrap;html=1;" vertex="1" parent="1">
          <mxGeometry x="3225" y="1694" width="115" height="56" as="geometry" />
        </mxCell>
        <mxCell id="mp8mhxPI4MJ4zkCsr4U2-54" value="IO MUX" style="rounded=1;whiteSpace=wrap;html=1;" vertex="1" parent="1">
          <mxGeometry x="3360" y="1410" width="120" height="60" as="geometry" />
        </mxCell>
        <mxCell id="mp8mhxPI4MJ4zkCsr4U2-55" value="" style="rounded=1;whiteSpace=wrap;html=1;fillColor=none;dashed=1;strokeWidth=5;strokeColor=#FF0000;" vertex="1" parent="1">
          <mxGeometry x="3350" y="1405" width="140" height="70" as="geometry" />
        </mxCell>
        <mxCell id="VCeuNn_cf61CFfxfUgyh-1" value="BUS Monitor" style="rounded=0;whiteSpace=wrap;html=1;fillColor=#f8cecc;strokeColor=#b85450;" vertex="1" parent="1">
          <mxGeometry x="510" y="2470" width="200" height="90" as="geometry" />
        </mxCell>
        <mxCell id="VCeuNn_cf61CFfxfUgyh-2" value="BUS Monitor" style="rounded=0;whiteSpace=wrap;html=1;fillColor=#f8cecc;strokeColor=#b85450;" vertex="1" parent="1">
          <mxGeometry x="940" y="2480" width="200" height="90" as="geometry" />
        </mxCell>
        <mxCell id="VCeuNn_cf61CFfxfUgyh-3" value="BUS Monitor" style="rounded=0;whiteSpace=wrap;html=1;fillColor=#f8cecc;strokeColor=#b85450;" vertex="1" parent="1">
          <mxGeometry x="1235" y="2480" width="200" height="90" as="geometry" />
        </mxCell>
        <mxCell id="VCeuNn_cf61CFfxfUgyh-4" value="BUS Monitor" style="rounded=0;whiteSpace=wrap;html=1;fillColor=#f8cecc;strokeColor=#b85450;" vertex="1" parent="1">
          <mxGeometry x="1500" y="2450" width="200" height="90" as="geometry" />
        </mxCell>
      </root>
    </mxGraphModel>
  </diagram>
  <diagram id="9m8D2SN-eWecrXRevlT_" name="G78AEV06">
    <mxGraphModel dx="2862" dy="2199" grid="1" gridSize="10" guides="1" tooltips="1" connect="1" arrows="1" fold="1" page="1" pageScale="1" pageWidth="827" pageHeight="1169" math="0" shadow="0">
      <root>
        <mxCell id="0" />
        <mxCell id="1" parent="0" />
        <mxCell id="-ulI5eI1hEqJT9333Vda-4" value="" style="rounded=0;whiteSpace=wrap;html=1;fillColor=none;" vertex="1" parent="1">
          <mxGeometry x="3070" y="-320" width="1450" height="1420" as="geometry" />
        </mxCell>
        <mxCell id="-ulI5eI1hEqJT9333Vda-2" value="" style="rounded=0;whiteSpace=wrap;html=1;fillColor=none;" vertex="1" parent="1">
          <mxGeometry x="3123" y="-290" width="1387" height="1170" as="geometry" />
        </mxCell>
        <mxCell id="KDc-LL_rGqNezxY1WfPb-1" value="" style="rounded=0;whiteSpace=wrap;html=1;fillColor=none;" vertex="1" parent="1">
          <mxGeometry x="3440" y="-250" width="950" height="810" as="geometry" />
        </mxCell>
        <mxCell id="DTJPOWpflYJNjNHP56hN-1" value="" style="rounded=0;whiteSpace=wrap;html=1;fillColor=none;perimeterSpacing=18;strokeWidth=5;strokeColor=#66B2FF;dashed=1;" vertex="1" parent="1">
          <mxGeometry x="-20" y="-190" width="2750" height="2960" as="geometry" />
        </mxCell>
        <mxCell id="DTJPOWpflYJNjNHP56hN-2" value="" style="rounded=0;whiteSpace=wrap;html=1;fillColor=none;perimeterSpacing=18;strokeWidth=5;dashed=1;dashPattern=8 8;" vertex="1" parent="1">
          <mxGeometry x="-10" y="-180" width="2660" height="2660" as="geometry" />
        </mxCell>
        <mxCell id="DTJPOWpflYJNjNHP56hN-3" value="" style="rounded=0;whiteSpace=wrap;html=1;fillColor=none;strokeColor=#FF0000;strokeWidth=4;" vertex="1" parent="1">
          <mxGeometry x="10" y="-120" width="2620" height="2480" as="geometry" />
        </mxCell>
        <mxCell id="DTJPOWpflYJNjNHP56hN-4" value="" style="rounded=0;whiteSpace=wrap;html=1;fillColor=#fff2cc;strokeColor=#d6b656;" vertex="1" parent="1">
          <mxGeometry x="40" y="10" width="1770" height="1610" as="geometry" />
        </mxCell>
        <mxCell id="DTJPOWpflYJNjNHP56hN-5" value="" style="rounded=0;whiteSpace=wrap;html=1;fillColor=#ffe6cc;strokeColor=#d79b00;" vertex="1" parent="1">
          <mxGeometry x="50" y="30" width="1660" height="1280" as="geometry" />
        </mxCell>
        <mxCell id="DTJPOWpflYJNjNHP56hN-6" value="" style="rounded=0;whiteSpace=wrap;html=1;" vertex="1" parent="1">
          <mxGeometry x="140" y="70" width="420" height="960" as="geometry" />
        </mxCell>
        <mxCell id="DTJPOWpflYJNjNHP56hN-7" value="AXI-C" style="text;html=1;align=center;verticalAlign=middle;whiteSpace=wrap;rounded=0;" vertex="1" parent="1">
          <mxGeometry x="140" y="-80" width="60" height="30" as="geometry" />
        </mxCell>
        <mxCell id="DTJPOWpflYJNjNHP56hN-8" value="" style="shape=flexArrow;endArrow=classic;html=1;rounded=0;" edge="1" parent="1">
          <mxGeometry width="50" height="50" relative="1" as="geometry">
            <mxPoint x="249.5" y="70" as="sourcePoint" />
            <mxPoint x="250" y="-30" as="targetPoint" />
          </mxGeometry>
        </mxCell>
        <mxCell id="DTJPOWpflYJNjNHP56hN-9" value="Interrupts" style="text;html=1;align=center;verticalAlign=middle;whiteSpace=wrap;rounded=0;" vertex="1" parent="1">
          <mxGeometry x="220" y="-80" width="60" height="30" as="geometry" />
        </mxCell>
        <mxCell id="DTJPOWpflYJNjNHP56hN-10" value="Partition&amp;nbsp;&lt;span style=&quot;white-space: pre;&quot;&gt;&#x9;&lt;/span&gt;manager" style="text;html=1;align=center;verticalAlign=middle;whiteSpace=wrap;rounded=0;" vertex="1" parent="1">
          <mxGeometry x="430" y="70" width="120" height="30" as="geometry" />
        </mxCell>
        <mxCell id="DTJPOWpflYJNjNHP56hN-11" value="Capabilities" style="rounded=0;whiteSpace=wrap;html=1;" vertex="1" parent="1">
          <mxGeometry x="220" y="620" width="140" height="50" as="geometry" />
        </mxCell>
        <mxCell id="DTJPOWpflYJNjNHP56hN-12" value="Slice configuration" style="rounded=0;whiteSpace=wrap;html=1;" vertex="1" parent="1">
          <mxGeometry x="220" y="690" width="140" height="50" as="geometry" />
        </mxCell>
        <mxCell id="DTJPOWpflYJNjNHP56hN-13" value="Clock and reset" style="rounded=0;whiteSpace=wrap;html=1;" vertex="1" parent="1">
          <mxGeometry x="220" y="760" width="140" height="50" as="geometry" />
        </mxCell>
        <mxCell id="DTJPOWpflYJNjNHP56hN-14" value="BIST" style="rounded=0;whiteSpace=wrap;html=1;" vertex="1" parent="1">
          <mxGeometry x="220" y="840" width="140" height="50" as="geometry" />
        </mxCell>
        <mxCell id="DTJPOWpflYJNjNHP56hN-15" value="Stream indentifiers" style="rounded=0;whiteSpace=wrap;html=1;" vertex="1" parent="1">
          <mxGeometry x="220" y="920" width="140" height="50" as="geometry" />
        </mxCell>
        <mxCell id="DTJPOWpflYJNjNHP56hN-16" value="" style="rounded=0;whiteSpace=wrap;html=1;" vertex="1" parent="1">
          <mxGeometry x="200" y="410" width="160" height="170" as="geometry" />
        </mxCell>
        <mxCell id="DTJPOWpflYJNjNHP56hN-17" value="Partition 0-3 control&lt;div&gt;and configuration A&lt;/div&gt;" style="rounded=0;whiteSpace=wrap;html=1;" vertex="1" parent="1">
          <mxGeometry x="220" y="430" width="120" height="60" as="geometry" />
        </mxCell>
        <mxCell id="DTJPOWpflYJNjNHP56hN-18" value="Partition 0-3 control&lt;div&gt;and configuration B&lt;/div&gt;" style="rounded=0;whiteSpace=wrap;html=1;" vertex="1" parent="1">
          <mxGeometry x="220" y="510" width="120" height="60" as="geometry" />
        </mxCell>
        <mxCell id="DTJPOWpflYJNjNHP56hN-19" value="" style="rounded=0;whiteSpace=wrap;html=1;" vertex="1" parent="1">
          <mxGeometry x="170" y="100" width="180" height="290" as="geometry" />
        </mxCell>
        <mxCell id="DTJPOWpflYJNjNHP56hN-20" value="System and assignment C" style="rounded=0;whiteSpace=wrap;html=1;" vertex="1" parent="1">
          <mxGeometry x="200" y="140" width="120" height="60" as="geometry" />
        </mxCell>
        <mxCell id="DTJPOWpflYJNjNHP56hN-21" value="System and assignment A" style="rounded=0;whiteSpace=wrap;html=1;" vertex="1" parent="1">
          <mxGeometry x="200" y="230" width="120" height="60" as="geometry" />
        </mxCell>
        <mxCell id="DTJPOWpflYJNjNHP56hN-22" value="System and assignment B" style="rounded=0;whiteSpace=wrap;html=1;" vertex="1" parent="1">
          <mxGeometry x="200" y="320" width="120" height="60" as="geometry" />
        </mxCell>
        <mxCell id="DTJPOWpflYJNjNHP56hN-23" value="" style="rounded=0;whiteSpace=wrap;html=1;" vertex="1" parent="1">
          <mxGeometry x="630" y="140" width="980" height="480" as="geometry" />
        </mxCell>
        <mxCell id="DTJPOWpflYJNjNHP56hN-24" value="" style="rounded=0;whiteSpace=wrap;html=1;" vertex="1" parent="1">
          <mxGeometry x="630" y="740" width="1050" height="420" as="geometry" />
        </mxCell>
        <mxCell id="DTJPOWpflYJNjNHP56hN-25" value="" style="shape=trapezoid;perimeter=trapezoidPerimeter;whiteSpace=wrap;html=1;fixedSize=1;size=40;" vertex="1" parent="1">
          <mxGeometry x="750" y="170" width="320" height="50" as="geometry" />
        </mxCell>
        <mxCell id="DTJPOWpflYJNjNHP56hN-26" value="AXI Partition AW Slice map multiplex" style="rounded=0;whiteSpace=wrap;html=1;" vertex="1" parent="1">
          <mxGeometry x="680" y="520" width="920" height="60" as="geometry" />
        </mxCell>
        <mxCell id="DTJPOWpflYJNjNHP56hN-27" value="GPU Slice" style="rounded=0;whiteSpace=wrap;html=1;" vertex="1" parent="1">
          <mxGeometry x="680" y="790" width="120" height="330" as="geometry" />
        </mxCell>
        <mxCell id="DTJPOWpflYJNjNHP56hN-28" value="GPU Slice" style="rounded=0;whiteSpace=wrap;html=1;" vertex="1" parent="1">
          <mxGeometry x="810" y="790" width="120" height="330" as="geometry" />
        </mxCell>
        <mxCell id="DTJPOWpflYJNjNHP56hN-29" value="GPU Slice" style="rounded=0;whiteSpace=wrap;html=1;" vertex="1" parent="1">
          <mxGeometry x="930" y="790" width="120" height="330" as="geometry" />
        </mxCell>
        <mxCell id="DTJPOWpflYJNjNHP56hN-30" value="GPU Slice" style="rounded=0;whiteSpace=wrap;html=1;" vertex="1" parent="1">
          <mxGeometry x="1050" y="790" width="120" height="330" as="geometry" />
        </mxCell>
        <mxCell id="DTJPOWpflYJNjNHP56hN-31" value="GPU Slice" style="rounded=0;whiteSpace=wrap;html=1;" vertex="1" parent="1">
          <mxGeometry x="1170" y="790" width="120" height="330" as="geometry" />
        </mxCell>
        <mxCell id="DTJPOWpflYJNjNHP56hN-32" value="GPU Slice" style="rounded=0;whiteSpace=wrap;html=1;" vertex="1" parent="1">
          <mxGeometry x="1290" y="790" width="120" height="330" as="geometry" />
        </mxCell>
        <mxCell id="DTJPOWpflYJNjNHP56hN-33" value="GPU Slice" style="rounded=0;whiteSpace=wrap;html=1;" vertex="1" parent="1">
          <mxGeometry x="1410" y="790" width="120" height="330" as="geometry" />
        </mxCell>
        <mxCell id="DTJPOWpflYJNjNHP56hN-34" value="GPU Slice" style="rounded=0;whiteSpace=wrap;html=1;" vertex="1" parent="1">
          <mxGeometry x="1530" y="790" width="120" height="330" as="geometry" />
        </mxCell>
        <mxCell id="DTJPOWpflYJNjNHP56hN-35" value="" style="shape=flexArrow;endArrow=classic;startArrow=classic;html=1;rounded=0;fillColor=#e1d5e7;strokeColor=#9673a6;" edge="1" parent="1">
          <mxGeometry width="100" height="100" relative="1" as="geometry">
            <mxPoint x="200" y="170" as="sourcePoint" />
            <mxPoint x="160" y="-30" as="targetPoint" />
            <Array as="points">
              <mxPoint x="160" y="170" />
            </Array>
          </mxGeometry>
        </mxCell>
        <mxCell id="DTJPOWpflYJNjNHP56hN-36" value="Parity" style="rounded=0;whiteSpace=wrap;html=1;" vertex="1" parent="1">
          <mxGeometry x="140" y="30" width="60" height="40" as="geometry" />
        </mxCell>
        <mxCell id="DTJPOWpflYJNjNHP56hN-37" value="" style="shape=flexArrow;endArrow=classic;startArrow=classic;html=1;rounded=0;" edge="1" parent="1">
          <mxGeometry width="100" height="100" relative="1" as="geometry">
            <mxPoint x="909.5" y="170" as="sourcePoint" />
            <mxPoint x="910" y="-30" as="targetPoint" />
          </mxGeometry>
        </mxCell>
        <mxCell id="DTJPOWpflYJNjNHP56hN-38" value="" style="shape=flexArrow;endArrow=classic;startArrow=classic;html=1;rounded=0;" edge="1" parent="1">
          <mxGeometry width="100" height="100" relative="1" as="geometry">
            <mxPoint x="1339.5" y="170" as="sourcePoint" />
            <mxPoint x="1340" y="-50" as="targetPoint" />
          </mxGeometry>
        </mxCell>
        <mxCell id="DTJPOWpflYJNjNHP56hN-39" value="" style="shape=trapezoid;perimeter=trapezoidPerimeter;whiteSpace=wrap;html=1;fixedSize=1;size=40;" vertex="1" parent="1">
          <mxGeometry x="1170" y="170" width="320" height="50" as="geometry" />
        </mxCell>
        <mxCell id="DTJPOWpflYJNjNHP56hN-40" value="Parity" style="rounded=0;whiteSpace=wrap;html=1;" vertex="1" parent="1">
          <mxGeometry x="880" y="100" width="60" height="40" as="geometry" />
        </mxCell>
        <mxCell id="DTJPOWpflYJNjNHP56hN-41" value="Parity" style="rounded=0;whiteSpace=wrap;html=1;" vertex="1" parent="1">
          <mxGeometry x="1310" y="100" width="60" height="40" as="geometry" />
        </mxCell>
        <mxCell id="DTJPOWpflYJNjNHP56hN-42" value="AXI-A" style="text;html=1;align=center;verticalAlign=middle;whiteSpace=wrap;rounded=0;" vertex="1" parent="1">
          <mxGeometry x="880" y="-70" width="60" height="30" as="geometry" />
        </mxCell>
        <mxCell id="DTJPOWpflYJNjNHP56hN-43" value="AXI-B" style="text;html=1;align=center;verticalAlign=middle;whiteSpace=wrap;rounded=0;" vertex="1" parent="1">
          <mxGeometry x="1310" y="-90" width="60" height="30" as="geometry" />
        </mxCell>
        <mxCell id="DTJPOWpflYJNjNHP56hN-44" value="" style="shape=flexArrow;endArrow=classic;startArrow=classic;html=1;rounded=0;" edge="1" parent="1">
          <mxGeometry width="100" height="100" relative="1" as="geometry">
            <mxPoint x="1410" y="510" as="sourcePoint" />
            <mxPoint x="1410" y="220" as="targetPoint" />
          </mxGeometry>
        </mxCell>
        <mxCell id="DTJPOWpflYJNjNHP56hN-45" value="" style="shape=flexArrow;endArrow=classic;startArrow=classic;html=1;rounded=0;" edge="1" parent="1">
          <mxGeometry width="100" height="100" relative="1" as="geometry">
            <mxPoint x="1010" y="510" as="sourcePoint" />
            <mxPoint x="1010" y="220" as="targetPoint" />
          </mxGeometry>
        </mxCell>
        <mxCell id="DTJPOWpflYJNjNHP56hN-46" value="" style="shape=flexArrow;endArrow=classic;startArrow=classic;html=1;rounded=0;" edge="1" parent="1">
          <mxGeometry width="100" height="100" relative="1" as="geometry">
            <mxPoint x="320" y="260" as="sourcePoint" />
            <mxPoint x="790" y="210" as="targetPoint" />
            <Array as="points">
              <mxPoint x="790" y="260" />
            </Array>
          </mxGeometry>
        </mxCell>
        <mxCell id="DTJPOWpflYJNjNHP56hN-47" value="" style="shape=flexArrow;endArrow=classic;startArrow=classic;html=1;rounded=0;" edge="1" parent="1">
          <mxGeometry width="100" height="100" relative="1" as="geometry">
            <mxPoint x="320" y="350" as="sourcePoint" />
            <mxPoint x="1260" y="220" as="targetPoint" />
            <Array as="points">
              <mxPoint x="1260" y="350" />
            </Array>
          </mxGeometry>
        </mxCell>
        <mxCell id="DTJPOWpflYJNjNHP56hN-48" value="" style="shape=flexArrow;endArrow=classic;startArrow=classic;html=1;rounded=0;" edge="1" parent="1">
          <mxGeometry width="100" height="100" relative="1" as="geometry">
            <mxPoint x="748.1800000000001" y="770" as="sourcePoint" />
            <mxPoint x="748.1800000000001" y="590" as="targetPoint" />
          </mxGeometry>
        </mxCell>
        <mxCell id="DTJPOWpflYJNjNHP56hN-49" value="" style="shape=flexArrow;endArrow=classic;startArrow=classic;html=1;rounded=0;" edge="1" parent="1">
          <mxGeometry width="100" height="100" relative="1" as="geometry">
            <mxPoint x="869.47" y="770" as="sourcePoint" />
            <mxPoint x="869.47" y="590" as="targetPoint" />
          </mxGeometry>
        </mxCell>
        <mxCell id="DTJPOWpflYJNjNHP56hN-50" value="" style="shape=flexArrow;endArrow=classic;startArrow=classic;html=1;rounded=0;" edge="1" parent="1">
          <mxGeometry width="100" height="100" relative="1" as="geometry">
            <mxPoint x="989.47" y="770" as="sourcePoint" />
            <mxPoint x="989.47" y="590" as="targetPoint" />
          </mxGeometry>
        </mxCell>
        <mxCell id="DTJPOWpflYJNjNHP56hN-51" value="" style="shape=flexArrow;endArrow=classic;startArrow=classic;html=1;rounded=0;" edge="1" parent="1">
          <mxGeometry width="100" height="100" relative="1" as="geometry">
            <mxPoint x="1109.47" y="770" as="sourcePoint" />
            <mxPoint x="1109.47" y="590" as="targetPoint" />
          </mxGeometry>
        </mxCell>
        <mxCell id="DTJPOWpflYJNjNHP56hN-52" value="" style="shape=flexArrow;endArrow=classic;startArrow=classic;html=1;rounded=0;" edge="1" parent="1">
          <mxGeometry width="100" height="100" relative="1" as="geometry">
            <mxPoint x="1229.47" y="770" as="sourcePoint" />
            <mxPoint x="1229.47" y="590" as="targetPoint" />
          </mxGeometry>
        </mxCell>
        <mxCell id="DTJPOWpflYJNjNHP56hN-53" value="" style="shape=flexArrow;endArrow=classic;startArrow=classic;html=1;rounded=0;" edge="1" parent="1">
          <mxGeometry width="100" height="100" relative="1" as="geometry">
            <mxPoint x="1349.47" y="770" as="sourcePoint" />
            <mxPoint x="1349.47" y="590" as="targetPoint" />
          </mxGeometry>
        </mxCell>
        <mxCell id="DTJPOWpflYJNjNHP56hN-54" value="" style="shape=flexArrow;endArrow=classic;startArrow=classic;html=1;rounded=0;" edge="1" parent="1">
          <mxGeometry width="100" height="100" relative="1" as="geometry">
            <mxPoint x="1469.47" y="770" as="sourcePoint" />
            <mxPoint x="1469.47" y="590" as="targetPoint" />
          </mxGeometry>
        </mxCell>
        <mxCell id="DTJPOWpflYJNjNHP56hN-55" value="" style="shape=flexArrow;endArrow=classic;startArrow=classic;html=1;rounded=0;" edge="1" parent="1">
          <mxGeometry width="100" height="100" relative="1" as="geometry">
            <mxPoint x="1580" y="770" as="sourcePoint" />
            <mxPoint x="1580" y="590" as="targetPoint" />
          </mxGeometry>
        </mxCell>
        <mxCell id="DTJPOWpflYJNjNHP56hN-56" value="" style="shape=flexArrow;endArrow=classic;startArrow=classic;html=1;rounded=0;fillColor=#e1d5e7;strokeColor=#9673a6;" edge="1" parent="1">
          <mxGeometry width="100" height="100" relative="1" as="geometry">
            <mxPoint x="750.0000000000001" y="1300" as="sourcePoint" />
            <mxPoint x="750.0000000000001" y="1120" as="targetPoint" />
          </mxGeometry>
        </mxCell>
        <mxCell id="DTJPOWpflYJNjNHP56hN-57" value="Parity" style="rounded=0;whiteSpace=wrap;html=1;" vertex="1" parent="1">
          <mxGeometry x="720" y="1160" width="60" height="40" as="geometry" />
        </mxCell>
        <mxCell id="DTJPOWpflYJNjNHP56hN-58" value="" style="shape=flexArrow;endArrow=classic;startArrow=classic;html=1;rounded=0;fillColor=#e1d5e7;strokeColor=#9673a6;" edge="1" parent="1">
          <mxGeometry width="100" height="100" relative="1" as="geometry">
            <mxPoint x="870.0000000000001" y="1300" as="sourcePoint" />
            <mxPoint x="870.0000000000001" y="1120" as="targetPoint" />
          </mxGeometry>
        </mxCell>
        <mxCell id="DTJPOWpflYJNjNHP56hN-59" value="Parity" style="rounded=0;whiteSpace=wrap;html=1;" vertex="1" parent="1">
          <mxGeometry x="840" y="1160" width="60" height="40" as="geometry" />
        </mxCell>
        <mxCell id="DTJPOWpflYJNjNHP56hN-60" value="" style="shape=flexArrow;endArrow=classic;startArrow=classic;html=1;rounded=0;" edge="1" parent="1">
          <mxGeometry width="100" height="100" relative="1" as="geometry">
            <mxPoint x="990.0000000000001" y="1300" as="sourcePoint" />
            <mxPoint x="990.0000000000001" y="1120" as="targetPoint" />
          </mxGeometry>
        </mxCell>
        <mxCell id="DTJPOWpflYJNjNHP56hN-61" value="Parity" style="rounded=0;whiteSpace=wrap;html=1;" vertex="1" parent="1">
          <mxGeometry x="960" y="1160" width="60" height="40" as="geometry" />
        </mxCell>
        <mxCell id="DTJPOWpflYJNjNHP56hN-62" value="" style="shape=flexArrow;endArrow=classic;startArrow=classic;html=1;rounded=0;" edge="1" parent="1">
          <mxGeometry width="100" height="100" relative="1" as="geometry">
            <mxPoint x="1110" y="1300" as="sourcePoint" />
            <mxPoint x="1110" y="1120" as="targetPoint" />
          </mxGeometry>
        </mxCell>
        <mxCell id="DTJPOWpflYJNjNHP56hN-63" value="Parity" style="rounded=0;whiteSpace=wrap;html=1;" vertex="1" parent="1">
          <mxGeometry x="1080" y="1160" width="60" height="40" as="geometry" />
        </mxCell>
        <mxCell id="DTJPOWpflYJNjNHP56hN-64" value="" style="shape=flexArrow;endArrow=classic;startArrow=classic;html=1;rounded=0;" edge="1" parent="1">
          <mxGeometry width="100" height="100" relative="1" as="geometry">
            <mxPoint x="1230" y="1300" as="sourcePoint" />
            <mxPoint x="1230" y="1120" as="targetPoint" />
          </mxGeometry>
        </mxCell>
        <mxCell id="DTJPOWpflYJNjNHP56hN-65" value="Parity" style="rounded=0;whiteSpace=wrap;html=1;" vertex="1" parent="1">
          <mxGeometry x="1200" y="1160" width="60" height="40" as="geometry" />
        </mxCell>
        <mxCell id="DTJPOWpflYJNjNHP56hN-66" value="" style="shape=flexArrow;endArrow=classic;startArrow=classic;html=1;rounded=0;" edge="1" parent="1">
          <mxGeometry width="100" height="100" relative="1" as="geometry">
            <mxPoint x="1350" y="1300" as="sourcePoint" />
            <mxPoint x="1350" y="1120" as="targetPoint" />
          </mxGeometry>
        </mxCell>
        <mxCell id="DTJPOWpflYJNjNHP56hN-67" value="Parity" style="rounded=0;whiteSpace=wrap;html=1;" vertex="1" parent="1">
          <mxGeometry x="1320" y="1160" width="60" height="40" as="geometry" />
        </mxCell>
        <mxCell id="DTJPOWpflYJNjNHP56hN-68" value="" style="shape=flexArrow;endArrow=classic;startArrow=classic;html=1;rounded=0;" edge="1" parent="1">
          <mxGeometry width="100" height="100" relative="1" as="geometry">
            <mxPoint x="1470" y="1300" as="sourcePoint" />
            <mxPoint x="1470" y="1120" as="targetPoint" />
          </mxGeometry>
        </mxCell>
        <mxCell id="DTJPOWpflYJNjNHP56hN-69" value="Parity" style="rounded=0;whiteSpace=wrap;html=1;" vertex="1" parent="1">
          <mxGeometry x="1440" y="1160" width="60" height="40" as="geometry" />
        </mxCell>
        <mxCell id="DTJPOWpflYJNjNHP56hN-70" value="" style="shape=flexArrow;endArrow=classic;startArrow=classic;html=1;rounded=0;" edge="1" parent="1">
          <mxGeometry width="100" height="100" relative="1" as="geometry">
            <mxPoint x="1600" y="1300" as="sourcePoint" />
            <mxPoint x="1600" y="1120" as="targetPoint" />
          </mxGeometry>
        </mxCell>
        <mxCell id="DTJPOWpflYJNjNHP56hN-71" value="Parity" style="rounded=0;whiteSpace=wrap;html=1;" vertex="1" parent="1">
          <mxGeometry x="1570" y="1160" width="60" height="40" as="geometry" />
        </mxCell>
        <mxCell id="DTJPOWpflYJNjNHP56hN-72" value="ACE Lite BUS" style="text;html=1;align=center;verticalAlign=middle;whiteSpace=wrap;rounded=0;" vertex="1" parent="1">
          <mxGeometry x="1060" y="1320" width="190" height="30" as="geometry" />
        </mxCell>
        <mxCell id="DTJPOWpflYJNjNHP56hN-73" value="" style="rounded=0;whiteSpace=wrap;html=1;fillColor=none;strokeColor=#FF0000;dashed=1;" vertex="1" parent="1">
          <mxGeometry x="920" y="760" width="780" height="450" as="geometry" />
        </mxCell>
        <mxCell id="DTJPOWpflYJNjNHP56hN-74" value="红框内不配置" style="text;html=1;align=center;verticalAlign=middle;whiteSpace=wrap;rounded=0;" vertex="1" parent="1">
          <mxGeometry x="1710" y="780" width="60" height="30" as="geometry" />
        </mxCell>
        <mxCell id="DTJPOWpflYJNjNHP56hN-75" value="G78AE" style="text;html=1;align=center;verticalAlign=middle;whiteSpace=wrap;rounded=0;" vertex="1" parent="1">
          <mxGeometry x="60" y="35" width="60" height="30" as="geometry" />
        </mxCell>
        <mxCell id="DTJPOWpflYJNjNHP56hN-77" value="" style="shape=flexArrow;endArrow=classic;startArrow=classic;html=1;rounded=0;" edge="1" parent="1">
          <mxGeometry width="100" height="100" relative="1" as="geometry">
            <mxPoint x="770" y="1740" as="sourcePoint" />
            <mxPoint x="770" y="1590" as="targetPoint" />
          </mxGeometry>
        </mxCell>
        <mxCell id="DTJPOWpflYJNjNHP56hN-78" value="AXI 256" style="text;html=1;align=center;verticalAlign=middle;whiteSpace=wrap;rounded=0;" vertex="1" parent="1">
          <mxGeometry x="775" y="1640" width="60" height="30" as="geometry" />
        </mxCell>
        <mxCell id="DTJPOWpflYJNjNHP56hN-79" value="" style="shape=flexArrow;endArrow=classic;startArrow=classic;html=1;rounded=0;" edge="1" parent="1">
          <mxGeometry width="100" height="100" relative="1" as="geometry">
            <mxPoint x="990" y="1740" as="sourcePoint" />
            <mxPoint x="990" y="1590" as="targetPoint" />
          </mxGeometry>
        </mxCell>
        <mxCell id="DTJPOWpflYJNjNHP56hN-80" value="AXI 256" style="text;html=1;align=center;verticalAlign=middle;whiteSpace=wrap;rounded=0;" vertex="1" parent="1">
          <mxGeometry x="1000" y="1640" width="60" height="30" as="geometry" />
        </mxCell>
        <mxCell id="DTJPOWpflYJNjNHP56hN-81" value="" style="shape=flexArrow;endArrow=classic;startArrow=classic;html=1;rounded=0;" edge="1" parent="1">
          <mxGeometry width="100" height="100" relative="1" as="geometry">
            <mxPoint x="1380" y="1740" as="sourcePoint" />
            <mxPoint x="1380" y="1590" as="targetPoint" />
          </mxGeometry>
        </mxCell>
        <mxCell id="DTJPOWpflYJNjNHP56hN-82" value="AXI 256" style="text;html=1;align=center;verticalAlign=middle;whiteSpace=wrap;rounded=0;" vertex="1" parent="1">
          <mxGeometry x="1400" y="1640" width="60" height="30" as="geometry" />
        </mxCell>
        <mxCell id="DTJPOWpflYJNjNHP56hN-83" value="" style="shape=flexArrow;endArrow=classic;startArrow=classic;html=1;rounded=0;" edge="1" parent="1">
          <mxGeometry width="100" height="100" relative="1" as="geometry">
            <mxPoint x="1570" y="1740" as="sourcePoint" />
            <mxPoint x="1570" y="1590" as="targetPoint" />
          </mxGeometry>
        </mxCell>
        <mxCell id="DTJPOWpflYJNjNHP56hN-84" value="AXI 256" style="text;html=1;align=center;verticalAlign=middle;whiteSpace=wrap;rounded=0;" vertex="1" parent="1">
          <mxGeometry x="1580" y="1640" width="60" height="30" as="geometry" />
        </mxCell>
        <mxCell id="DTJPOWpflYJNjNHP56hN-85" value="" style="rounded=0;whiteSpace=wrap;html=1;fillColor=#fff2cc;strokeColor=#d6b656;" vertex="1" parent="1">
          <mxGeometry x="650" y="1754" width="1020" height="296" as="geometry" />
        </mxCell>
        <mxCell id="DTJPOWpflYJNjNHP56hN-86" value="&lt;font style=&quot;font-size: 24px;&quot;&gt;SMMU&lt;/font&gt;" style="text;html=1;align=center;verticalAlign=middle;whiteSpace=wrap;rounded=0;" vertex="1" parent="1">
          <mxGeometry x="640" y="1754" width="140" height="60" as="geometry" />
        </mxCell>
        <mxCell id="DTJPOWpflYJNjNHP56hN-87" value="Switch&lt;div&gt;4*1&lt;/div&gt;" style="rounded=0;whiteSpace=wrap;html=1;" vertex="1" parent="1">
          <mxGeometry x="650" y="1930" width="120" height="120" as="geometry" />
        </mxCell>
        <mxCell id="DTJPOWpflYJNjNHP56hN-88" value="TBU 0" style="rounded=0;whiteSpace=wrap;html=1;" vertex="1" parent="1">
          <mxGeometry x="750" y="1814" width="190" height="106" as="geometry" />
        </mxCell>
        <mxCell id="DTJPOWpflYJNjNHP56hN-89" value="TBU 0" style="rounded=0;whiteSpace=wrap;html=1;" vertex="1" parent="1">
          <mxGeometry x="970" y="1814" width="190" height="106" as="geometry" />
        </mxCell>
        <mxCell id="DTJPOWpflYJNjNHP56hN-90" value="TBU 0" style="rounded=0;whiteSpace=wrap;html=1;" vertex="1" parent="1">
          <mxGeometry x="1235" y="1814" width="190" height="106" as="geometry" />
        </mxCell>
        <mxCell id="DTJPOWpflYJNjNHP56hN-91" value="TBU 0" style="rounded=0;whiteSpace=wrap;html=1;" vertex="1" parent="1">
          <mxGeometry x="1464" y="1814" width="190" height="106" as="geometry" />
        </mxCell>
        <mxCell id="DTJPOWpflYJNjNHP56hN-92" value="TCU0" style="rounded=0;whiteSpace=wrap;html=1;" vertex="1" parent="1">
          <mxGeometry x="1590" y="1960" width="80" height="90" as="geometry" />
        </mxCell>
        <mxCell id="DTJPOWpflYJNjNHP56hN-93" value="" style="shape=flexArrow;endArrow=classic;html=1;rounded=0;" edge="1" parent="1">
          <mxGeometry width="50" height="50" relative="1" as="geometry">
            <mxPoint x="804" y="1940" as="sourcePoint" />
            <mxPoint x="804" y="2300" as="targetPoint" />
          </mxGeometry>
        </mxCell>
        <mxCell id="DTJPOWpflYJNjNHP56hN-94" value="ACE Lite 256" style="text;html=1;align=center;verticalAlign=middle;whiteSpace=wrap;rounded=0;" vertex="1" parent="1">
          <mxGeometry x="730" y="2120" width="60" height="30" as="geometry" />
        </mxCell>
        <mxCell id="DTJPOWpflYJNjNHP56hN-95" value="" style="shape=flexArrow;endArrow=classic;html=1;rounded=0;" edge="1" parent="1">
          <mxGeometry width="50" height="50" relative="1" as="geometry">
            <mxPoint x="1058" y="1940" as="sourcePoint" />
            <mxPoint x="1058" y="2300" as="targetPoint" />
          </mxGeometry>
        </mxCell>
        <mxCell id="DTJPOWpflYJNjNHP56hN-96" value="ACE Lite 256" style="text;html=1;align=center;verticalAlign=middle;whiteSpace=wrap;rounded=0;" vertex="1" parent="1">
          <mxGeometry x="980" y="2120" width="60" height="30" as="geometry" />
        </mxCell>
        <mxCell id="DTJPOWpflYJNjNHP56hN-97" value="" style="shape=flexArrow;endArrow=classic;html=1;rounded=0;" edge="1" parent="1">
          <mxGeometry width="50" height="50" relative="1" as="geometry">
            <mxPoint x="1324" y="1930" as="sourcePoint" />
            <mxPoint x="1324" y="2290" as="targetPoint" />
          </mxGeometry>
        </mxCell>
        <mxCell id="DTJPOWpflYJNjNHP56hN-98" value="ACE Lite 256" style="text;html=1;align=center;verticalAlign=middle;whiteSpace=wrap;rounded=0;" vertex="1" parent="1">
          <mxGeometry x="1220" y="2120" width="60" height="30" as="geometry" />
        </mxCell>
        <mxCell id="DTJPOWpflYJNjNHP56hN-99" value="" style="shape=flexArrow;endArrow=classic;html=1;rounded=0;" edge="1" parent="1">
          <mxGeometry width="50" height="50" relative="1" as="geometry">
            <mxPoint x="1514" y="1930" as="sourcePoint" />
            <mxPoint x="1514" y="2290" as="targetPoint" />
          </mxGeometry>
        </mxCell>
        <mxCell id="DTJPOWpflYJNjNHP56hN-100" value="ACE Lite 256" style="text;html=1;align=center;verticalAlign=middle;whiteSpace=wrap;rounded=0;" vertex="1" parent="1">
          <mxGeometry x="1410" y="2120" width="60" height="30" as="geometry" />
        </mxCell>
        <mxCell id="DTJPOWpflYJNjNHP56hN-101" value="" style="shape=flexArrow;endArrow=classic;html=1;rounded=0;" edge="1" parent="1">
          <mxGeometry width="50" height="50" relative="1" as="geometry">
            <mxPoint x="1634" y="2050" as="sourcePoint" />
            <mxPoint x="1634" y="2290" as="targetPoint" />
          </mxGeometry>
        </mxCell>
        <mxCell id="DTJPOWpflYJNjNHP56hN-102" value="ACE Lite 256" style="text;html=1;align=center;verticalAlign=middle;whiteSpace=wrap;rounded=0;" vertex="1" parent="1">
          <mxGeometry x="1570" y="2120" width="60" height="30" as="geometry" />
        </mxCell>
        <mxCell id="DTJPOWpflYJNjNHP56hN-103" value="ADB400 DVM SLV" style="rounded=0;whiteSpace=wrap;html=1;fillColor=#fff2cc;strokeColor=#d6b656;" vertex="1" parent="1">
          <mxGeometry x="740" y="2300" width="120" height="60" as="geometry" />
        </mxCell>
        <mxCell id="DTJPOWpflYJNjNHP56hN-104" value="C0 ADB400 MST" style="rounded=0;whiteSpace=wrap;html=1;fillColor=#e1d5e7;strokeColor=#9673a6;" vertex="1" parent="1">
          <mxGeometry x="740" y="2360" width="120" height="60" as="geometry" />
        </mxCell>
        <mxCell id="DTJPOWpflYJNjNHP56hN-105" value="ADB400 DVM SLV" style="rounded=0;whiteSpace=wrap;html=1;fillColor=#fff2cc;strokeColor=#d6b656;" vertex="1" parent="1">
          <mxGeometry x="990" y="2300" width="120" height="60" as="geometry" />
        </mxCell>
        <mxCell id="DTJPOWpflYJNjNHP56hN-106" value="C1 ADB400 MST" style="rounded=0;whiteSpace=wrap;html=1;fillColor=#e1d5e7;strokeColor=#9673a6;" vertex="1" parent="1">
          <mxGeometry x="990" y="2360" width="120" height="60" as="geometry" />
        </mxCell>
        <mxCell id="DTJPOWpflYJNjNHP56hN-107" value="ADB400 DVM SLV" style="rounded=0;whiteSpace=wrap;html=1;fillColor=#fff2cc;strokeColor=#d6b656;" vertex="1" parent="1">
          <mxGeometry x="1270" y="2300" width="120" height="60" as="geometry" />
        </mxCell>
        <mxCell id="DTJPOWpflYJNjNHP56hN-108" value="SMMU ADB400 MST" style="rounded=0;whiteSpace=wrap;html=1;fillColor=#e1d5e7;strokeColor=#9673a6;" vertex="1" parent="1">
          <mxGeometry x="1270" y="2360" width="120" height="60" as="geometry" />
        </mxCell>
        <mxCell id="DTJPOWpflYJNjNHP56hN-109" value="ADB400 SLV" style="rounded=0;whiteSpace=wrap;html=1;" vertex="1" parent="1">
          <mxGeometry x="1450" y="2300" width="120" height="60" as="geometry" />
        </mxCell>
        <mxCell id="DTJPOWpflYJNjNHP56hN-110" value="ADB400 MST" style="rounded=0;whiteSpace=wrap;html=1;" vertex="1" parent="1">
          <mxGeometry x="1450" y="2360" width="120" height="60" as="geometry" />
        </mxCell>
        <mxCell id="DTJPOWpflYJNjNHP56hN-111" value="ADB400 SLV" style="rounded=0;whiteSpace=wrap;html=1;" vertex="1" parent="1">
          <mxGeometry x="1590" y="2300" width="120" height="60" as="geometry" />
        </mxCell>
        <mxCell id="DTJPOWpflYJNjNHP56hN-112" value="ADB400 DVM MST" style="rounded=0;whiteSpace=wrap;html=1;" vertex="1" parent="1">
          <mxGeometry x="1590" y="2360" width="120" height="60" as="geometry" />
        </mxCell>
        <mxCell id="DTJPOWpflYJNjNHP56hN-113" value="ADB400 DVM SLV" style="rounded=0;whiteSpace=wrap;html=1;fillColor=#d5e8d4;strokeColor=#82b366;" vertex="1" parent="1">
          <mxGeometry x="1800" y="2300" width="120" height="60" as="geometry" />
        </mxCell>
        <mxCell id="DTJPOWpflYJNjNHP56hN-114" value="Core sight ADB400 DVM MST" style="rounded=0;whiteSpace=wrap;html=1;fillColor=#e1d5e7;strokeColor=#9673a6;" vertex="1" parent="1">
          <mxGeometry x="1800" y="2360" width="120" height="60" as="geometry" />
        </mxCell>
        <mxCell id="DTJPOWpflYJNjNHP56hN-115" value="Data NOC" style="rounded=0;whiteSpace=wrap;html=1;fillColor=#d5e8d4;strokeColor=#82b366;" vertex="1" parent="1">
          <mxGeometry x="1800" y="2140" width="120" height="60" as="geometry" />
        </mxCell>
        <mxCell id="DTJPOWpflYJNjNHP56hN-116" value="" style="shape=flexArrow;endArrow=classic;html=1;rounded=0;" edge="1" parent="1">
          <mxGeometry width="50" height="50" relative="1" as="geometry">
            <mxPoint x="1859.52" y="2060" as="sourcePoint" />
            <mxPoint x="1859.52" y="2140" as="targetPoint" />
          </mxGeometry>
        </mxCell>
        <mxCell id="DTJPOWpflYJNjNHP56hN-117" value="AXI 64" style="text;html=1;align=center;verticalAlign=middle;whiteSpace=wrap;rounded=0;" vertex="1" parent="1">
          <mxGeometry x="1870" y="2070" width="60" height="30" as="geometry" />
        </mxCell>
        <mxCell id="DTJPOWpflYJNjNHP56hN-118" value="ACE Lite 256" style="text;html=1;align=center;verticalAlign=middle;whiteSpace=wrap;rounded=0;" vertex="1" parent="1">
          <mxGeometry x="1780" y="2230" width="60" height="30" as="geometry" />
        </mxCell>
        <mxCell id="DTJPOWpflYJNjNHP56hN-119" value="" style="shape=flexArrow;endArrow=classic;html=1;rounded=0;" edge="1" parent="1">
          <mxGeometry width="50" height="50" relative="1" as="geometry">
            <mxPoint x="1859.52" y="2205" as="sourcePoint" />
            <mxPoint x="1860" y="2285" as="targetPoint" />
          </mxGeometry>
        </mxCell>
        <mxCell id="DTJPOWpflYJNjNHP56hN-120" value="GPUB SS&lt;div&gt;CXT TOP&lt;/div&gt;" style="rounded=0;whiteSpace=wrap;html=1;fillColor=#d5e8d4;strokeColor=#82b366;" vertex="1" parent="1">
          <mxGeometry x="1800" y="1984" width="160" height="70" as="geometry" />
        </mxCell>
        <mxCell id="DTJPOWpflYJNjNHP56hN-121" value="" style="shape=flexArrow;endArrow=classic;html=1;rounded=0;" edge="1" parent="1">
          <mxGeometry width="50" height="50" relative="1" as="geometry">
            <mxPoint x="1820" y="1980" as="sourcePoint" />
            <mxPoint x="1690" y="1900" as="targetPoint" />
            <Array as="points">
              <mxPoint x="1820" y="1900" />
            </Array>
          </mxGeometry>
        </mxCell>
        <mxCell id="DTJPOWpflYJNjNHP56hN-122" value="AHB-Lite 32" style="text;html=1;align=center;verticalAlign=middle;whiteSpace=wrap;rounded=0;" vertex="1" parent="1">
          <mxGeometry x="1730" y="1920" width="60" height="30" as="geometry" />
        </mxCell>
        <mxCell id="DTJPOWpflYJNjNHP56hN-123" value="" style="shape=flexArrow;endArrow=classic;html=1;rounded=0;" edge="1" parent="1">
          <mxGeometry width="50" height="50" relative="1" as="geometry">
            <mxPoint x="1700" y="1860" as="sourcePoint" />
            <mxPoint x="1880" y="1980" as="targetPoint" />
            <Array as="points">
              <mxPoint x="1880" y="1860" />
            </Array>
          </mxGeometry>
        </mxCell>
        <mxCell id="DTJPOWpflYJNjNHP56hN-124" value="ATB 128" style="text;html=1;align=center;verticalAlign=middle;whiteSpace=wrap;rounded=0;" vertex="1" parent="1">
          <mxGeometry x="1720" y="1820" width="60" height="30" as="geometry" />
        </mxCell>
        <mxCell id="DTJPOWpflYJNjNHP56hN-125" value="" style="shape=flexArrow;endArrow=classic;html=1;rounded=0;" edge="1" parent="1">
          <mxGeometry width="50" height="50" relative="1" as="geometry">
            <mxPoint x="1920" y="1820" as="sourcePoint" />
            <mxPoint x="1920" y="1980" as="targetPoint" />
          </mxGeometry>
        </mxCell>
        <mxCell id="DTJPOWpflYJNjNHP56hN-126" value="Debug_APB Async" style="text;html=1;align=center;verticalAlign=middle;whiteSpace=wrap;rounded=0;" vertex="1" parent="1">
          <mxGeometry x="1890" y="1784" width="60" height="30" as="geometry" />
        </mxCell>
        <mxCell id="DTJPOWpflYJNjNHP56hN-127" value="RST_GEN" style="rounded=1;whiteSpace=wrap;html=1;" vertex="1" parent="1">
          <mxGeometry x="2280" y="1900" width="120" height="60" as="geometry" />
        </mxCell>
        <mxCell id="DTJPOWpflYJNjNHP56hN-128" value="axi_fw(6)" style="rounded=0;whiteSpace=wrap;html=1;" vertex="1" parent="1">
          <mxGeometry x="2230" y="2215" width="120" height="60" as="geometry" />
        </mxCell>
        <mxCell id="DTJPOWpflYJNjNHP56hN-129" value="Mem FW FUSA" style="rounded=0;whiteSpace=wrap;html=1;fillColor=#fff2cc;strokeColor=#d6b656;" vertex="1" parent="1">
          <mxGeometry x="390" y="2080" width="250" height="200" as="geometry" />
        </mxCell>
        <mxCell id="DTJPOWpflYJNjNHP56hN-130" value="sub_sys_Config Noc" style="rounded=0;whiteSpace=wrap;html=1;fillColor=#d5e8d4;strokeColor=#82b366;" vertex="1" parent="1">
          <mxGeometry x="2030" y="2100" width="270" height="100" as="geometry" />
        </mxCell>
        <mxCell id="DTJPOWpflYJNjNHP56hN-131" value="" style="whiteSpace=wrap;html=1;aspect=fixed;fillColor=#fff2cc;strokeColor=#d6b656;" vertex="1" parent="1">
          <mxGeometry x="2090" y="2100" width="40" height="40" as="geometry" />
        </mxCell>
        <mxCell id="DTJPOWpflYJNjNHP56hN-132" value="" style="whiteSpace=wrap;html=1;aspect=fixed;fillColor=#fff2cc;strokeColor=#d6b656;" vertex="1" parent="1">
          <mxGeometry x="2250" y="2160" width="40" height="40" as="geometry" />
        </mxCell>
        <mxCell id="DTJPOWpflYJNjNHP56hN-133" value="ADB400 AXI4 SLV" style="rounded=0;whiteSpace=wrap;html=1;fillColor=#dae8fc;strokeColor=#6c8ebf;" vertex="1" parent="1">
          <mxGeometry x="2100" y="2360" width="120" height="60" as="geometry" />
        </mxCell>
        <mxCell id="DTJPOWpflYJNjNHP56hN-134" value="ADB400 AXI4&amp;nbsp; MST" style="rounded=0;whiteSpace=wrap;html=1;fillColor=#d5e8d4;strokeColor=#82b366;" vertex="1" parent="1">
          <mxGeometry x="2100" y="2300" width="120" height="60" as="geometry" />
        </mxCell>
        <mxCell id="DTJPOWpflYJNjNHP56hN-135" value="" style="shape=flexArrow;endArrow=classic;html=1;rounded=0;" edge="1" parent="1">
          <mxGeometry width="50" height="50" relative="1" as="geometry">
            <mxPoint x="2159.29" y="2290" as="sourcePoint" />
            <mxPoint x="2159.29" y="2210" as="targetPoint" />
          </mxGeometry>
        </mxCell>
        <mxCell id="DTJPOWpflYJNjNHP56hN-136" value="AXI lite" style="text;html=1;align=center;verticalAlign=middle;whiteSpace=wrap;rounded=0;fillColor=#f8cecc;strokeColor=#b85450;" vertex="1" parent="1">
          <mxGeometry x="2170" y="2240" width="60" height="30" as="geometry" />
        </mxCell>
        <mxCell id="DTJPOWpflYJNjNHP56hN-137" value="APB4Decoder" style="rounded=0;whiteSpace=wrap;html=1;" vertex="1" parent="1">
          <mxGeometry x="2320" y="2090" width="120" height="60" as="geometry" />
        </mxCell>
        <mxCell id="DTJPOWpflYJNjNHP56hN-138" value="APB_FW(5)" style="rounded=0;whiteSpace=wrap;html=1;" vertex="1" parent="1">
          <mxGeometry x="2320" y="2030" width="120" height="60" as="geometry" />
        </mxCell>
        <mxCell id="DTJPOWpflYJNjNHP56hN-139" value="gpub_subsys_top" style="text;html=1;align=center;verticalAlign=middle;whiteSpace=wrap;rounded=0;" vertex="1" parent="1">
          <mxGeometry x="2480" y="2330" width="150" height="30" as="geometry" />
        </mxCell>
        <mxCell id="DTJPOWpflYJNjNHP56hN-140" value="gpub_subsys_top_wrap" style="text;html=1;align=center;verticalAlign=middle;whiteSpace=wrap;rounded=0;" vertex="1" parent="1">
          <mxGeometry x="2490" y="2420" width="150" height="30" as="geometry" />
        </mxCell>
        <mxCell id="DTJPOWpflYJNjNHP56hN-141" value="" style="rounded=0;whiteSpace=wrap;html=1;fillColor=#fff2cc;strokeColor=#d6b656;" vertex="1" parent="1">
          <mxGeometry x="2820" y="1800" width="120" height="60" as="geometry" />
        </mxCell>
        <mxCell id="DTJPOWpflYJNjNHP56hN-142" value="main clk: 1100MHZ" style="text;html=1;align=center;verticalAlign=middle;whiteSpace=wrap;rounded=0;" vertex="1" parent="1">
          <mxGeometry x="2820" y="1814" width="120" height="30" as="geometry" />
        </mxCell>
        <mxCell id="DTJPOWpflYJNjNHP56hN-143" value="" style="rounded=0;whiteSpace=wrap;html=1;fillColor=#d5e8d4;strokeColor=#82b366;" vertex="1" parent="1">
          <mxGeometry x="2820" y="1880" width="120" height="60" as="geometry" />
        </mxCell>
        <mxCell id="DTJPOWpflYJNjNHP56hN-144" value="main clk: 550MHZ" style="text;html=1;align=center;verticalAlign=middle;whiteSpace=wrap;rounded=0;" vertex="1" parent="1">
          <mxGeometry x="2820" y="1894" width="120" height="30" as="geometry" />
        </mxCell>
        <mxCell id="DTJPOWpflYJNjNHP56hN-145" value="" style="rounded=0;whiteSpace=wrap;html=1;fillColor=#e1d5e7;strokeColor=#9673a6;" vertex="1" parent="1">
          <mxGeometry x="2820" y="1960" width="120" height="60" as="geometry" />
        </mxCell>
        <mxCell id="DTJPOWpflYJNjNHP56hN-146" value="main clk: 1400MHZ" style="text;html=1;align=center;verticalAlign=middle;whiteSpace=wrap;rounded=0;" vertex="1" parent="1">
          <mxGeometry x="2820" y="1974" width="120" height="30" as="geometry" />
        </mxCell>
        <mxCell id="DTJPOWpflYJNjNHP56hN-147" value="" style="rounded=0;whiteSpace=wrap;html=1;fillColor=#dae8fc;strokeColor=#6c8ebf;" vertex="1" parent="1">
          <mxGeometry x="2820" y="2040" width="120" height="60" as="geometry" />
        </mxCell>
        <mxCell id="DTJPOWpflYJNjNHP56hN-148" value="main clk: 500MHZ" style="text;html=1;align=center;verticalAlign=middle;whiteSpace=wrap;rounded=0;" vertex="1" parent="1">
          <mxGeometry x="2820" y="2054" width="120" height="30" as="geometry" />
        </mxCell>
        <mxCell id="DTJPOWpflYJNjNHP56hN-149" value="GPU_pwr_Config Noc" style="rounded=0;whiteSpace=wrap;html=1;fillColor=#dae8fc;strokeColor=#6c8ebf;" vertex="1" parent="1">
          <mxGeometry x="2020" y="2520" width="270" height="100" as="geometry" />
        </mxCell>
        <mxCell id="DTJPOWpflYJNjNHP56hN-150" value="APB Decoder" style="rounded=0;whiteSpace=wrap;html=1;fillColor=#dae8fc;strokeColor=#6c8ebf;" vertex="1" parent="1">
          <mxGeometry x="2340" y="2540" width="120" height="60" as="geometry" />
        </mxCell>
        <mxCell id="DTJPOWpflYJNjNHP56hN-151" value="APB_FW_FUSA" style="rounded=0;whiteSpace=wrap;html=1;fillColor=#dae8fc;strokeColor=#6c8ebf;" vertex="1" parent="1">
          <mxGeometry x="2460" y="2540" width="120" height="60" as="geometry" />
        </mxCell>
        <mxCell id="DTJPOWpflYJNjNHP56hN-152" value="scan_tcu" style="rounded=0;whiteSpace=wrap;html=1;" vertex="1" parent="1">
          <mxGeometry x="1725" y="2520" width="120" height="60" as="geometry" />
        </mxCell>
        <mxCell id="DTJPOWpflYJNjNHP56hN-153" value="rst_gen" style="rounded=0;whiteSpace=wrap;html=1;" vertex="1" parent="1">
          <mxGeometry x="1865" y="2520" width="120" height="60" as="geometry" />
        </mxCell>
        <mxCell id="DTJPOWpflYJNjNHP56hN-154" value="gpub_subsys_top_pwr_wrap" style="text;html=1;align=center;verticalAlign=middle;whiteSpace=wrap;rounded=0;" vertex="1" parent="1">
          <mxGeometry x="2520" y="2730" width="200" height="30" as="geometry" />
        </mxCell>
        <mxCell id="DTJPOWpflYJNjNHP56hN-155" value="CFG" style="rounded=0;whiteSpace=wrap;html=1;fillColor=#dae8fc;strokeColor=#6c8ebf;" vertex="1" parent="1">
          <mxGeometry x="2340" y="2630" width="290" height="70" as="geometry" />
        </mxCell>
        <mxCell id="DTJPOWpflYJNjNHP56hN-156" value="security_ctrl" style="rounded=0;whiteSpace=wrap;html=1;" vertex="1" parent="1">
          <mxGeometry x="1865" y="2610" width="120" height="60" as="geometry" />
        </mxCell>
        <mxCell id="DTJPOWpflYJNjNHP56hN-157" value="STCU_CPU_Wrap" style="rounded=0;whiteSpace=wrap;html=1;" vertex="1" parent="1">
          <mxGeometry x="1725" y="2610" width="120" height="60" as="geometry" />
        </mxCell>
        <mxCell id="DTJPOWpflYJNjNHP56hN-158" value="PMU_Wrap" style="rounded=0;whiteSpace=wrap;html=1;" vertex="1" parent="1">
          <mxGeometry x="1560" y="2520" width="120" height="60" as="geometry" />
        </mxCell>
        <mxCell id="DTJPOWpflYJNjNHP56hN-159" value="ISO_Ctrl" style="rounded=0;whiteSpace=wrap;html=1;" vertex="1" parent="1">
          <mxGeometry x="1600" y="2580" width="80" height="60" as="geometry" />
        </mxCell>
        <mxCell id="DTJPOWpflYJNjNHP56hN-160" value="" style="rounded=0;whiteSpace=wrap;html=1;fillColor=none;strokeColor=#FF0000;" vertex="1" parent="1">
          <mxGeometry x="1440" y="2290" width="280" height="150" as="geometry" />
        </mxCell>
        <mxCell id="DTJPOWpflYJNjNHP56hN-161" value="APB_Decoder_free" style="rounded=0;whiteSpace=wrap;html=1;" vertex="1" parent="1">
          <mxGeometry x="2080" y="2010" width="120" height="60" as="geometry" />
        </mxCell>
        <mxCell id="DTJPOWpflYJNjNHP56hN-162" value="SMMU APB FW FUSA" style="rounded=0;whiteSpace=wrap;html=1;fillColor=#fff2cc;strokeColor=#d6b656;" vertex="1" parent="1">
          <mxGeometry x="390" y="1875" width="250" height="170" as="geometry" />
        </mxCell>
        <mxCell id="DTJPOWpflYJNjNHP56hN-163" value="CMM TOP" style="rounded=0;whiteSpace=wrap;html=1;fillColor=#fff2cc;strokeColor=#d6b656;" vertex="1" parent="1">
          <mxGeometry x="100" y="1875" width="250" height="165" as="geometry" />
        </mxCell>
        <mxCell id="DTJPOWpflYJNjNHP56hN-164" value="Int_router" style="rounded=0;whiteSpace=wrap;html=1;" vertex="1" parent="1">
          <mxGeometry x="2290" y="1609" width="120" height="60" as="geometry" />
        </mxCell>
        <mxCell id="DTJPOWpflYJNjNHP56hN-165" value="L2 FCHM" style="rounded=0;whiteSpace=wrap;html=1;" vertex="1" parent="1">
          <mxGeometry x="2290" y="1694" width="120" height="60" as="geometry" />
        </mxCell>
        <mxCell id="DTJPOWpflYJNjNHP56hN-166" value="REG&lt;span style=&quot;color: rgba(0, 0, 0, 0); font-family: monospace; font-size: 0px; text-align: start; text-wrap: nowrap;&quot;&gt;%3CmxGraphModel%3E%3Croot%3E%3CmxCell%20id%3D%220%22%2F%3E%3CmxCell%20id%3D%221%22%20parent%3D%220%22%2F%3E%3CmxCell%20id%3D%222%22%20value%3D%22RST_GEN%22%20style%3D%22rounded%3D1%3BwhiteSpace%3Dwrap%3Bhtml%3D1%3B%22%20vertex%3D%221%22%20parent%3D%221%22%3E%3CmxGeometry%20x%3D%222240%22%20y%3D%221650%22%20width%3D%22120%22%20height%3D%2260%22%20as%3D%22geometry%22%2F%3E%3C%2FmxCell%3E%3C%2Froot%3E%3C%2FmxGraphModel%3E&lt;/span&gt;" style="rounded=1;whiteSpace=wrap;html=1;" vertex="1" parent="1">
          <mxGeometry x="2280" y="1800" width="120" height="60" as="geometry" />
        </mxCell>
        <mxCell id="DTJPOWpflYJNjNHP56hN-167" value="Scan TCU" style="rounded=1;whiteSpace=wrap;html=1;" vertex="1" parent="1">
          <mxGeometry x="2440" y="1800" width="120" height="60" as="geometry" />
        </mxCell>
        <mxCell id="DTJPOWpflYJNjNHP56hN-168" value="CG top" style="rounded=1;whiteSpace=wrap;html=1;" vertex="1" parent="1">
          <mxGeometry x="2440" y="1905" width="120" height="60" as="geometry" />
        </mxCell>
        <mxCell id="DTJPOWpflYJNjNHP56hN-169" value="sub sys check" style="rounded=0;whiteSpace=wrap;html=1;" vertex="1" parent="1">
          <mxGeometry x="1845" y="1540" width="120" height="60" as="geometry" />
        </mxCell>
        <mxCell id="DTJPOWpflYJNjNHP56hN-170" value="sub sys sync" style="rounded=0;whiteSpace=wrap;html=1;" vertex="1" parent="1">
          <mxGeometry x="1985" y="1540" width="120" height="60" as="geometry" />
        </mxCell>
        <mxCell id="DTJPOWpflYJNjNHP56hN-171" value="ACE M Port" style="rounded=0;whiteSpace=wrap;html=1;" vertex="1" parent="1">
          <mxGeometry x="780" y="1944" width="120" height="60" as="geometry" />
        </mxCell>
        <mxCell id="DTJPOWpflYJNjNHP56hN-172" value="ACE M Port" style="rounded=0;whiteSpace=wrap;html=1;" vertex="1" parent="1">
          <mxGeometry x="990" y="1944" width="120" height="60" as="geometry" />
        </mxCell>
        <mxCell id="DTJPOWpflYJNjNHP56hN-173" value="ACE M Port" style="rounded=0;whiteSpace=wrap;html=1;" vertex="1" parent="1">
          <mxGeometry x="1460" y="1944" width="120" height="60" as="geometry" />
        </mxCell>
        <mxCell id="DTJPOWpflYJNjNHP56hN-174" value="ACE M Port" style="rounded=0;whiteSpace=wrap;html=1;" vertex="1" parent="1">
          <mxGeometry x="1280" y="1940" width="120" height="60" as="geometry" />
        </mxCell>
        <mxCell id="DTJPOWpflYJNjNHP56hN-175" value="ACE S Port" style="rounded=0;whiteSpace=wrap;html=1;" vertex="1" parent="1">
          <mxGeometry x="1140" y="1884" width="120" height="60" as="geometry" />
        </mxCell>
        <mxCell id="DTJPOWpflYJNjNHP56hN-176" value="ACE S Port" style="rounded=0;whiteSpace=wrap;html=1;" vertex="1" parent="1">
          <mxGeometry x="1460" y="1884" width="120" height="60" as="geometry" />
        </mxCell>
        <mxCell id="DTJPOWpflYJNjNHP56hN-177" value="ACE S Port" style="rounded=0;whiteSpace=wrap;html=1;" vertex="1" parent="1">
          <mxGeometry x="1280" y="1884" width="120" height="60" as="geometry" />
        </mxCell>
        <mxCell id="DTJPOWpflYJNjNHP56hN-178" value="ACE S Port" style="rounded=0;whiteSpace=wrap;html=1;" vertex="1" parent="1">
          <mxGeometry x="990" y="1884" width="120" height="60" as="geometry" />
        </mxCell>
        <mxCell id="DTJPOWpflYJNjNHP56hN-179" value="ACE S Port" style="rounded=0;whiteSpace=wrap;html=1;" vertex="1" parent="1">
          <mxGeometry x="780" y="1884" width="120" height="60" as="geometry" />
        </mxCell>
        <mxCell id="DTJPOWpflYJNjNHP56hN-180" value="G78AE MMU TOP" style="rounded=0;whiteSpace=wrap;html=1;" vertex="1" parent="1">
          <mxGeometry x="750" y="1770" width="910" height="60" as="geometry" />
        </mxCell>
        <mxCell id="DTJPOWpflYJNjNHP56hN-181" value="ACE S Port" style="rounded=0;whiteSpace=wrap;html=1;" vertex="1" parent="1">
          <mxGeometry x="827" y="1660" width="120" height="60" as="geometry" />
        </mxCell>
        <mxCell id="DTJPOWpflYJNjNHP56hN-182" value="ACE S Port" style="rounded=0;whiteSpace=wrap;html=1;" vertex="1" parent="1">
          <mxGeometry x="1050" y="1660" width="120" height="60" as="geometry" />
        </mxCell>
        <mxCell id="DTJPOWpflYJNjNHP56hN-183" value="ACE M Port" style="rounded=0;whiteSpace=wrap;html=1;" vertex="1" parent="1">
          <mxGeometry x="30" y="-50" width="120" height="60" as="geometry" />
        </mxCell>
        <mxCell id="DTJPOWpflYJNjNHP56hN-184" value="ACE M Port" style="rounded=0;whiteSpace=wrap;html=1;" vertex="1" parent="1">
          <mxGeometry x="950" y="-50" width="120" height="60" as="geometry" />
        </mxCell>
        <mxCell id="DTJPOWpflYJNjNHP56hN-185" value="ACE M Port" style="rounded=0;whiteSpace=wrap;html=1;" vertex="1" parent="1">
          <mxGeometry x="1360" y="-50" width="120" height="60" as="geometry" />
        </mxCell>
        <mxCell id="DTJPOWpflYJNjNHP56hN-186" value="" style="shape=flexArrow;endArrow=classic;html=1;rounded=0;" edge="1" parent="1">
          <mxGeometry width="50" height="50" relative="1" as="geometry">
            <mxPoint x="2460" y="2800" as="sourcePoint" />
            <mxPoint x="2460" y="2700" as="targetPoint" />
          </mxGeometry>
        </mxCell>
        <mxCell id="DTJPOWpflYJNjNHP56hN-187" value="" style="rounded=0;whiteSpace=wrap;html=1;" vertex="1" parent="1">
          <mxGeometry x="3080" y="1390" width="420" height="370" as="geometry" />
        </mxCell>
        <mxCell id="DTJPOWpflYJNjNHP56hN-188" value="sub_top Ctrl Unite" style="text;html=1;align=center;verticalAlign=middle;whiteSpace=wrap;rounded=0;" vertex="1" parent="1">
          <mxGeometry x="3080" y="1390" width="110" height="30" as="geometry" />
        </mxCell>
        <mxCell id="DTJPOWpflYJNjNHP56hN-189" value="Config NOC master" style="rounded=1;whiteSpace=wrap;html=1;" vertex="1" parent="1">
          <mxGeometry x="3080" y="1305" width="380" height="60" as="geometry" />
        </mxCell>
        <mxCell id="DTJPOWpflYJNjNHP56hN-190" value="APB Decoder" style="rounded=1;whiteSpace=wrap;html=1;" vertex="1" parent="1">
          <mxGeometry x="3210" y="1390" width="100" height="40" as="geometry" />
        </mxCell>
        <mxCell id="DTJPOWpflYJNjNHP56hN-191" value="APB Firewall" style="rounded=1;whiteSpace=wrap;html=1;" vertex="1" parent="1">
          <mxGeometry x="3210" y="1430" width="100" height="40" as="geometry" />
        </mxCell>
        <mxCell id="DTJPOWpflYJNjNHP56hN-192" value="" style="rounded=1;whiteSpace=wrap;html=1;" vertex="1" parent="1">
          <mxGeometry x="3090" y="1480" width="120" height="110" as="geometry" />
        </mxCell>
        <mxCell id="DTJPOWpflYJNjNHP56hN-193" value="" style="rounded=1;whiteSpace=wrap;html=1;" vertex="1" parent="1">
          <mxGeometry x="3090" y="1610" width="120" height="110" as="geometry" />
        </mxCell>
        <mxCell id="DTJPOWpflYJNjNHP56hN-194" value="CLK TOP" style="text;html=1;align=center;verticalAlign=middle;whiteSpace=wrap;rounded=0;" vertex="1" parent="1">
          <mxGeometry x="3120" y="1480" width="60" height="30" as="geometry" />
        </mxCell>
        <mxCell id="DTJPOWpflYJNjNHP56hN-195" value="RST TOP" style="text;html=1;align=center;verticalAlign=middle;whiteSpace=wrap;rounded=0;" vertex="1" parent="1">
          <mxGeometry x="3120" y="1610" width="60" height="30" as="geometry" />
        </mxCell>
        <mxCell id="DTJPOWpflYJNjNHP56hN-196" value="" style="rounded=1;whiteSpace=wrap;html=1;" vertex="1" parent="1">
          <mxGeometry x="3230" y="1480" width="110" height="200" as="geometry" />
        </mxCell>
        <mxCell id="DTJPOWpflYJNjNHP56hN-197" value="PVT Wrap" style="text;html=1;align=center;verticalAlign=middle;whiteSpace=wrap;rounded=0;" vertex="1" parent="1">
          <mxGeometry x="3250" y="1490" width="60" height="30" as="geometry" />
        </mxCell>
        <mxCell id="DTJPOWpflYJNjNHP56hN-198" value="PVT Ctrl" style="rounded=1;whiteSpace=wrap;html=1;" vertex="1" parent="1">
          <mxGeometry x="3242.5" y="1527.5" width="85" height="45" as="geometry" />
        </mxCell>
        <mxCell id="DTJPOWpflYJNjNHP56hN-199" value="PVT Sensor" style="rounded=1;whiteSpace=wrap;html=1;" vertex="1" parent="1">
          <mxGeometry x="3242.5" y="1592.5" width="85" height="70" as="geometry" />
        </mxCell>
        <mxCell id="DTJPOWpflYJNjNHP56hN-200" value="Sys_REG" style="rounded=1;whiteSpace=wrap;html=1;" vertex="1" parent="1">
          <mxGeometry x="3360" y="1480" width="120" height="60" as="geometry" />
        </mxCell>
        <mxCell id="DTJPOWpflYJNjNHP56hN-201" value="Int_Router" style="rounded=1;whiteSpace=wrap;html=1;" vertex="1" parent="1">
          <mxGeometry x="3360" y="1550" width="120" height="60" as="geometry" />
        </mxCell>
        <mxCell id="DTJPOWpflYJNjNHP56hN-202" value="FCHM" style="rounded=1;whiteSpace=wrap;html=1;" vertex="1" parent="1">
          <mxGeometry x="3360" y="1620" width="120" height="60" as="geometry" />
        </mxCell>
        <mxCell id="DTJPOWpflYJNjNHP56hN-203" value="Scan TCU" style="rounded=1;whiteSpace=wrap;html=1;" vertex="1" parent="1">
          <mxGeometry x="3360" y="1693.5" width="120" height="60" as="geometry" />
        </mxCell>
        <mxCell id="DTJPOWpflYJNjNHP56hN-204" value="CMM" style="rounded=1;whiteSpace=wrap;html=1;" vertex="1" parent="1">
          <mxGeometry x="3225" y="1694" width="115" height="56" as="geometry" />
        </mxCell>
        <mxCell id="DTJPOWpflYJNjNHP56hN-205" value="IO MUX" style="rounded=1;whiteSpace=wrap;html=1;" vertex="1" parent="1">
          <mxGeometry x="3360" y="1410" width="120" height="60" as="geometry" />
        </mxCell>
        <mxCell id="DTJPOWpflYJNjNHP56hN-206" value="" style="rounded=1;whiteSpace=wrap;html=1;fillColor=none;dashed=1;strokeWidth=5;strokeColor=#FF0000;" vertex="1" parent="1">
          <mxGeometry x="3350" y="1405" width="140" height="70" as="geometry" />
        </mxCell>
        <mxCell id="DTJPOWpflYJNjNHP56hN-207" value="BUS Monitor" style="rounded=0;whiteSpace=wrap;html=1;fillColor=#f8cecc;strokeColor=#b85450;" vertex="1" parent="1">
          <mxGeometry x="510" y="2470" width="200" height="90" as="geometry" />
        </mxCell>
        <mxCell id="DTJPOWpflYJNjNHP56hN-208" value="BUS Monitor" style="rounded=0;whiteSpace=wrap;html=1;fillColor=#f8cecc;strokeColor=#b85450;" vertex="1" parent="1">
          <mxGeometry x="940" y="2480" width="200" height="90" as="geometry" />
        </mxCell>
        <mxCell id="DTJPOWpflYJNjNHP56hN-209" value="BUS Monitor" style="rounded=0;whiteSpace=wrap;html=1;fillColor=#f8cecc;strokeColor=#b85450;" vertex="1" parent="1">
          <mxGeometry x="1235" y="2480" width="200" height="90" as="geometry" />
        </mxCell>
        <mxCell id="DTJPOWpflYJNjNHP56hN-210" value="BUS Monitor" style="rounded=0;whiteSpace=wrap;html=1;fillColor=#f8cecc;strokeColor=#b85450;" vertex="1" parent="1">
          <mxGeometry x="1500" y="2450" width="200" height="90" as="geometry" />
        </mxCell>
        <mxCell id="DTJPOWpflYJNjNHP56hN-211" value="" style="rounded=0;whiteSpace=wrap;html=1;fillColor=none;strokeColor=#FF0000;" vertex="1" parent="1">
          <mxGeometry x="1740" y="1770" width="280" height="656" as="geometry" />
        </mxCell>
        <mxCell id="DTJPOWpflYJNjNHP56hN-212" value="" style="rounded=0;whiteSpace=wrap;html=1;" vertex="1" parent="1">
          <mxGeometry x="3520" y="-110" width="360" height="280" as="geometry" />
        </mxCell>
        <mxCell id="DTJPOWpflYJNjNHP56hN-213" value="G78AE ARM TOP&amp;nbsp;" style="text;html=1;align=center;verticalAlign=middle;whiteSpace=wrap;rounded=0;" vertex="1" parent="1">
          <mxGeometry x="3540" y="-90" width="60" height="30" as="geometry" />
        </mxCell>
        <mxCell id="DTJPOWpflYJNjNHP56hN-214" value="" style="shape=flexArrow;endArrow=classic;html=1;rounded=0;" edge="1" parent="1">
          <mxGeometry width="50" height="50" relative="1" as="geometry">
            <mxPoint x="3440" y="90" as="sourcePoint" />
            <mxPoint x="3500" y="90" as="targetPoint" />
          </mxGeometry>
        </mxCell>
        <mxCell id="DTJPOWpflYJNjNHP56hN-215" value="CLK" style="text;html=1;align=center;verticalAlign=middle;whiteSpace=wrap;rounded=0;" vertex="1" parent="1">
          <mxGeometry x="3350" y="70" width="60" height="30" as="geometry" />
        </mxCell>
        <mxCell id="DTJPOWpflYJNjNHP56hN-216" value="" style="shape=flexArrow;endArrow=classic;startArrow=classic;html=1;rounded=0;fillColor=#e1d5e7;strokeColor=#9673a6;" edge="1" parent="1">
          <mxGeometry width="100" height="100" relative="1" as="geometry">
            <mxPoint x="3500" y="40" as="sourcePoint" />
            <mxPoint x="3400" y="40" as="targetPoint" />
          </mxGeometry>
        </mxCell>
        <mxCell id="DTJPOWpflYJNjNHP56hN-217" value="DFT" style="text;html=1;align=center;verticalAlign=middle;whiteSpace=wrap;rounded=0;" vertex="1" parent="1">
          <mxGeometry x="3350" y="20" width="60" height="30" as="geometry" />
        </mxCell>
        <mxCell id="DTJPOWpflYJNjNHP56hN-219" value="IRQ" style="text;html=1;align=center;verticalAlign=middle;whiteSpace=wrap;rounded=0;" vertex="1" parent="1">
          <mxGeometry x="3350" y="-30" width="60" height="30" as="geometry" />
        </mxCell>
        <mxCell id="DTJPOWpflYJNjNHP56hN-220" value="" style="shape=flexArrow;endArrow=classic;startArrow=classic;html=1;rounded=0;" edge="1" parent="1">
          <mxGeometry width="100" height="100" relative="1" as="geometry">
            <mxPoint x="3630" y="-120" as="sourcePoint" />
            <mxPoint x="3630" y="-190" as="targetPoint" />
          </mxGeometry>
        </mxCell>
        <mxCell id="DTJPOWpflYJNjNHP56hN-221" value="AXI-A" style="text;html=1;align=center;verticalAlign=middle;whiteSpace=wrap;rounded=0;" vertex="1" parent="1">
          <mxGeometry x="3600" y="-220" width="60" height="30" as="geometry" />
        </mxCell>
        <mxCell id="DTJPOWpflYJNjNHP56hN-222" value="" style="shape=flexArrow;endArrow=classic;startArrow=classic;html=1;rounded=0;" edge="1" parent="1">
          <mxGeometry width="100" height="100" relative="1" as="geometry">
            <mxPoint x="3700" y="-120" as="sourcePoint" />
            <mxPoint x="3700" y="-190" as="targetPoint" />
          </mxGeometry>
        </mxCell>
        <mxCell id="DTJPOWpflYJNjNHP56hN-223" value="AXI-B" style="text;html=1;align=center;verticalAlign=middle;whiteSpace=wrap;rounded=0;" vertex="1" parent="1">
          <mxGeometry x="3670" y="-220" width="60" height="30" as="geometry" />
        </mxCell>
        <mxCell id="DTJPOWpflYJNjNHP56hN-224" value="" style="shape=flexArrow;endArrow=classic;startArrow=classic;html=1;rounded=0;" edge="1" parent="1">
          <mxGeometry width="100" height="100" relative="1" as="geometry">
            <mxPoint x="3770" y="-120" as="sourcePoint" />
            <mxPoint x="3770" y="-190" as="targetPoint" />
          </mxGeometry>
        </mxCell>
        <mxCell id="DTJPOWpflYJNjNHP56hN-225" value="AXI-C" style="text;html=1;align=center;verticalAlign=middle;whiteSpace=wrap;rounded=0;" vertex="1" parent="1">
          <mxGeometry x="3740" y="-220" width="60" height="30" as="geometry" />
        </mxCell>
        <mxCell id="DTJPOWpflYJNjNHP56hN-226" value="" style="shape=flexArrow;endArrow=classic;startArrow=classic;html=1;rounded=0;" edge="1" parent="1">
          <mxGeometry width="100" height="100" relative="1" as="geometry">
            <mxPoint x="3640" y="250" as="sourcePoint" />
            <mxPoint x="3640" y="180" as="targetPoint" />
          </mxGeometry>
        </mxCell>
        <mxCell id="DTJPOWpflYJNjNHP56hN-227" value="AXI-M0" style="text;html=1;align=center;verticalAlign=middle;whiteSpace=wrap;rounded=0;" vertex="1" parent="1">
          <mxGeometry x="3570" y="200" width="60" height="30" as="geometry" />
        </mxCell>
        <mxCell id="DTJPOWpflYJNjNHP56hN-228" value="" style="shape=flexArrow;endArrow=classic;startArrow=classic;html=1;rounded=0;" edge="1" parent="1">
          <mxGeometry width="100" height="100" relative="1" as="geometry">
            <mxPoint x="3780" y="250" as="sourcePoint" />
            <mxPoint x="3780" y="180" as="targetPoint" />
          </mxGeometry>
        </mxCell>
        <mxCell id="DTJPOWpflYJNjNHP56hN-229" value="AXI-M1" style="text;html=1;align=center;verticalAlign=middle;whiteSpace=wrap;rounded=0;" vertex="1" parent="1">
          <mxGeometry x="3710" y="200" width="60" height="30" as="geometry" />
        </mxCell>
        <mxCell id="DTJPOWpflYJNjNHP56hN-230" value="" style="shape=flexArrow;endArrow=classic;startArrow=classic;html=1;rounded=0;" edge="1" parent="1">
          <mxGeometry width="100" height="100" relative="1" as="geometry">
            <mxPoint x="3500" y="-10" as="sourcePoint" />
            <mxPoint x="3400" y="-10" as="targetPoint" />
          </mxGeometry>
        </mxCell>
        <mxCell id="gQZNKRHz0A9vkqGAHyAf-1" value="SMMU" style="rounded=0;whiteSpace=wrap;html=1;fillColor=#f8cecc;strokeColor=#b85450;" vertex="1" parent="1">
          <mxGeometry x="3530" y="270" width="360" height="160" as="geometry" />
        </mxCell>
        <mxCell id="XnoVjJNY0kpYWiv5AjHF-1" value="SUB_SYS_CFG_NOC" style="rounded=0;whiteSpace=wrap;html=1;" vertex="1" parent="1">
          <mxGeometry x="4070" y="270" width="200" height="60" as="geometry" />
        </mxCell>
        <mxCell id="-MPv8p-0huDlFYDs4y4V-2" value="APB Decoder" style="rounded=0;whiteSpace=wrap;html=1;" vertex="1" parent="1">
          <mxGeometry x="4070" y="200" width="120" height="60" as="geometry" />
        </mxCell>
        <mxCell id="aGgY2Z3Jcrw8jQ8NF3XK-1" value="CXT600" style="rounded=0;whiteSpace=wrap;html=1;fillColor=#f8cecc;strokeColor=#b85450;" vertex="1" parent="1">
          <mxGeometry x="3920" y="270" width="120" height="60" as="geometry" />
        </mxCell>
        <mxCell id="aGgY2Z3Jcrw8jQ8NF3XK-2" value="sub_NOC" style="rounded=0;whiteSpace=wrap;html=1;" vertex="1" parent="1">
          <mxGeometry x="3925" y="380" width="110" height="40" as="geometry" />
        </mxCell>
        <mxCell id="aGgY2Z3Jcrw8jQ8NF3XK-3" value="" style="shape=flexArrow;endArrow=classic;html=1;rounded=0;" edge="1" parent="1">
          <mxGeometry width="50" height="50" relative="1" as="geometry">
            <mxPoint x="3979.55" y="340" as="sourcePoint" />
            <mxPoint x="3979.55" y="380" as="targetPoint" />
          </mxGeometry>
        </mxCell>
        <mxCell id="aGgY2Z3Jcrw8jQ8NF3XK-4" value="AXI 64" style="text;html=1;align=center;verticalAlign=middle;whiteSpace=wrap;rounded=0;" vertex="1" parent="1">
          <mxGeometry x="3990" y="340" width="60" height="30" as="geometry" />
        </mxCell>
        <mxCell id="Y1n-uv5Yet3PtkW-4x0U-1" value="" style="shape=flexArrow;endArrow=classic;html=1;rounded=0;" edge="1" parent="1">
          <mxGeometry width="50" height="50" relative="1" as="geometry">
            <mxPoint x="3979.55" y="420" as="sourcePoint" />
            <mxPoint x="3979.55" y="470" as="targetPoint" />
          </mxGeometry>
        </mxCell>
        <mxCell id="Y1n-uv5Yet3PtkW-4x0U-2" value="ACE Lite 256" style="text;html=1;align=center;verticalAlign=middle;whiteSpace=wrap;rounded=0;" vertex="1" parent="1">
          <mxGeometry x="3910" y="430" width="60" height="30" as="geometry" />
        </mxCell>
        <mxCell id="VdUHRLuNFLp6B598bMZI-1" value="85P tie0" style="text;html=1;align=center;verticalAlign=middle;whiteSpace=wrap;rounded=0;" vertex="1" parent="1">
          <mxGeometry x="3300" y="-35" width="60" height="30" as="geometry" />
        </mxCell>
        <mxCell id="VdUHRLuNFLp6B598bMZI-2" value="85P tie0" style="text;html=1;align=center;verticalAlign=middle;whiteSpace=wrap;rounded=0;" vertex="1" parent="1">
          <mxGeometry x="3300" y="10" width="60" height="30" as="geometry" />
        </mxCell>
        <mxCell id="VdUHRLuNFLp6B598bMZI-3" value="ADB400" style="rounded=1;whiteSpace=wrap;html=1;" vertex="1" parent="1">
          <mxGeometry x="3580" y="-270" width="80" height="50" as="geometry" />
        </mxCell>
        <mxCell id="VdUHRLuNFLp6B598bMZI-4" value="ADB400" style="rounded=1;whiteSpace=wrap;html=1;" vertex="1" parent="1">
          <mxGeometry x="3670" y="-270" width="80" height="50" as="geometry" />
        </mxCell>
        <mxCell id="VdUHRLuNFLp6B598bMZI-5" value="ADB400" style="rounded=1;whiteSpace=wrap;html=1;" vertex="1" parent="1">
          <mxGeometry x="3760" y="-270" width="80" height="50" as="geometry" />
        </mxCell>
        <mxCell id="KDc-LL_rGqNezxY1WfPb-2" value="CFG NOC" style="rounded=0;whiteSpace=wrap;html=1;" vertex="1" parent="1">
          <mxGeometry x="4170" y="1169" width="120" height="60" as="geometry" />
        </mxCell>
        <mxCell id="KDc-LL_rGqNezxY1WfPb-3" value="SYS data&amp;nbsp; NOC" style="rounded=0;whiteSpace=wrap;html=1;" vertex="1" parent="1">
          <mxGeometry x="3340" y="1169" width="651.5" height="60" as="geometry" />
        </mxCell>
        <mxCell id="MDdNztx9YHp7EcLnivy3-1" value="ADB400&lt;div&gt;AXI 4 SLV&lt;/div&gt;" style="rounded=0;whiteSpace=wrap;html=1;" vertex="1" parent="1">
          <mxGeometry x="4130" y="560" width="120" height="60" as="geometry" />
        </mxCell>
        <mxCell id="oePWhvZov8mpLWGC2SPu-1" value="ADB400&lt;div&gt;DVM MST 256&lt;/div&gt;" style="rounded=0;whiteSpace=wrap;html=1;" vertex="1" parent="1">
          <mxGeometry x="3930" y="560" width="120" height="60" as="geometry" />
        </mxCell>
        <mxCell id="xAL2tXxJ8jGucy79Cdmf-1" value="ADB400&lt;div&gt;AXI 4 MST&lt;/div&gt;" style="rounded=0;whiteSpace=wrap;html=1;" vertex="1" parent="1">
          <mxGeometry x="4130" y="500" width="120" height="60" as="geometry" />
        </mxCell>
        <mxCell id="xAL2tXxJ8jGucy79Cdmf-2" value="ADB400&lt;div&gt;DVM SLV 256&lt;/div&gt;" style="rounded=0;whiteSpace=wrap;html=1;" vertex="1" parent="1">
          <mxGeometry x="3930" y="500" width="120" height="60" as="geometry" />
        </mxCell>
        <mxCell id="nH39zQFyLQXC1KGU1glM-1" value="DFT Module" style="rounded=0;whiteSpace=wrap;html=1;" vertex="1" parent="1">
          <mxGeometry x="3730" y="650" width="120" height="60" as="geometry" />
        </mxCell>
        <mxCell id="nH39zQFyLQXC1KGU1glM-2" value="Power Module" style="rounded=0;whiteSpace=wrap;html=1;" vertex="1" parent="1">
          <mxGeometry x="3730" y="750" width="120" height="60" as="geometry" />
        </mxCell>
        <mxCell id="-ulI5eI1hEqJT9333Vda-1" value="gpub_subsys_top" style="text;html=1;align=center;verticalAlign=middle;whiteSpace=wrap;rounded=0;" vertex="1" parent="1">
          <mxGeometry x="4260" y="520" width="120" height="30" as="geometry" />
        </mxCell>
        <mxCell id="-ulI5eI1hEqJT9333Vda-3" value="gpub_subsys_top_wrap" style="text;html=1;align=center;verticalAlign=middle;whiteSpace=wrap;rounded=0;" vertex="1" parent="1">
          <mxGeometry x="4350" y="820" width="150" height="30" as="geometry" />
        </mxCell>
        <mxCell id="-ulI5eI1hEqJT9333Vda-5" value="gpub_subsys_top_pwr_wrap" style="text;html=1;align=center;verticalAlign=middle;whiteSpace=wrap;rounded=0;" vertex="1" parent="1">
          <mxGeometry x="4350" y="1070" width="170" height="30" as="geometry" />
        </mxCell>
        <mxCell id="inMBAEC0fZ6yuW2oFUd9-1" value="GPU B PWR CFG NOC" style="rounded=0;whiteSpace=wrap;html=1;" vertex="1" parent="1">
          <mxGeometry x="4120" y="989" width="220" height="60" as="geometry" />
        </mxCell>
        <mxCell id="inMBAEC0fZ6yuW2oFUd9-2" value="" style="shape=flexArrow;endArrow=classic;startArrow=classic;html=1;rounded=0;" edge="1" parent="1">
          <mxGeometry width="100" height="100" relative="1" as="geometry">
            <mxPoint x="4228.75" y="1169" as="sourcePoint" />
            <mxPoint x="4228.75" y="1049" as="targetPoint" />
          </mxGeometry>
        </mxCell>
        <mxCell id="inMBAEC0fZ6yuW2oFUd9-3" value="AXI 4 32" style="text;html=1;align=center;verticalAlign=middle;whiteSpace=wrap;rounded=0;" vertex="1" parent="1">
          <mxGeometry x="4240" y="1105" width="60" height="30" as="geometry" />
        </mxCell>
        <mxCell id="inMBAEC0fZ6yuW2oFUd9-4" value="GPU B sub sys CFG NOC" style="rounded=0;whiteSpace=wrap;html=1;" vertex="1" parent="1">
          <mxGeometry x="4070" y="740" width="220" height="60" as="geometry" />
        </mxCell>
        <mxCell id="inMBAEC0fZ6yuW2oFUd9-5" value="ADB400&lt;div&gt;AXI 4 SLV&lt;/div&gt;" style="rounded=0;whiteSpace=wrap;html=1;" vertex="1" parent="1">
          <mxGeometry x="4190" y="880" width="120" height="60" as="geometry" />
        </mxCell>
        <mxCell id="inMBAEC0fZ6yuW2oFUd9-6" value="ADB400&lt;div&gt;AXI 4 MST&lt;/div&gt;" style="rounded=0;whiteSpace=wrap;html=1;" vertex="1" parent="1">
          <mxGeometry x="4190" y="820" width="120" height="60" as="geometry" />
        </mxCell>
        <mxCell id="inMBAEC0fZ6yuW2oFUd9-7" value="APB Decoder" style="rounded=0;whiteSpace=wrap;html=1;" vertex="1" parent="1">
          <mxGeometry x="3970" y="989" width="120" height="60" as="geometry" />
        </mxCell>
        <mxCell id="inMBAEC0fZ6yuW2oFUd9-8" value="" style="shape=flexArrow;endArrow=classic;startArrow=classic;html=1;rounded=0;" edge="1" parent="1">
          <mxGeometry width="100" height="100" relative="1" as="geometry">
            <mxPoint x="3840" y="1169" as="sourcePoint" />
            <mxPoint x="3840.18" y="1039" as="targetPoint" />
          </mxGeometry>
        </mxCell>
        <mxCell id="inMBAEC0fZ6yuW2oFUd9-9" value="" style="shape=flexArrow;endArrow=classic;startArrow=classic;html=1;rounded=0;" edge="1" parent="1">
          <mxGeometry width="100" height="100" relative="1" as="geometry">
            <mxPoint x="3739.41" y="1169" as="sourcePoint" />
            <mxPoint x="3739.5899999999997" y="1039" as="targetPoint" />
          </mxGeometry>
        </mxCell>
        <mxCell id="inMBAEC0fZ6yuW2oFUd9-10" value="" style="shape=flexArrow;endArrow=classic;startArrow=classic;html=1;rounded=0;" edge="1" parent="1">
          <mxGeometry width="100" height="100" relative="1" as="geometry">
            <mxPoint x="3650" y="1169" as="sourcePoint" />
            <mxPoint x="3650.18" y="1039" as="targetPoint" />
          </mxGeometry>
        </mxCell>
        <mxCell id="inMBAEC0fZ6yuW2oFUd9-11" value="" style="shape=flexArrow;endArrow=classic;startArrow=classic;html=1;rounded=0;" edge="1" parent="1">
          <mxGeometry width="100" height="100" relative="1" as="geometry">
            <mxPoint x="3568.82" y="1169" as="sourcePoint" />
            <mxPoint x="3569" y="1039" as="targetPoint" />
          </mxGeometry>
        </mxCell>
        <mxCell id="inMBAEC0fZ6yuW2oFUd9-12" value="" style="shape=flexArrow;endArrow=classic;startArrow=classic;html=1;rounded=0;" edge="1" parent="1">
          <mxGeometry width="100" height="100" relative="1" as="geometry">
            <mxPoint x="3490" y="1169" as="sourcePoint" />
            <mxPoint x="3490.18" y="1039" as="targetPoint" />
          </mxGeometry>
        </mxCell>
        <mxCell id="inMBAEC0fZ6yuW2oFUd9-13" value="" style="shape=flexArrow;endArrow=classic;startArrow=classic;html=1;rounded=0;" edge="1" parent="1">
          <mxGeometry width="100" height="100" relative="1" as="geometry">
            <mxPoint x="3410" y="1169" as="sourcePoint" />
            <mxPoint x="3410.18" y="1039" as="targetPoint" />
          </mxGeometry>
        </mxCell>
        <mxCell id="inMBAEC0fZ6yuW2oFUd9-14" value="&lt;div&gt;ACE Lite DVM&lt;/div&gt;M0" style="text;html=1;align=center;verticalAlign=middle;whiteSpace=wrap;rounded=0;" vertex="1" parent="1">
          <mxGeometry x="3330" y="1110" width="70" height="30" as="geometry" />
        </mxCell>
        <mxCell id="inMBAEC0fZ6yuW2oFUd9-15" value="M1" style="text;html=1;align=center;verticalAlign=middle;whiteSpace=wrap;rounded=0;" vertex="1" parent="1">
          <mxGeometry x="3430" y="1110" width="60" height="30" as="geometry" />
        </mxCell>
        <mxCell id="inMBAEC0fZ6yuW2oFUd9-16" value="M2" style="text;html=1;align=center;verticalAlign=middle;whiteSpace=wrap;rounded=0;" vertex="1" parent="1">
          <mxGeometry x="3510" y="1110" width="60" height="30" as="geometry" />
        </mxCell>
        <mxCell id="inMBAEC0fZ6yuW2oFUd9-17" value="" style="rounded=0;whiteSpace=wrap;html=1;fillColor=none;strokeColor=#FF0000;" vertex="1" parent="1">
          <mxGeometry x="3610" y="1040" width="270" height="150" as="geometry" />
        </mxCell>
        <mxCell id="inMBAEC0fZ6yuW2oFUd9-18" value="" style="shape=flexArrow;endArrow=classic;startArrow=classic;html=1;rounded=0;" edge="1" parent="1">
          <mxGeometry width="100" height="100" relative="1" as="geometry">
            <mxPoint x="3260" y="1160" as="sourcePoint" />
            <mxPoint x="3260" y="1050" as="targetPoint" />
          </mxGeometry>
        </mxCell>
        <mxCell id="inMBAEC0fZ6yuW2oFUd9-21" value="Ultra SOC" style="text;html=1;align=center;verticalAlign=middle;whiteSpace=wrap;rounded=0;" vertex="1" parent="1">
          <mxGeometry x="3210" y="1170" width="90" height="30" as="geometry" />
        </mxCell>
        <mxCell id="inMBAEC0fZ6yuW2oFUd9-24" value="" style="rounded=0;whiteSpace=wrap;html=1;fillColor=none;strokeColor=#FF0000;" vertex="1" parent="1">
          <mxGeometry x="3210" y="1050" width="100" height="150" as="geometry" />
        </mxCell>
        <mxCell id="inMBAEC0fZ6yuW2oFUd9-25" value="" style="shape=flexArrow;endArrow=classic;startArrow=classic;html=1;rounded=0;fillColor=#ffe6cc;strokeColor=#d79b00;" edge="1" parent="1">
          <mxGeometry width="100" height="100" relative="1" as="geometry">
            <mxPoint x="3149.29" y="1160" as="sourcePoint" />
            <mxPoint x="3149.29" y="1060" as="targetPoint" />
          </mxGeometry>
        </mxCell>
        <mxCell id="inMBAEC0fZ6yuW2oFUd9-26" value="CLK &amp;amp; RST" style="text;html=1;align=center;verticalAlign=middle;whiteSpace=wrap;rounded=0;" vertex="1" parent="1">
          <mxGeometry x="3100" y="1170" width="80" height="30" as="geometry" />
        </mxCell>
        <mxCell id="inMBAEC0fZ6yuW2oFUd9-28" value="" style="shape=flexArrow;endArrow=classic;startArrow=classic;html=1;rounded=0;" edge="1" parent="1">
          <mxGeometry width="100" height="100" relative="1" as="geometry">
            <mxPoint x="3110" y="944.29" as="sourcePoint" />
            <mxPoint x="3020" y="944.29" as="targetPoint" />
          </mxGeometry>
        </mxCell>
        <mxCell id="inMBAEC0fZ6yuW2oFUd9-29" value="PMU" style="text;html=1;align=center;verticalAlign=middle;whiteSpace=wrap;rounded=0;" vertex="1" parent="1">
          <mxGeometry x="2980" y="900" width="60" height="30" as="geometry" />
        </mxCell>
        <mxCell id="inMBAEC0fZ6yuW2oFUd9-30" value="" style="shape=flexArrow;endArrow=classic;startArrow=classic;html=1;rounded=0;" edge="1" parent="1">
          <mxGeometry width="100" height="100" relative="1" as="geometry">
            <mxPoint x="3110" y="1014.29" as="sourcePoint" />
            <mxPoint x="3020" y="1014.29" as="targetPoint" />
          </mxGeometry>
        </mxCell>
        <mxCell id="inMBAEC0fZ6yuW2oFUd9-31" value="FUSA" style="text;html=1;align=center;verticalAlign=middle;whiteSpace=wrap;rounded=0;" vertex="1" parent="1">
          <mxGeometry x="2980" y="970" width="60" height="30" as="geometry" />
        </mxCell>
        <mxCell id="inMBAEC0fZ6yuW2oFUd9-32" value="" style="shape=flexArrow;endArrow=classic;startArrow=classic;html=1;rounded=0;" edge="1" parent="1">
          <mxGeometry width="100" height="100" relative="1" as="geometry">
            <mxPoint x="4570" y="968.5699999999999" as="sourcePoint" />
            <mxPoint x="4480" y="968.5699999999999" as="targetPoint" />
          </mxGeometry>
        </mxCell>
        <mxCell id="inMBAEC0fZ6yuW2oFUd9-33" value="DFT" style="text;html=1;align=center;verticalAlign=middle;whiteSpace=wrap;rounded=0;" vertex="1" parent="1">
          <mxGeometry x="4549" y="920" width="60" height="30" as="geometry" />
        </mxCell>
        <mxCell id="inMBAEC0fZ6yuW2oFUd9-34" value="" style="shape=flexArrow;endArrow=classic;startArrow=classic;html=1;rounded=0;" edge="1" parent="1">
          <mxGeometry width="100" height="100" relative="1" as="geometry">
            <mxPoint x="4574" y="1037.57" as="sourcePoint" />
            <mxPoint x="4484" y="1037.57" as="targetPoint" />
          </mxGeometry>
        </mxCell>
        <mxCell id="inMBAEC0fZ6yuW2oFUd9-35" value="Debug" style="text;html=1;align=center;verticalAlign=middle;whiteSpace=wrap;rounded=0;" vertex="1" parent="1">
          <mxGeometry x="4553" y="989" width="60" height="30" as="geometry" />
        </mxCell>
        <mxCell id="inMBAEC0fZ6yuW2oFUd9-36" value="PM" style="rounded=0;whiteSpace=wrap;html=1;" vertex="1" parent="1">
          <mxGeometry x="3621" y="-80" width="158" height="60" as="geometry" />
        </mxCell>
        <mxCell id="inMBAEC0fZ6yuW2oFUd9-37" value="SC0" style="rounded=0;whiteSpace=wrap;html=1;" vertex="1" parent="1">
          <mxGeometry x="3592" width="78" height="140" as="geometry" />
        </mxCell>
        <mxCell id="inMBAEC0fZ6yuW2oFUd9-38" value="SC1" style="rounded=0;whiteSpace=wrap;html=1;" vertex="1" parent="1">
          <mxGeometry x="3722" width="78" height="140" as="geometry" />
        </mxCell>
        <mxCell id="inMBAEC0fZ6yuW2oFUd9-39" value="TCU&lt;span style=&quot;white-space: pre;&quot;&gt;&#x9;&lt;/span&gt;" style="rounded=0;whiteSpace=wrap;html=1;" vertex="1" parent="1">
          <mxGeometry x="3800" y="360" width="80" height="60" as="geometry" />
        </mxCell>
        <mxCell id="inMBAEC0fZ6yuW2oFUd9-40" value="TBU 0" style="rounded=0;whiteSpace=wrap;html=1;" vertex="1" parent="1">
          <mxGeometry x="3560" y="360" width="80" height="60" as="geometry" />
        </mxCell>
        <mxCell id="inMBAEC0fZ6yuW2oFUd9-41" value="TBU 1" style="rounded=0;whiteSpace=wrap;html=1;" vertex="1" parent="1">
          <mxGeometry x="3682" y="360" width="80" height="60" as="geometry" />
        </mxCell>
        <mxCell id="inMBAEC0fZ6yuW2oFUd9-42" value="Memory Top" style="rounded=0;whiteSpace=wrap;html=1;" vertex="1" parent="1">
          <mxGeometry x="3560" y="280" width="319" height="50" as="geometry" />
        </mxCell>
        <mxCell id="inMBAEC0fZ6yuW2oFUd9-43" value="" style="rounded=0;whiteSpace=wrap;html=1;fillColor=none;strokeColor=#FF0000;" vertex="1" parent="1">
          <mxGeometry x="3900" y="250" width="150" height="390" as="geometry" />
        </mxCell>
      </root>
    </mxGraphModel>
  </diagram>
  <diagram id="rmNHdPRVKoZM4U-aIzxw" name="floor plan">
    <mxGraphModel dx="1186" dy="696" grid="1" gridSize="10" guides="1" tooltips="1" connect="1" arrows="1" fold="1" page="1" pageScale="1" pageWidth="827" pageHeight="1169" math="0" shadow="0">
      <root>
        <mxCell id="0" />
        <mxCell id="1" parent="0" />
      </root>
    </mxGraphModel>
  </diagram>
  <diagram id="hPdiq3HURAOfTuz6_NrI" name="G78AE_Power">
    <mxGraphModel dx="1680" dy="2156" grid="1" gridSize="10" guides="1" tooltips="1" connect="1" arrows="1" fold="1" page="1" pageScale="1" pageWidth="827" pageHeight="1169" math="0" shadow="0">
      <root>
        <mxCell id="0" />
        <mxCell id="1" parent="0" />
        <mxCell id="lH9frCPQ70kklfl0zqBH-1" value="" style="rounded=0;whiteSpace=wrap;html=1;fillColor=#fff2cc;strokeColor=#d6b656;" vertex="1" parent="1">
          <mxGeometry x="110" y="60" width="1460" height="1340" as="geometry" />
        </mxCell>
        <mxCell id="lH9frCPQ70kklfl0zqBH-2" value="Always Active" style="text;html=1;align=center;verticalAlign=middle;whiteSpace=wrap;rounded=0;" vertex="1" parent="1">
          <mxGeometry x="110" y="60" width="90" height="30" as="geometry" />
        </mxCell>
        <mxCell id="lH9frCPQ70kklfl0zqBH-3" value="" style="rounded=0;whiteSpace=wrap;html=1;fillColor=#fff2cc;strokeColor=#000000;strokeWidth=6;" vertex="1" parent="1">
          <mxGeometry x="130" y="100" width="600" height="290" as="geometry" />
        </mxCell>
        <mxCell id="lH9frCPQ70kklfl0zqBH-4" value="&lt;b&gt;&lt;font style=&quot;font-size: 17px;&quot;&gt;PM&lt;/font&gt;&lt;/b&gt;" style="text;html=1;align=center;verticalAlign=middle;whiteSpace=wrap;rounded=0;" vertex="1" parent="1">
          <mxGeometry x="650" y="110" width="60" height="30" as="geometry" />
        </mxCell>
        <mxCell id="lH9frCPQ70kklfl0zqBH-5" value="PM&lt;div&gt;Logic&lt;/div&gt;" style="rounded=0;whiteSpace=wrap;html=1;" vertex="1" parent="1">
          <mxGeometry x="180" y="162.5" width="140" height="77.5" as="geometry" />
        </mxCell>
        <mxCell id="lH9frCPQ70kklfl0zqBH-6" value="" style="rounded=0;whiteSpace=wrap;html=1;" vertex="1" parent="1">
          <mxGeometry x="420" y="162.5" width="280" height="170" as="geometry" />
        </mxCell>
        <mxCell id="lH9frCPQ70kklfl0zqBH-7" value="PM Gating" style="text;html=1;align=center;verticalAlign=middle;whiteSpace=wrap;rounded=0;" vertex="1" parent="1">
          <mxGeometry x="525" y="162.5" width="120" height="40" as="geometry" />
        </mxCell>
        <mxCell id="lH9frCPQ70kklfl0zqBH-8" value="Slice0 PDC" style="rounded=0;whiteSpace=wrap;html=1;fillColor=#ffff88;strokeColor=#36393d;" vertex="1" parent="1">
          <mxGeometry x="440" y="202.5" width="70" height="30" as="geometry" />
        </mxCell>
        <mxCell id="lH9frCPQ70kklfl0zqBH-9" value="Slice1 PDC" style="rounded=0;whiteSpace=wrap;html=1;fillColor=#ffff88;strokeColor=#36393d;" vertex="1" parent="1">
          <mxGeometry x="440" y="232.5" width="70" height="30" as="geometry" />
        </mxCell>
        <mxCell id="lH9frCPQ70kklfl0zqBH-10" value="Slice0 PDA" style="rounded=0;whiteSpace=wrap;html=1;fillColor=#ffff88;strokeColor=#36393d;" vertex="1" parent="1">
          <mxGeometry x="575" y="202.5" width="70" height="30" as="geometry" />
        </mxCell>
        <mxCell id="lH9frCPQ70kklfl0zqBH-11" value="Slice1 PDA" style="rounded=0;whiteSpace=wrap;html=1;fillColor=#ffff88;strokeColor=#36393d;" vertex="1" parent="1">
          <mxGeometry x="575" y="232.5" width="70" height="30" as="geometry" />
        </mxCell>
        <mxCell id="lH9frCPQ70kklfl0zqBH-12" value="" style="rounded=0;whiteSpace=wrap;html=1;fillColor=#f5f5f5;fontColor=#333333;strokeColor=#666666;strokeWidth=5;" vertex="1" parent="1">
          <mxGeometry x="130" y="420" width="670" height="930" as="geometry" />
        </mxCell>
        <mxCell id="lH9frCPQ70kklfl0zqBH-14" value="Slice0" style="text;html=1;align=center;verticalAlign=middle;whiteSpace=wrap;rounded=0;" vertex="1" parent="1">
          <mxGeometry x="140" y="430" width="60" height="30" as="geometry" />
        </mxCell>
        <mxCell id="lH9frCPQ70kklfl0zqBH-16" value="" style="rounded=0;whiteSpace=wrap;html=1;fillColor=#fff2cc;strokeColor=#d6b656;" vertex="1" parent="1">
          <mxGeometry x="150" y="475" width="580" height="205" as="geometry" />
        </mxCell>
        <mxCell id="lH9frCPQ70kklfl0zqBH-17" value="Global" style="text;html=1;align=center;verticalAlign=middle;whiteSpace=wrap;rounded=0;" vertex="1" parent="1">
          <mxGeometry x="440" y="480" width="60" height="30" as="geometry" />
        </mxCell>
        <mxCell id="lH9frCPQ70kklfl0zqBH-18" value="Global&lt;div&gt;RAMS&lt;/div&gt;" style="rounded=0;whiteSpace=wrap;html=1;" vertex="1" parent="1">
          <mxGeometry x="170" y="508" width="120" height="142" as="geometry" />
        </mxCell>
        <mxCell id="lH9frCPQ70kklfl0zqBH-19" value="Global&lt;div&gt;Logic&lt;/div&gt;" style="rounded=0;whiteSpace=wrap;html=1;" vertex="1" parent="1">
          <mxGeometry x="300" y="510" width="165" height="142" as="geometry" />
        </mxCell>
        <mxCell id="lH9frCPQ70kklfl0zqBH-20" value="&lt;div&gt;&lt;br&gt;&lt;/div&gt;" style="rounded=0;whiteSpace=wrap;html=1;" vertex="1" parent="1">
          <mxGeometry x="480" y="510" width="240" height="140" as="geometry" />
        </mxCell>
        <mxCell id="lH9frCPQ70kklfl0zqBH-21" value="Global Gating" style="text;html=1;align=center;verticalAlign=middle;whiteSpace=wrap;rounded=0;" vertex="1" parent="1">
          <mxGeometry x="535" y="518" width="105" height="30" as="geometry" />
        </mxCell>
        <mxCell id="lH9frCPQ70kklfl0zqBH-22" value="CG PDC" style="rounded=0;whiteSpace=wrap;html=1;" vertex="1" parent="1">
          <mxGeometry x="485" y="555" width="90" height="35" as="geometry" />
        </mxCell>
        <mxCell id="lH9frCPQ70kklfl0zqBH-23" value="ST PDC" style="rounded=0;whiteSpace=wrap;html=1;" vertex="1" parent="1">
          <mxGeometry x="485" y="590" width="90" height="35" as="geometry" />
        </mxCell>
        <mxCell id="lH9frCPQ70kklfl0zqBH-24" value="CG PDA" style="rounded=0;whiteSpace=wrap;html=1;fillColor=#ffff88;strokeColor=#36393d;" vertex="1" parent="1">
          <mxGeometry x="620" y="555" width="90" height="35" as="geometry" />
        </mxCell>
        <mxCell id="lH9frCPQ70kklfl0zqBH-25" value="ST PDA" style="rounded=0;whiteSpace=wrap;html=1;fillColor=#ffff88;strokeColor=#36393d;" vertex="1" parent="1">
          <mxGeometry x="620" y="590" width="90" height="35" as="geometry" />
        </mxCell>
        <mxCell id="lH9frCPQ70kklfl0zqBH-26" value="" style="rounded=0;whiteSpace=wrap;html=1;fillColor=#d5e8d4;strokeColor=#82b366;" vertex="1" parent="1">
          <mxGeometry x="150" y="700" width="570" height="150" as="geometry" />
        </mxCell>
        <mxCell id="lH9frCPQ70kklfl0zqBH-27" value="Core Group" style="text;html=1;align=center;verticalAlign=middle;whiteSpace=wrap;rounded=0;" vertex="1" parent="1">
          <mxGeometry x="585" y="700" width="130" height="30" as="geometry" />
        </mxCell>
        <mxCell id="lH9frCPQ70kklfl0zqBH-28" value="Core Group&lt;div&gt;RAMS&lt;/div&gt;" style="rounded=0;whiteSpace=wrap;html=1;" vertex="1" parent="1">
          <mxGeometry x="170" y="730" width="100" height="110" as="geometry" />
        </mxCell>
        <mxCell id="lH9frCPQ70kklfl0zqBH-29" value="Core Group&lt;div&gt;Logic&lt;/div&gt;" style="rounded=0;whiteSpace=wrap;html=1;" vertex="1" parent="1">
          <mxGeometry x="290" y="730" width="100" height="110" as="geometry" />
        </mxCell>
        <mxCell id="lH9frCPQ70kklfl0zqBH-30" value="Core Group&lt;div&gt;Gating&lt;/div&gt;" style="rounded=0;whiteSpace=wrap;html=1;" vertex="1" parent="1">
          <mxGeometry x="475" y="730" width="225" height="110" as="geometry" />
        </mxCell>
        <mxCell id="lH9frCPQ70kklfl0zqBH-32" value="" style="rounded=0;whiteSpace=wrap;html=1;fillColor=#e1d5e7;strokeColor=#9673a6;" vertex="1" parent="1">
          <mxGeometry x="150" y="870" width="570" height="430" as="geometry" />
        </mxCell>
        <mxCell id="lH9frCPQ70kklfl0zqBH-33" value="Shader Stack" style="text;html=1;align=center;verticalAlign=middle;whiteSpace=wrap;rounded=0;" vertex="1" parent="1">
          <mxGeometry x="580" y="870" width="130" height="30" as="geometry" />
        </mxCell>
        <mxCell id="lH9frCPQ70kklfl0zqBH-37" value="" style="rounded=0;whiteSpace=wrap;html=1;strokeWidth=4;" vertex="1" parent="1">
          <mxGeometry x="170" y="910" width="530" height="110" as="geometry" />
        </mxCell>
        <mxCell id="lH9frCPQ70kklfl0zqBH-38" value="SC RAMs" style="rounded=0;whiteSpace=wrap;html=1;" vertex="1" parent="1">
          <mxGeometry x="190" y="940" width="170" height="60" as="geometry" />
        </mxCell>
        <mxCell id="lH9frCPQ70kklfl0zqBH-39" value="Shader Core 0" style="text;html=1;align=center;verticalAlign=middle;whiteSpace=wrap;rounded=0;" vertex="1" parent="1">
          <mxGeometry x="570" y="910" width="105" height="30" as="geometry" />
        </mxCell>
        <mxCell id="lH9frCPQ70kklfl0zqBH-40" value="SC Logic" style="rounded=0;whiteSpace=wrap;html=1;" vertex="1" parent="1">
          <mxGeometry x="375" y="940" width="120" height="60" as="geometry" />
        </mxCell>
        <mxCell id="lH9frCPQ70kklfl0zqBH-41" value="SC Gating" style="rounded=0;whiteSpace=wrap;html=1;" vertex="1" parent="1">
          <mxGeometry x="527.5" y="940" width="142.5" height="60" as="geometry" />
        </mxCell>
        <mxCell id="lH9frCPQ70kklfl0zqBH-42" value="" style="rounded=0;whiteSpace=wrap;html=1;" vertex="1" parent="1">
          <mxGeometry x="170" y="1030" width="530" height="110" as="geometry" />
        </mxCell>
        <mxCell id="lH9frCPQ70kklfl0zqBH-43" value="SC RAMs" style="rounded=0;whiteSpace=wrap;html=1;" vertex="1" parent="1">
          <mxGeometry x="190" y="1060" width="170" height="60" as="geometry" />
        </mxCell>
        <mxCell id="lH9frCPQ70kklfl0zqBH-44" value="Shader Core 1" style="text;html=1;align=center;verticalAlign=middle;whiteSpace=wrap;rounded=0;" vertex="1" parent="1">
          <mxGeometry x="570" y="1030" width="105" height="30" as="geometry" />
        </mxCell>
        <mxCell id="lH9frCPQ70kklfl0zqBH-45" value="SC Logic" style="rounded=0;whiteSpace=wrap;html=1;" vertex="1" parent="1">
          <mxGeometry x="375" y="1060" width="120" height="60" as="geometry" />
        </mxCell>
        <mxCell id="lH9frCPQ70kklfl0zqBH-46" value="SC Gating" style="rounded=0;whiteSpace=wrap;html=1;" vertex="1" parent="1">
          <mxGeometry x="527.5" y="1060" width="142.5" height="60" as="geometry" />
        </mxCell>
        <mxCell id="lH9frCPQ70kklfl0zqBH-47" value="" style="rounded=0;whiteSpace=wrap;html=1;" vertex="1" parent="1">
          <mxGeometry x="170" y="1150" width="530" height="110" as="geometry" />
        </mxCell>
        <mxCell id="lH9frCPQ70kklfl0zqBH-48" value="SC RAMs" style="rounded=0;whiteSpace=wrap;html=1;" vertex="1" parent="1">
          <mxGeometry x="190" y="1180" width="170" height="60" as="geometry" />
        </mxCell>
        <mxCell id="lH9frCPQ70kklfl0zqBH-49" value="Shader Core 1" style="text;html=1;align=center;verticalAlign=middle;whiteSpace=wrap;rounded=0;" vertex="1" parent="1">
          <mxGeometry x="570" y="1150" width="105" height="30" as="geometry" />
        </mxCell>
        <mxCell id="lH9frCPQ70kklfl0zqBH-50" value="SC Logic" style="rounded=0;whiteSpace=wrap;html=1;" vertex="1" parent="1">
          <mxGeometry x="375" y="1180" width="120" height="60" as="geometry" />
        </mxCell>
        <mxCell id="lH9frCPQ70kklfl0zqBH-51" value="SC Gating" style="rounded=0;whiteSpace=wrap;html=1;" vertex="1" parent="1">
          <mxGeometry x="527.5" y="1180" width="142.5" height="60" as="geometry" />
        </mxCell>
        <mxCell id="lH9frCPQ70kklfl0zqBH-53" value="" style="rounded=0;whiteSpace=wrap;html=1;fillColor=none;dashed=1;strokeColor=#FF0000;strokeWidth=4;" vertex="1" parent="1">
          <mxGeometry x="145" y="690" width="580" height="170" as="geometry" />
        </mxCell>
        <mxCell id="lH9frCPQ70kklfl0zqBH-54" value="" style="rounded=0;whiteSpace=wrap;html=1;fillColor=none;dashed=1;strokeColor=#FF0000;strokeWidth=4;" vertex="1" parent="1">
          <mxGeometry x="140" y="865" width="590" height="450" as="geometry" />
        </mxCell>
        <mxCell id="lH9frCPQ70kklfl0zqBH-56" value="CG ON/OFF" style="text;html=1;align=center;verticalAlign=middle;whiteSpace=wrap;rounded=0;" vertex="1" parent="1">
          <mxGeometry x="740" y="715" width="60" height="30" as="geometry" />
        </mxCell>
        <mxCell id="lH9frCPQ70kklfl0zqBH-57" value="Stack ON/OFF" style="text;html=1;align=center;verticalAlign=middle;whiteSpace=wrap;rounded=0;" vertex="1" parent="1">
          <mxGeometry x="740" y="1010" width="60" height="30" as="geometry" />
        </mxCell>
        <mxCell id="lH9frCPQ70kklfl0zqBH-58" value="&lt;font size=&quot;1&quot; color=&quot;#3333ff&quot;&gt;&lt;b style=&quot;font-size: 25px;&quot;&gt;VDD&lt;/b&gt;&lt;/font&gt;" style="text;html=1;align=center;verticalAlign=middle;whiteSpace=wrap;rounded=0;" vertex="1" parent="1">
          <mxGeometry x="785" y="-80" width="125" height="60" as="geometry" />
        </mxCell>
        <mxCell id="lH9frCPQ70kklfl0zqBH-59" value="" style="rounded=0;whiteSpace=wrap;html=1;fillColor=#f5f5f5;fontColor=#333333;strokeColor=#666666;" vertex="1" parent="1">
          <mxGeometry x="850" y="420" width="670" height="930" as="geometry" />
        </mxCell>
        <mxCell id="lH9frCPQ70kklfl0zqBH-60" value="Slice1" style="text;html=1;align=center;verticalAlign=middle;whiteSpace=wrap;rounded=0;" vertex="1" parent="1">
          <mxGeometry x="860" y="430" width="60" height="30" as="geometry" />
        </mxCell>
        <mxCell id="lH9frCPQ70kklfl0zqBH-61" value="" style="rounded=0;whiteSpace=wrap;html=1;fillColor=#fff2cc;strokeColor=#d6b656;" vertex="1" parent="1">
          <mxGeometry x="870" y="475" width="580" height="205" as="geometry" />
        </mxCell>
        <mxCell id="lH9frCPQ70kklfl0zqBH-62" value="Global" style="text;html=1;align=center;verticalAlign=middle;whiteSpace=wrap;rounded=0;" vertex="1" parent="1">
          <mxGeometry x="1160" y="480" width="60" height="30" as="geometry" />
        </mxCell>
        <mxCell id="lH9frCPQ70kklfl0zqBH-63" value="Global&lt;div&gt;RAMS&lt;/div&gt;" style="rounded=0;whiteSpace=wrap;html=1;" vertex="1" parent="1">
          <mxGeometry x="890" y="508" width="120" height="142" as="geometry" />
        </mxCell>
        <mxCell id="lH9frCPQ70kklfl0zqBH-64" value="Global&lt;div&gt;Logic&lt;/div&gt;" style="rounded=0;whiteSpace=wrap;html=1;" vertex="1" parent="1">
          <mxGeometry x="1020" y="510" width="165" height="142" as="geometry" />
        </mxCell>
        <mxCell id="lH9frCPQ70kklfl0zqBH-65" value="&lt;div&gt;&lt;br&gt;&lt;/div&gt;" style="rounded=0;whiteSpace=wrap;html=1;" vertex="1" parent="1">
          <mxGeometry x="1200" y="510" width="240" height="140" as="geometry" />
        </mxCell>
        <mxCell id="lH9frCPQ70kklfl0zqBH-66" value="Global Gating" style="text;html=1;align=center;verticalAlign=middle;whiteSpace=wrap;rounded=0;" vertex="1" parent="1">
          <mxGeometry x="1255" y="518" width="105" height="30" as="geometry" />
        </mxCell>
        <mxCell id="lH9frCPQ70kklfl0zqBH-67" value="CG PDC" style="rounded=0;whiteSpace=wrap;html=1;" vertex="1" parent="1">
          <mxGeometry x="1205" y="555" width="90" height="35" as="geometry" />
        </mxCell>
        <mxCell id="lH9frCPQ70kklfl0zqBH-68" value="ST PDC" style="rounded=0;whiteSpace=wrap;html=1;" vertex="1" parent="1">
          <mxGeometry x="1205" y="590" width="90" height="35" as="geometry" />
        </mxCell>
        <mxCell id="lH9frCPQ70kklfl0zqBH-69" value="CG PDA" style="rounded=0;whiteSpace=wrap;html=1;fillColor=#ffff88;strokeColor=#36393d;" vertex="1" parent="1">
          <mxGeometry x="1340" y="555" width="90" height="35" as="geometry" />
        </mxCell>
        <mxCell id="lH9frCPQ70kklfl0zqBH-70" value="ST PDA" style="rounded=0;whiteSpace=wrap;html=1;fillColor=#ffff88;strokeColor=#36393d;" vertex="1" parent="1">
          <mxGeometry x="1340" y="590" width="90" height="35" as="geometry" />
        </mxCell>
        <mxCell id="lH9frCPQ70kklfl0zqBH-71" value="" style="rounded=0;whiteSpace=wrap;html=1;fillColor=#d5e8d4;strokeColor=#82b366;" vertex="1" parent="1">
          <mxGeometry x="870" y="700" width="570" height="150" as="geometry" />
        </mxCell>
        <mxCell id="lH9frCPQ70kklfl0zqBH-72" value="Core Group" style="text;html=1;align=center;verticalAlign=middle;whiteSpace=wrap;rounded=0;" vertex="1" parent="1">
          <mxGeometry x="1305" y="700" width="130" height="30" as="geometry" />
        </mxCell>
        <mxCell id="lH9frCPQ70kklfl0zqBH-73" value="Core Group&lt;div&gt;RAMS&lt;/div&gt;" style="rounded=0;whiteSpace=wrap;html=1;" vertex="1" parent="1">
          <mxGeometry x="890" y="730" width="100" height="110" as="geometry" />
        </mxCell>
        <mxCell id="lH9frCPQ70kklfl0zqBH-74" value="Core Group&lt;div&gt;Logic&lt;/div&gt;" style="rounded=0;whiteSpace=wrap;html=1;" vertex="1" parent="1">
          <mxGeometry x="1010" y="730" width="100" height="110" as="geometry" />
        </mxCell>
        <mxCell id="lH9frCPQ70kklfl0zqBH-75" value="Core Group&lt;div&gt;Gating&lt;/div&gt;" style="rounded=0;whiteSpace=wrap;html=1;" vertex="1" parent="1">
          <mxGeometry x="1195" y="730" width="225" height="110" as="geometry" />
        </mxCell>
        <mxCell id="lH9frCPQ70kklfl0zqBH-76" value="" style="rounded=0;whiteSpace=wrap;html=1;fillColor=#e1d5e7;strokeColor=#9673a6;" vertex="1" parent="1">
          <mxGeometry x="870" y="870" width="570" height="430" as="geometry" />
        </mxCell>
        <mxCell id="lH9frCPQ70kklfl0zqBH-77" value="Shader Stack" style="text;html=1;align=center;verticalAlign=middle;whiteSpace=wrap;rounded=0;" vertex="1" parent="1">
          <mxGeometry x="1300" y="870" width="130" height="30" as="geometry" />
        </mxCell>
        <mxCell id="lH9frCPQ70kklfl0zqBH-78" value="" style="rounded=0;whiteSpace=wrap;html=1;" vertex="1" parent="1">
          <mxGeometry x="890" y="910" width="530" height="110" as="geometry" />
        </mxCell>
        <mxCell id="lH9frCPQ70kklfl0zqBH-79" value="SC RAMs" style="rounded=0;whiteSpace=wrap;html=1;" vertex="1" parent="1">
          <mxGeometry x="910" y="940" width="170" height="60" as="geometry" />
        </mxCell>
        <mxCell id="lH9frCPQ70kklfl0zqBH-80" value="Shader Core 0" style="text;html=1;align=center;verticalAlign=middle;whiteSpace=wrap;rounded=0;" vertex="1" parent="1">
          <mxGeometry x="1290" y="910" width="105" height="30" as="geometry" />
        </mxCell>
        <mxCell id="lH9frCPQ70kklfl0zqBH-81" value="SC Logic" style="rounded=0;whiteSpace=wrap;html=1;" vertex="1" parent="1">
          <mxGeometry x="1095" y="940" width="120" height="60" as="geometry" />
        </mxCell>
        <mxCell id="lH9frCPQ70kklfl0zqBH-82" value="SC Gating" style="rounded=0;whiteSpace=wrap;html=1;" vertex="1" parent="1">
          <mxGeometry x="1247.5" y="940" width="142.5" height="60" as="geometry" />
        </mxCell>
        <mxCell id="lH9frCPQ70kklfl0zqBH-83" value="" style="rounded=0;whiteSpace=wrap;html=1;" vertex="1" parent="1">
          <mxGeometry x="890" y="1030" width="530" height="110" as="geometry" />
        </mxCell>
        <mxCell id="lH9frCPQ70kklfl0zqBH-84" value="SC RAMs" style="rounded=0;whiteSpace=wrap;html=1;" vertex="1" parent="1">
          <mxGeometry x="910" y="1060" width="170" height="60" as="geometry" />
        </mxCell>
        <mxCell id="lH9frCPQ70kklfl0zqBH-85" value="Shader Core 1" style="text;html=1;align=center;verticalAlign=middle;whiteSpace=wrap;rounded=0;" vertex="1" parent="1">
          <mxGeometry x="1290" y="1030" width="105" height="30" as="geometry" />
        </mxCell>
        <mxCell id="lH9frCPQ70kklfl0zqBH-86" value="SC Logic" style="rounded=0;whiteSpace=wrap;html=1;" vertex="1" parent="1">
          <mxGeometry x="1095" y="1060" width="120" height="60" as="geometry" />
        </mxCell>
        <mxCell id="lH9frCPQ70kklfl0zqBH-87" value="SC Gating" style="rounded=0;whiteSpace=wrap;html=1;" vertex="1" parent="1">
          <mxGeometry x="1247.5" y="1060" width="142.5" height="60" as="geometry" />
        </mxCell>
        <mxCell id="lH9frCPQ70kklfl0zqBH-88" value="" style="rounded=0;whiteSpace=wrap;html=1;" vertex="1" parent="1">
          <mxGeometry x="890" y="1150" width="530" height="110" as="geometry" />
        </mxCell>
        <mxCell id="lH9frCPQ70kklfl0zqBH-89" value="SC RAMs" style="rounded=0;whiteSpace=wrap;html=1;" vertex="1" parent="1">
          <mxGeometry x="910" y="1180" width="170" height="60" as="geometry" />
        </mxCell>
        <mxCell id="lH9frCPQ70kklfl0zqBH-90" value="Shader Core 1" style="text;html=1;align=center;verticalAlign=middle;whiteSpace=wrap;rounded=0;" vertex="1" parent="1">
          <mxGeometry x="1290" y="1150" width="105" height="30" as="geometry" />
        </mxCell>
        <mxCell id="lH9frCPQ70kklfl0zqBH-91" value="SC Logic" style="rounded=0;whiteSpace=wrap;html=1;" vertex="1" parent="1">
          <mxGeometry x="1095" y="1180" width="120" height="60" as="geometry" />
        </mxCell>
        <mxCell id="lH9frCPQ70kklfl0zqBH-92" value="SC Gating" style="rounded=0;whiteSpace=wrap;html=1;" vertex="1" parent="1">
          <mxGeometry x="1247.5" y="1180" width="142.5" height="60" as="geometry" />
        </mxCell>
        <mxCell id="lH9frCPQ70kklfl0zqBH-93" value="" style="rounded=0;whiteSpace=wrap;html=1;fillColor=none;dashed=1;strokeColor=#FF0000;strokeWidth=4;" vertex="1" parent="1">
          <mxGeometry x="865" y="690" width="580" height="170" as="geometry" />
        </mxCell>
        <mxCell id="lH9frCPQ70kklfl0zqBH-94" value="" style="rounded=0;whiteSpace=wrap;html=1;fillColor=none;dashed=1;strokeColor=#FF0000;strokeWidth=4;" vertex="1" parent="1">
          <mxGeometry x="860" y="865" width="590" height="450" as="geometry" />
        </mxCell>
        <mxCell id="lH9frCPQ70kklfl0zqBH-95" value="CG ON/OFF" style="text;html=1;align=center;verticalAlign=middle;whiteSpace=wrap;rounded=0;" vertex="1" parent="1">
          <mxGeometry x="1460" y="730" width="60" height="30" as="geometry" />
        </mxCell>
        <mxCell id="lH9frCPQ70kklfl0zqBH-96" value="Stack ON/OFF" style="text;html=1;align=center;verticalAlign=middle;whiteSpace=wrap;rounded=0;" vertex="1" parent="1">
          <mxGeometry x="1460" y="1010" width="60" height="30" as="geometry" />
        </mxCell>
        <mxCell id="lH9frCPQ70kklfl0zqBH-99" value="" style="rounded=0;whiteSpace=wrap;html=1;fillColor=#fff2cc;strokeColor=#d6b656;" vertex="1" parent="1">
          <mxGeometry x="1700" y="215" width="120" height="60" as="geometry" />
        </mxCell>
        <mxCell id="lH9frCPQ70kklfl0zqBH-100" value="Always Active&lt;div&gt;Power&lt;/div&gt;&lt;div&gt;Domain&lt;/div&gt;" style="text;html=1;align=center;verticalAlign=middle;whiteSpace=wrap;rounded=0;" vertex="1" parent="1">
          <mxGeometry x="1830" y="215" width="130" height="65" as="geometry" />
        </mxCell>
        <mxCell id="lH9frCPQ70kklfl0zqBH-101" value="" style="rounded=0;whiteSpace=wrap;html=1;fillColor=#d5e8d4;strokeColor=#82b366;" vertex="1" parent="1">
          <mxGeometry x="1700" y="300" width="120" height="60" as="geometry" />
        </mxCell>
        <mxCell id="lH9frCPQ70kklfl0zqBH-102" value="&lt;div&gt;Core Group&lt;/div&gt;&lt;div&gt;Power&lt;/div&gt;&lt;div&gt;Domain&lt;/div&gt;" style="text;html=1;align=center;verticalAlign=middle;whiteSpace=wrap;rounded=0;" vertex="1" parent="1">
          <mxGeometry x="1830" y="300" width="130" height="65" as="geometry" />
        </mxCell>
        <mxCell id="lH9frCPQ70kklfl0zqBH-103" value="" style="rounded=0;whiteSpace=wrap;html=1;fillColor=#e1d5e7;strokeColor=#9673a6;" vertex="1" parent="1">
          <mxGeometry x="1700" y="390" width="120" height="60" as="geometry" />
        </mxCell>
        <mxCell id="lH9frCPQ70kklfl0zqBH-104" value="&lt;div&gt;&lt;span style=&quot;background-color: initial;&quot;&gt;Shader Stack&lt;/span&gt;&lt;/div&gt;&lt;div&gt;&lt;span style=&quot;background-color: initial;&quot;&gt;Power&lt;/span&gt;&lt;br&gt;&lt;/div&gt;&lt;div&gt;Domain&lt;/div&gt;" style="text;html=1;align=center;verticalAlign=middle;whiteSpace=wrap;rounded=0;" vertex="1" parent="1">
          <mxGeometry x="1830" y="390" width="130" height="65" as="geometry" />
        </mxCell>
        <mxCell id="lH9frCPQ70kklfl0zqBH-105" value="" style="rounded=0;whiteSpace=wrap;html=1;fillColor=none;dashed=1;strokeColor=#FF0000;strokeWidth=4;" vertex="1" parent="1">
          <mxGeometry x="1700" y="480" width="120" height="60" as="geometry" />
        </mxCell>
        <mxCell id="lH9frCPQ70kklfl0zqBH-106" value="&lt;div&gt;&lt;span style=&quot;background-color: initial;&quot;&gt;Power&lt;/span&gt;&lt;br&gt;&lt;/div&gt;&lt;div&gt;Domain&lt;/div&gt;&lt;div&gt;Isolation&lt;/div&gt;" style="text;html=1;align=center;verticalAlign=middle;whiteSpace=wrap;rounded=0;" vertex="1" parent="1">
          <mxGeometry x="1840" y="475" width="130" height="65" as="geometry" />
        </mxCell>
        <mxCell id="lH9frCPQ70kklfl0zqBH-107" value="" style="endArrow=none;html=1;rounded=0;strokeColor=#3333FF;strokeWidth=5;" edge="1" parent="1">
          <mxGeometry width="50" height="50" relative="1" as="geometry">
            <mxPoint x="840" y="1081.75" as="sourcePoint" />
            <mxPoint x="840" y="-18.25" as="targetPoint" />
          </mxGeometry>
        </mxCell>
        <mxCell id="lH9frCPQ70kklfl0zqBH-108" value="" style="endArrow=none;html=1;rounded=0;strokeColor=#3333FF;strokeWidth=5;" edge="1" parent="1">
          <mxGeometry width="50" height="50" relative="1" as="geometry">
            <mxPoint x="730" y="1081.75" as="sourcePoint" />
            <mxPoint x="840" y="1081.75" as="targetPoint" />
          </mxGeometry>
        </mxCell>
        <mxCell id="lH9frCPQ70kklfl0zqBH-109" value="" style="endArrow=none;html=1;rounded=0;strokeColor=#3333FF;strokeWidth=5;" edge="1" parent="1">
          <mxGeometry width="50" height="50" relative="1" as="geometry">
            <mxPoint x="730" y="756.04" as="sourcePoint" />
            <mxPoint x="840" y="756.04" as="targetPoint" />
          </mxGeometry>
        </mxCell>
        <mxCell id="lH9frCPQ70kklfl0zqBH-110" value="" style="endArrow=none;html=1;rounded=0;strokeColor=#3333FF;strokeWidth=5;" edge="1" parent="1">
          <mxGeometry width="50" height="50" relative="1" as="geometry">
            <mxPoint x="730" y="210" as="sourcePoint" />
            <mxPoint x="870" y="210" as="targetPoint" />
          </mxGeometry>
        </mxCell>
        <mxCell id="lH9frCPQ70kklfl0zqBH-114" value="" style="endArrow=none;html=1;rounded=0;strokeColor=#3333FF;strokeWidth=5;" edge="1" parent="1">
          <mxGeometry width="50" height="50" relative="1" as="geometry">
            <mxPoint x="1560" y="1098" as="sourcePoint" />
            <mxPoint x="850" y="210" as="targetPoint" />
            <Array as="points">
              <mxPoint x="1560" y="210" />
            </Array>
          </mxGeometry>
        </mxCell>
        <mxCell id="lH9frCPQ70kklfl0zqBH-115" value="" style="endArrow=none;html=1;rounded=0;strokeColor=#3333FF;strokeWidth=5;" edge="1" parent="1">
          <mxGeometry width="50" height="50" relative="1" as="geometry">
            <mxPoint x="1450" y="1098" as="sourcePoint" />
            <mxPoint x="1560" y="1098" as="targetPoint" />
          </mxGeometry>
        </mxCell>
        <mxCell id="lH9frCPQ70kklfl0zqBH-116" value="" style="endArrow=none;html=1;rounded=0;strokeColor=#3333FF;strokeWidth=5;" edge="1" parent="1">
          <mxGeometry width="50" height="50" relative="1" as="geometry">
            <mxPoint x="1450" y="772.29" as="sourcePoint" />
            <mxPoint x="1560" y="772.29" as="targetPoint" />
          </mxGeometry>
        </mxCell>
      </root>
    </mxGraphModel>
  </diagram>
</mxfile>
